<svg version="1.2" xmlns="http://www.w3.org/2000/svg" viewBox="0 0 720 192" width="720" height="192">
	<defs>
		<linearGradient id="g1" x2="1" gradientUnits="userSpaceOnUse" gradientTransform="matrix(0,56.366,-43.159,0,156.466,45.171)">
			<stop offset=".57" stop-color="#d1d3d4" stop-opacity="1"/>
			<stop offset=".572" stop-color="#ffffff" stop-opacity=".2"/>
		</linearGradient>
		<linearGradient id="g2" x2="1" gradientUnits="userSpaceOnUse" gradientTransform="matrix(0,56.366,-64.488,0,225.491,45.171)">
			<stop offset=".57" stop-color="#d1d3d4" stop-opacity="1"/>
			<stop offset=".572" stop-color="#ffffff" stop-opacity=".2"/>
		</linearGradient>
		<linearGradient id="g3" x2="1" gradientUnits="userSpaceOnUse" gradientTransform="matrix(0,56.366,-83.559,0,325.445,45.171)">
			<stop offset=".57" stop-color="#d1d3d4" stop-opacity="1"/>
			<stop offset=".572" stop-color="#ffffff" stop-opacity=".2"/>
		</linearGradient>
		<linearGradient id="g4" x2="1" gradientUnits="userSpaceOnUse" gradientTransform="matrix(0,56.366,-76.642,0,435.596,45.171)">
			<stop offset=".57" stop-color="#d1d3d4" stop-opacity="1"/>
			<stop offset=".572" stop-color="#ffffff" stop-opacity=".2"/>
		</linearGradient>
		<linearGradient id="g5" x2="1" gradientUnits="userSpaceOnUse" gradientTransform="matrix(0,56.366,-65.355,0,557.026,45.171)">
			<stop offset=".57" stop-color="#d1d3d4" stop-opacity="1"/>
			<stop offset=".572" stop-color="#ffffff" stop-opacity=".2"/>
		</linearGradient>
		<linearGradient id="g6" x2="1" gradientUnits="userSpaceOnUse" gradientTransform="matrix(0,56.366,-44.985,0,714.523,45.171)">
			<stop offset=".57" stop-color="#d1d3d4" stop-opacity="1"/>
			<stop offset=".572" stop-color="#ffffff" stop-opacity=".2"/>
		</linearGradient>
		<linearGradient id="g7" x2="1" gradientUnits="userSpaceOnUse" gradientTransform="matrix(0,127.38,-97.534,0,156.466,24.465)">
			<stop offset=".57" stop-color="#d1d3d4" stop-opacity="1"/>
			<stop offset=".572" stop-color="#ffffff" stop-opacity=".2"/>
		</linearGradient>
		<linearGradient id="g8" x2="1" gradientUnits="userSpaceOnUse" gradientTransform="matrix(0,87.282,-99.859,0,225.491,24.465)">
			<stop offset=".57" stop-color="#d1d3d4" stop-opacity="1"/>
			<stop offset=".572" stop-color="#ffffff" stop-opacity=".2"/>
		</linearGradient>
		<linearGradient id="g9" x2="1" gradientUnits="userSpaceOnUse" gradientTransform="matrix(0,67.224,-99.655,0,325.445,24.561)">
			<stop offset=".57" stop-color="#d1d3d4" stop-opacity="1"/>
			<stop offset=".572" stop-color="#ffffff" stop-opacity=".2"/>
		</linearGradient>
		<linearGradient id="g10" x2="1" gradientUnits="userSpaceOnUse" gradientTransform="matrix(0,65.904,-89.61,0,435.596,24.561)">
			<stop offset=".57" stop-color="#d1d3d4" stop-opacity="1"/>
			<stop offset=".572" stop-color="#ffffff" stop-opacity=".2"/>
		</linearGradient>
		<linearGradient id="g11" x2="1" gradientUnits="userSpaceOnUse" gradientTransform="matrix(0,86.15,-99.889,0,557.026,24.465)">
			<stop offset=".57" stop-color="#d1d3d4" stop-opacity="1"/>
			<stop offset=".572" stop-color="#ffffff" stop-opacity=".2"/>
		</linearGradient>
		<linearGradient id="g12" x2="1" gradientUnits="userSpaceOnUse" gradientTransform="matrix(0,126.554,-101.002,0,714.523,24.603)">
			<stop offset=".57" stop-color="#d1d3d4" stop-opacity="1"/>
			<stop offset=".572" stop-color="#ffffff" stop-opacity=".2"/>
		</linearGradient>
	</defs>
	<style>
		.s0 { fill: none;stroke: #00a651;stroke-width: 20 } 
		.s1 { fill: #ffffff } 
		.s2 { fill: #060606 } 
		.s3 { fill: url(#g1) } 
		.s4 { fill: url(#g2) } 
		.s5 { fill: url(#g3) } 
		.s6 { fill: url(#g4) } 
		.s7 { fill: url(#g5) } 
		.s8 { fill: url(#g6) } 
		.s9 { fill: none;stroke: #00ff00;stroke-width: 16 } 
		.s10 { fill: url(#g7) } 
		.s11 { fill: url(#g8) } 
		.s12 { fill: url(#g9) } 
		.s13 { fill: url(#g10) } 
		.s14 { fill: url(#g11) } 
		.s15 { fill: url(#g12) } 
	</style>
	<g id="Layer 1">
		<g id="&lt;Group&gt;">
			<g id="&lt;Group&gt;">
				<g id="&lt;Group&gt;">
					<g id="&lt;Group&gt;">
						<path id="&lt;Compound Path&gt;" fill-rule="evenodd" class="s0" d="m20.52 157.81q0-68.67 0-137.34 41.58 0 83.17 0c7.49 7.24 14.95 14.02 22.41 20.41q-0.72 30.43-1.45 60.85c-7.74 8.51-15.46 17.52-23.13 27.09-27.34 8.3-54.37 17.96-81 28.99zm47.92-40.42q3.79-1.07 7.58-2.1 0.54-36.59 1.07-73.17-3.84 0.23-7.69 0.48-0.48 37.39-0.96 74.79z"/>
						<path id="&lt;Compound Path&gt;" fill-rule="evenodd" class="s0" d="m148.42 116.01q-7.54-4.21-15.06-8.77 0.93-37.12 1.85-74.24 7.87-6.52 15.75-12.53 37.59 0 75.18 0 7.59 5.07 15.19 9.87-0.74 29.26-1.49 58.52-7.94 5.9-15.88 12.22c-25.33 3.86-50.54 8.83-75.54 14.93zm34.24-23.99q3.87-0.64 7.75-1.24 0.77-27.13 1.55-54.26-3.87 0.14-7.73 0.28-0.79 27.61-1.57 55.22z"/>
						<path id="&lt;Compound Path&gt;" class="s0" d="m264.32 95.89q-7.74-3.98-15.44-8.05 0.7-28.77 1.41-57.54 7.85-4.98 15.67-9.73 37.6-0.01 75.19-0.01 7.7 4.45 15.44 8.9 0 11.48 0 22.96-24.8 0-49.6 0.64 0.13-9.57 0.25-19.13-3.87 0.04-7.75 0.09-0.33 22.69-0.67 45.38 3.91-0.2 7.83-0.39 0.13-9.75 0.26-19.51 24.83-0.77 49.69-0.76 0 11.67 0 23.35-7.85 4.49-15.75 9.12c-25.55 0.44-51.09 2-76.53 4.68z"/>
						<path id="&lt;Compound Path&gt;" class="s0" d="m387.12 91.64q-0.2-24.16-0.4-48.32-12.07-0.14-24.13-0.17-0.02-11.29-0.04-22.59 48.56 0 97.12 0.01 0.3 12.31 0.6 24.62-12.05-0.47-24.1-0.84 0.51 25.25 1.01 50.5-24.99-2.32-50.06-3.21z"/>
						<path id="&lt;Compound Path&gt;" fill-rule="evenodd" class="s0" d="m483.2 100.36q-7.94-6.23-15.88-12.05-0.72-29.02-1.44-58.05 7.61-4.77 15.19-9.79 37.59 0 75.18 0 7.89 5.94 15.76 12.37 0.93 36.66 1.87 73.33-7.53 4.52-15.08 8.7c-25.02-5.96-50.25-10.79-75.6-14.51zm33.59-10.32q3.88 0.59 7.75 1.21-0.78-27.31-1.56-54.62-3.86-0.14-7.72-0.28 0.76 26.84 1.53 53.69z"/>
						<path id="&lt;Compound Path&gt;" fill-rule="evenodd" class="s0" d="m583.09 121.01q-1.23-50.2-2.45-100.41 45.31 0.02 90.62 0.04 7.76 8.16 15.46 17.08 0.04 28.54 0.08 57.09-4.57 4.13-9.12 8.02 6.99 26.41 13.76 54.98-24.66-10.21-49.75-18.86-3.9-20.52-7.86-40.2-1.4-0.32-2.8-0.63 0.29 18.71 0.58 37.42-24.1-7.98-48.52-14.53zm47.52-49.09q3.83 0.56 7.65 1.14-0.21-15.3-0.43-30.6-3.84-0.24-7.69-0.48 0.24 14.97 0.47 29.94z"/>
					</g>
					<g id="&lt;Group&gt;">
						<path id="&lt;Compound Path&gt;" fill-rule="evenodd" class="s1" d="m20.52 157.81q0-68.67 0-137.34 41.58 0 83.17 0c7.49 7.24 14.95 14.02 22.41 20.41q-0.72 30.43-1.45 60.85c-7.74 8.51-15.46 17.52-23.13 27.09-27.34 8.3-54.37 17.96-81 28.99zm47.92-40.42q3.79-1.07 7.58-2.1 0.54-36.59 1.07-73.17-3.84 0.23-7.69 0.48-0.48 37.39-0.96 74.79z"/>
						<path id="&lt;Compound Path&gt;" fill-rule="evenodd" class="s1" d="m148.42 116.01q-7.54-4.21-15.06-8.77 0.93-37.12 1.85-74.24 7.87-6.52 15.75-12.53 37.59 0 75.18 0 7.59 5.07 15.19 9.87-0.74 29.26-1.49 58.52-7.94 5.9-15.88 12.22c-25.33 3.86-50.54 8.83-75.54 14.93zm34.24-23.99q3.87-0.64 7.75-1.24 0.77-27.13 1.55-54.26-3.87 0.14-7.73 0.28-0.79 27.61-1.57 55.22z"/>
						<path id="&lt;Compound Path&gt;" class="s1" d="m264.32 95.89q-7.74-3.98-15.44-8.05 0.7-28.77 1.41-57.54 7.85-4.98 15.67-9.73 37.6-0.01 75.19-0.01 7.7 4.45 15.44 8.9 0 11.48 0 22.96-24.8 0-49.6 0.64 0.13-9.57 0.25-19.13-3.87 0.04-7.75 0.09-0.33 22.69-0.67 45.38 3.91-0.2 7.83-0.39 0.13-9.75 0.26-19.51 24.83-0.77 49.69-0.76 0 11.67 0 23.35-7.85 4.49-15.75 9.12c-25.55 0.44-51.09 2-76.53 4.68z"/>
						<path id="&lt;Compound Path&gt;" class="s1" d="m387.12 91.64q-0.2-24.16-0.4-48.32-12.07-0.14-24.13-0.17-0.02-11.29-0.04-22.59 48.56 0 97.12 0.01 0.3 12.31 0.6 24.62-12.05-0.47-24.1-0.84 0.51 25.25 1.01 50.5-24.99-2.32-50.06-3.21z"/>
						<path id="&lt;Compound Path&gt;" fill-rule="evenodd" class="s1" d="m483.2 100.36q-7.94-6.23-15.88-12.05-0.72-29.02-1.44-58.05 7.61-4.77 15.19-9.79 37.59 0 75.18 0 7.89 5.94 15.76 12.37 0.93 36.66 1.87 73.33-7.53 4.52-15.08 8.7c-25.02-5.96-50.25-10.79-75.6-14.51zm33.59-10.32q3.88 0.59 7.75 1.21-0.78-27.31-1.56-54.62-3.86-0.14-7.72-0.28 0.76 26.84 1.53 53.69z"/>
						<path id="&lt;Compound Path&gt;" fill-rule="evenodd" class="s1" d="m583.09 121.01q-1.23-50.2-2.45-100.41 45.31 0.02 90.62 0.04 7.76 8.16 15.46 17.08 0.04 28.54 0.08 57.09-4.57 4.13-9.12 8.02 6.99 26.41 13.76 54.98-24.66-10.21-49.75-18.86-3.9-20.52-7.86-40.2-1.4-0.32-2.8-0.63 0.29 18.71 0.58 37.42-24.1-7.98-48.52-14.53zm47.52-49.09q3.83 0.56 7.65 1.14-0.21-15.3-0.43-30.6-3.84-0.24-7.69-0.48 0.24 14.97 0.47 29.94z"/>
					</g>
					<g id="&lt;Group&gt;">
						<path id="&lt;Path&gt;" class="s2" d="m8.52 8.47h100.03l3.49 3.37c7.11 6.89 14.47 13.6 21.87 19.93l4.32 3.71-1.69 71.01-3.01 3.32c-7.71 8.47-15.33 17.39-22.64 26.52l-2.33 2.9-3.55 1.08c-26.97 8.18-53.85 17.8-79.9 28.59l-16.59 6.87z"/>
						<path id="&lt;Path&gt;" class="s2" d="m142.58 126.48c-5.24-2.92-10.44-5.94-15.45-8.99l-5.94-3.61 2.16-86.64 4.21-3.49c5.25-4.35 10.67-8.66 16.12-12.82l3.23-2.46h82.88l3.03 2.02c4.8 3.22 9.82 6.49 14.92 9.71l5.76 3.64-1.81 71.16-4.69 3.49c-5.28 3.93-10.52 7.96-15.57 11.98l-2.5 1.99-3.16 0.48c-24.93 3.8-50 8.75-74.51 14.72l-4.57 1.12z"/>
						<path id="&lt;Path&gt;" class="s2" d="m258.83 106.56c-5.63-2.9-10.72-5.55-15.56-8.11l-6.56-3.48 1.74-71.37 5.4-3.43c5.12-3.25 10.31-6.47 15.89-9.86l2.87-1.74 81.76-0.01 2.79 1.61q7.68 4.45 15.41 8.89l6.02 3.46 0.01 66.53-6.04 3.45c-5.62 3.22-10.73 6.18-15.62 9.06l-2.72 1.6-3.16 0.05c-25.11 0.43-50.51 1.99-75.49 4.61l-3.56 0.38z"/>
						<path id="&lt;Path&gt;" class="s2" d="m436.07 106.8c-16.35-1.52-32.96-2.59-49.37-3.17l-11.48-0.41-0.4-48.01q-6.14-0.04-12.26-0.06l-11.95-0.03-0.08-46.52 12.02-0.04c32.38 0 108.84 0.01 108.84 0.01l1.18 49.11-12.77-0.5q-5.68-0.22-11.38-0.42l1.03 51.28z"/>
						<path id="&lt;Path&gt;" class="s2" d="m556.02 126.54c-24.52-5.83-49.6-10.65-74.56-14.31l-3.15-0.46-2.51-1.97c-5.05-3.96-10.29-7.93-15.58-11.82l-4.75-3.48-1.76-70.77 5.79-3.63c5.12-3.21 10.14-6.45 14.94-9.63l3.02-2h82.81l3.21 2.42c5.46 4.12 10.89 8.38 16.13 12.66l4.26 3.48 2.18 85.81-5.98 3.61c-5.01 3.01-10.21 6.01-15.46 8.91l-4.06 2.26z"/>
						<path id="&lt;Path&gt;" class="s2" d="m686.85 168.9c-16.11-6.67-32.62-12.93-49.07-18.61l-4.93-1.7-5.01-1.66c-15.74-5.21-31.85-10.03-47.86-14.33l-8.67-2.33-2.97-121.67 108.07 0.04 3.54 3.73c5.36 5.63 10.69 11.52 15.86 17.51l2.9 3.37 0.09 66.88-3.95 3.58q-1.83 1.65-3.67 3.28c4.08 15.66 8.08 31.78 11.94 48.05l5.4 22.83z"/>
					</g>
					<g id="&lt;Group&gt;">
						<path id="&lt;Compound Path&gt;" fill-rule="evenodd" class="s1" d="m20.52 157.81q0-68.67 0-137.34 41.58 0 83.17 0c7.49 7.24 14.95 14.02 22.41 20.41q-0.72 30.43-1.45 60.85c-7.74 8.51-15.46 17.52-23.13 27.09-27.34 8.3-54.37 17.96-81 28.99zm47.92-40.42q3.79-1.07 7.58-2.1 0.54-36.59 1.07-73.17-3.84 0.23-7.69 0.48-0.48 37.39-0.96 74.79z"/>
						<path id="&lt;Compound Path&gt;" fill-rule="evenodd" class="s1" d="m148.42 116.01q-7.54-4.21-15.06-8.77 0.93-37.12 1.85-74.24 7.87-6.52 15.75-12.53 37.59 0 75.18 0 7.59 5.07 15.19 9.87-0.74 29.26-1.49 58.52-7.94 5.9-15.88 12.22c-25.33 3.86-50.54 8.83-75.54 14.93zm34.24-23.99q3.87-0.64 7.75-1.24 0.77-27.13 1.55-54.26-3.87 0.14-7.73 0.28-0.79 27.61-1.57 55.22z"/>
						<path id="&lt;Compound Path&gt;" class="s1" d="m264.32 95.89q-7.74-3.98-15.44-8.05 0.7-28.77 1.41-57.54 7.85-4.98 15.67-9.73 37.6-0.01 75.19-0.01 7.7 4.45 15.44 8.9 0 11.48 0 22.96-24.8 0-49.6 0.64 0.13-9.57 0.25-19.13-3.87 0.04-7.75 0.09-0.33 22.69-0.67 45.38 3.91-0.2 7.83-0.39 0.13-9.75 0.26-19.51 24.83-0.77 49.69-0.76 0 11.67 0 23.35-7.85 4.49-15.75 9.12c-25.55 0.44-51.09 2-76.53 4.68z"/>
						<path id="&lt;Compound Path&gt;" class="s1" d="m387.12 91.64q-0.2-24.16-0.4-48.32-12.07-0.14-24.13-0.17-0.02-11.29-0.04-22.59 48.56 0 97.12 0.01 0.3 12.31 0.6 24.62-12.05-0.47-24.1-0.84 0.51 25.25 1.01 50.5-24.99-2.32-50.06-3.21z"/>
						<path id="&lt;Compound Path&gt;" fill-rule="evenodd" class="s1" d="m483.2 100.36q-7.94-6.23-15.88-12.05-0.72-29.02-1.44-58.05 7.61-4.77 15.19-9.79 37.59 0 75.18 0 7.89 5.94 15.76 12.37 0.93 36.66 1.87 73.33-7.53 4.52-15.08 8.7c-25.02-5.96-50.25-10.79-75.6-14.51zm33.59-10.32q3.88 0.59 7.75 1.21-0.78-27.31-1.56-54.62-3.86-0.14-7.72-0.28 0.76 26.84 1.53 53.69z"/>
						<path id="&lt;Compound Path&gt;" fill-rule="evenodd" class="s1" d="m583.09 121.01q-1.23-50.2-2.45-100.41 45.31 0.02 90.62 0.04 7.76 8.16 15.46 17.08 0.04 28.54 0.08 57.09-4.57 4.13-9.12 8.02 6.99 26.41 13.76 54.98-24.66-10.21-49.75-18.86-3.9-20.52-7.86-40.2-1.4-0.32-2.8-0.63 0.29 18.71 0.58 37.42-24.1-7.98-48.52-14.53zm47.52-49.09q3.83 0.56 7.65 1.14-0.21-15.3-0.43-30.6-3.84-0.24-7.69-0.48 0.24 14.97 0.47 29.94z"/>
					</g>
					<g id="&lt;Group&gt;">
						<path id="&lt;Compound Path&gt;" fill-rule="evenodd" class="s3" d="m24.52 24.47h77.56c6.52 6.27 13.23 12.38 19.97 18.21l-1.36 57.46c-7.32 8.09-14.55 16.56-21.51 25.22-25.17 7.67-50.25 16.57-74.66 26.49zm44.63 14.13l-3.7 0.24-1.08 83.85 5.15-1.45q3.78-1.06 7.55-2.09l2.91-0.8 1.18-80.49c0 0-9.44 0.58-12.01 0.74z"/>
						<path id="&lt;Compound Path&gt;" fill-rule="evenodd" class="s4" d="m149.01 111.75c-3.92-2.2-7.8-4.46-11.59-6.74l1.74-70.09c4.31-3.54 8.72-7.05 13.16-10.45h72.61c4 2.67 8.14 5.36 12.35 8.04l-1.39 54.31c-4.6 3.44-9.16 6.96-13.59 10.46-24.52 3.77-49.17 8.63-73.29 14.47zm31.33-78.8l-1.82 63.81 4.79-0.79q3.86-0.64 7.72-1.24l3.28-0.52 1.77-61.84z"/>
						<path id="&lt;Path&gt;" class="s5" d="m265.09 91.78c-4.33-2.22-8.33-4.3-12.15-6.32l1.29-52.93c4.15-2.62 8.38-5.24 12.86-7.96l72.98-0.01q6.25 3.61 12.52 7.21v16.66c-13.8 0.02-27.74 0.2-41.54 0.53l0.25-19.07c0 0-9.27 0.1-11.86 0.13l-3.89 0.05-0.8 53.56 4.28-0.23q3.9-0.21 7.81-0.39l3.76-0.17 0.26-19.46c13.86-0.39 27.86-0.61 41.74-0.64v17.03c-4.56 2.61-8.79 5.07-12.87 7.46-24.83 0.46-49.94 1.99-74.64 4.55z"/>
						<path id="&lt;Path&gt;" class="s6" d="m433.1 90.46c-13.94-1.22-28.04-2.12-42.01-2.68l-0.41-48.41-3.92-0.05c-6.66-0.08-13.43-0.13-20.18-0.16l-0.02-14.6q44.6 0 89.21 0.01l0.4 16.46c-6.64-0.25-13.31-0.48-19.88-0.67l-4.2-0.13z"/>
						<path id="&lt;Compound Path&gt;" fill-rule="evenodd" class="s7" d="m558.21 110.62c-24.14-5.7-48.82-10.43-73.37-14.06-4.42-3.45-8.97-6.91-13.57-10.31l-1.34-53.81c4.21-2.66 8.35-5.34 12.35-7.97h72.63c4.44 3.37 8.86 6.83 13.15 10.31l1.76 69.15c-3.79 2.26-7.68 4.5-11.61 6.69zm-45.33-17.13l3.3 0.5q3.87 0.59 7.73 1.21l4.77 0.76-1.8-63.19c0 0-8.91-0.33-11.48-0.42l-4.26-0.14z"/>
						<path id="&lt;Compound Path&gt;" fill-rule="evenodd" class="s8" d="m685.74 151.16c-13.38-5.4-26.98-10.51-40.55-15.23-2.42-12.66-4.92-25.43-7.44-37.97l-0.51-2.55-5.35-1.2-4.94-1.1 0.58 36.88c-13.38-4.33-26.97-8.38-40.52-12.06l-2.27-93.33q42.4 0.02 84.79 0.04c4.45 4.71 8.88 9.6 13.19 14.57l0.08 53.82c-2.56 2.29-5.15 4.56-7.72 6.76l-1.91 1.63 0.64 2.43c4.06 15.36 8.07 31.24 11.93 47.31zm-59.07-75.77l3.36 0.49q3.82 0.56 7.64 1.13l4.66 0.71-0.55-39.02c0 0-8.83-0.55-11.39-0.71l-4.31-0.26z"/>
					</g>
				</g>
				<g id="&lt;Group&gt;">
					<g id="&lt;Group&gt;">
						<path id="&lt;Compound Path&gt;" fill-rule="evenodd" class="s9" d="m20.52 157.81q0-68.67 0-137.34 41.58 0 83.17 0c7.49 7.24 14.95 14.02 22.41 20.41q-0.72 30.43-1.45 60.85c-7.74 8.51-15.46 17.52-23.13 27.09-27.34 8.3-54.37 17.96-81 28.99zm47.92-40.42q3.79-1.07 7.58-2.1 0.54-36.59 1.07-73.17-3.84 0.23-7.69 0.48-0.48 37.39-0.96 74.79z"/>
						<path id="&lt;Compound Path&gt;" fill-rule="evenodd" class="s9" d="m148.42 116.01q-7.54-4.21-15.06-8.77 0.93-37.12 1.85-74.24 7.87-6.52 15.75-12.53 37.59 0 75.18 0 7.59 5.07 15.19 9.87-0.74 29.26-1.49 58.52-7.94 5.9-15.88 12.22c-25.33 3.86-50.54 8.83-75.54 14.93zm34.24-23.99q3.87-0.64 7.75-1.24 0.77-27.13 1.55-54.26-3.87 0.14-7.73 0.28-0.79 27.61-1.57 55.22z"/>
						<path id="&lt;Compound Path&gt;" class="s9" d="m264.32 95.89q-7.74-3.98-15.44-8.05 0.7-28.77 1.41-57.54 7.85-4.98 15.67-9.73 37.6-0.01 75.19-0.01 7.7 4.45 15.44 8.9 0 11.48 0 22.96-24.8 0-49.6 0.64 0.13-9.57 0.25-19.13-3.87 0.04-7.75 0.09-0.33 22.69-0.67 45.38 3.91-0.2 7.83-0.39 0.13-9.75 0.26-19.51 24.83-0.77 49.69-0.76 0 11.67 0 23.35-7.85 4.49-15.75 9.12c-25.55 0.44-51.09 2-76.53 4.68z"/>
						<path id="&lt;Compound Path&gt;" class="s9" d="m387.12 91.64q-0.2-24.16-0.4-48.32-12.07-0.14-24.13-0.17-0.02-11.29-0.04-22.59 48.56 0 97.12 0.01 0.3 12.31 0.6 24.62-12.05-0.47-24.1-0.84 0.51 25.25 1.01 50.5-24.99-2.32-50.06-3.21z"/>
						<path id="&lt;Compound Path&gt;" fill-rule="evenodd" class="s9" d="m483.2 100.36q-7.94-6.23-15.88-12.05-0.72-29.02-1.44-58.05 7.61-4.77 15.19-9.79 37.59 0 75.18 0 7.89 5.94 15.76 12.37 0.93 36.66 1.87 73.33-7.53 4.52-15.08 8.7c-25.02-5.96-50.25-10.79-75.6-14.51zm33.59-10.32q3.88 0.59 7.75 1.21-0.78-27.31-1.56-54.62-3.86-0.14-7.72-0.28 0.76 26.84 1.53 53.69z"/>
						<path id="&lt;Compound Path&gt;" fill-rule="evenodd" class="s9" d="m583.09 121.01q-1.23-50.2-2.45-100.41 45.31 0.02 90.62 0.04 7.76 8.16 15.46 17.08 0.04 28.54 0.08 57.09-4.57 4.13-9.12 8.02 6.99 26.41 13.76 54.98-24.66-10.21-49.75-18.86-3.9-20.52-7.86-40.2-1.4-0.32-2.8-0.63 0.29 18.71 0.58 37.42-24.1-7.98-48.52-14.53zm47.52-49.09q3.83 0.56 7.65 1.14-0.21-15.3-0.43-30.6-3.84-0.24-7.69-0.48 0.24 14.97 0.47 29.94z"/>
					</g>
					<g id="&lt;Group&gt;">
						<path id="&lt;Compound Path&gt;" fill-rule="evenodd" class="s9" d="m20.52 157.81q0-68.67 0-137.34 41.58 0 83.17 0c7.49 7.24 14.95 14.02 22.41 20.41q-0.72 30.43-1.45 60.85c-7.74 8.51-15.46 17.52-23.13 27.09-27.34 8.3-54.37 17.96-81 28.99zm47.92-40.42q3.79-1.07 7.58-2.1 0.54-36.59 1.07-73.17-3.84 0.23-7.69 0.48-0.48 37.39-0.96 74.79z"/>
						<path id="&lt;Compound Path&gt;" fill-rule="evenodd" class="s9" d="m148.42 116.01q-7.54-4.21-15.06-8.77 0.93-37.12 1.85-74.24 7.87-6.52 15.75-12.53 37.59 0 75.18 0 7.59 5.07 15.19 9.87-0.74 29.26-1.49 58.52-7.94 5.9-15.88 12.22c-25.33 3.86-50.54 8.83-75.54 14.93zm34.24-23.99q3.87-0.64 7.75-1.24 0.77-27.13 1.55-54.26-3.87 0.14-7.73 0.28-0.79 27.61-1.57 55.22z"/>
						<path id="&lt;Compound Path&gt;" class="s9" d="m264.32 95.89q-7.74-3.98-15.44-8.05 0.7-28.77 1.41-57.54 7.85-4.98 15.67-9.73 37.6-0.01 75.19-0.01 7.7 4.45 15.44 8.9 0 11.48 0 22.96-24.8 0-49.6 0.64 0.13-9.57 0.25-19.13-3.87 0.04-7.75 0.09-0.33 22.69-0.67 45.38 3.91-0.2 7.83-0.39 0.13-9.75 0.26-19.51 24.83-0.77 49.69-0.76 0 11.67 0 23.35-7.85 4.49-15.75 9.12c-25.55 0.44-51.09 2-76.53 4.68z"/>
						<path id="&lt;Compound Path&gt;" class="s9" d="m387.12 91.64q-0.2-24.16-0.4-48.32-12.07-0.14-24.13-0.17-0.02-11.29-0.04-22.59 48.56 0 97.12 0.01 0.3 12.31 0.6 24.62-12.05-0.47-24.1-0.84 0.51 25.25 1.01 50.5-24.99-2.32-50.06-3.21z"/>
						<path id="&lt;Compound Path&gt;" fill-rule="evenodd" class="s9" d="m483.2 100.36q-7.94-6.23-15.88-12.05-0.72-29.02-1.44-58.05 7.61-4.77 15.19-9.79 37.59 0 75.18 0 7.89 5.94 15.76 12.37 0.93 36.66 1.87 73.33-7.53 4.52-15.08 8.7c-25.02-5.96-50.25-10.79-75.6-14.51zm33.59-10.32q3.88 0.59 7.75 1.21-0.78-27.31-1.56-54.62-3.86-0.14-7.72-0.28 0.76 26.84 1.53 53.69z"/>
						<path id="&lt;Compound Path&gt;" fill-rule="evenodd" class="s9" d="m583.09 121.01q-1.23-50.2-2.45-100.41 45.31 0.02 90.62 0.04 7.76 8.16 15.46 17.08 0.04 28.54 0.08 57.09-4.57 4.13-9.12 8.02 6.99 26.41 13.76 54.98-24.66-10.21-49.75-18.86-3.9-20.52-7.86-40.2-1.4-0.32-2.8-0.63 0.29 18.71 0.58 37.42-24.1-7.98-48.52-14.53zm47.52-49.09q3.83 0.56 7.65 1.14-0.21-15.3-0.43-30.6-3.84-0.24-7.69-0.48 0.24 14.97 0.47 29.94z"/>
					</g>
					<g id="&lt;Group&gt;">
						<path id="&lt;Path&gt;" class="s9" d="m8.52 8.47h100.03l3.49 3.37c7.11 6.89 14.47 13.6 21.87 19.93l4.32 3.71-1.69 71.01-3.01 3.32c-7.71 8.47-15.33 17.39-22.64 26.52l-2.33 2.9-3.55 1.08c-26.97 8.18-53.85 17.8-79.9 28.59l-16.59 6.87z"/>
						<path id="&lt;Path&gt;" class="s9" d="m142.58 126.48c-5.24-2.92-10.44-5.94-15.45-8.99l-5.94-3.61 2.16-86.64 4.21-3.49c5.25-4.35 10.67-8.66 16.12-12.82l3.23-2.46h82.88l3.03 2.02c4.8 3.22 9.82 6.49 14.92 9.71l5.76 3.64-1.81 71.16-4.69 3.49c-5.28 3.93-10.52 7.96-15.57 11.98l-2.5 1.99-3.16 0.48c-24.93 3.8-50 8.75-74.51 14.72l-4.57 1.12z"/>
						<path id="&lt;Path&gt;" class="s9" d="m258.83 106.56c-5.63-2.9-10.72-5.55-15.56-8.11l-6.56-3.48 1.74-71.37 5.4-3.43c5.12-3.25 10.31-6.47 15.89-9.86l2.87-1.74 81.76-0.01 2.79 1.61q7.68 4.45 15.41 8.89l6.02 3.46 0.01 66.53-6.04 3.45c-5.62 3.22-10.73 6.18-15.62 9.06l-2.72 1.6-3.16 0.05c-25.11 0.43-50.51 1.99-75.49 4.61l-3.56 0.38z"/>
						<path id="&lt;Path&gt;" class="s9" d="m436.07 106.8c-16.35-1.52-32.96-2.59-49.37-3.17l-11.48-0.41-0.4-48.01q-6.14-0.04-12.26-0.06l-11.95-0.03-0.08-46.52 12.02-0.04c32.38 0 108.84 0.01 108.84 0.01l1.18 49.11-12.77-0.5q-5.68-0.22-11.38-0.42l1.03 51.28z"/>
						<path id="&lt;Path&gt;" class="s9" d="m556.02 126.54c-24.52-5.83-49.6-10.65-74.56-14.31l-3.15-0.46-2.51-1.97c-5.05-3.96-10.29-7.93-15.58-11.82l-4.75-3.48-1.76-70.77 5.79-3.63c5.12-3.21 10.14-6.45 14.94-9.63l3.02-2h82.81l3.21 2.42c5.46 4.12 10.89 8.38 16.13 12.66l4.26 3.48 2.18 85.81-5.98 3.61c-5.01 3.01-10.21 6.01-15.46 8.91l-4.06 2.26z"/>
						<path id="&lt;Path&gt;" class="s9" d="m686.85 168.9c-16.11-6.67-32.62-12.93-49.07-18.61l-4.93-1.7-5.01-1.66c-15.74-5.21-31.85-10.03-47.86-14.33l-8.67-2.33-2.97-121.67 108.07 0.04 3.54 3.73c5.36 5.63 10.69 11.52 15.86 17.51l2.9 3.37 0.09 66.88-3.95 3.58q-1.83 1.65-3.67 3.28c4.08 15.66 8.08 31.78 11.94 48.05l5.4 22.83z"/>
					</g>
					<g id="&lt;Group&gt;">
						<path id="&lt;Compound Path&gt;" fill-rule="evenodd" class="s9" d="m20.52 157.81q0-68.67 0-137.34 41.58 0 83.17 0c7.49 7.24 14.95 14.02 22.41 20.41q-0.72 30.43-1.45 60.85c-7.74 8.51-15.46 17.52-23.13 27.09-27.34 8.3-54.37 17.96-81 28.99zm47.92-40.42q3.79-1.07 7.58-2.1 0.54-36.59 1.07-73.17-3.84 0.23-7.69 0.48-0.48 37.39-0.96 74.79z"/>
						<path id="&lt;Compound Path&gt;" fill-rule="evenodd" class="s9" d="m148.42 116.01q-7.54-4.21-15.06-8.77 0.93-37.12 1.85-74.24 7.87-6.52 15.75-12.53 37.59 0 75.18 0 7.59 5.07 15.19 9.87-0.74 29.26-1.49 58.52-7.94 5.9-15.88 12.22c-25.33 3.86-50.54 8.83-75.54 14.93zm34.24-23.99q3.87-0.64 7.75-1.24 0.77-27.13 1.55-54.26-3.87 0.14-7.73 0.28-0.79 27.61-1.57 55.22z"/>
						<path id="&lt;Compound Path&gt;" class="s9" d="m264.32 95.89q-7.74-3.98-15.44-8.05 0.7-28.77 1.41-57.54 7.85-4.98 15.67-9.73 37.6-0.01 75.19-0.01 7.7 4.45 15.44 8.9 0 11.48 0 22.96-24.8 0-49.6 0.64 0.13-9.57 0.25-19.13-3.87 0.04-7.75 0.09-0.33 22.69-0.67 45.38 3.91-0.2 7.83-0.39 0.13-9.75 0.26-19.51 24.83-0.77 49.69-0.76 0 11.67 0 23.35-7.85 4.49-15.75 9.12c-25.55 0.44-51.09 2-76.53 4.68z"/>
						<path id="&lt;Compound Path&gt;" class="s9" d="m387.12 91.64q-0.2-24.16-0.4-48.32-12.07-0.14-24.13-0.17-0.02-11.29-0.04-22.59 48.56 0 97.12 0.01 0.3 12.31 0.6 24.62-12.05-0.47-24.1-0.84 0.51 25.25 1.01 50.5-24.99-2.32-50.06-3.21z"/>
						<path id="&lt;Compound Path&gt;" fill-rule="evenodd" class="s9" d="m483.2 100.36q-7.94-6.23-15.88-12.05-0.72-29.02-1.44-58.05 7.61-4.77 15.19-9.79 37.59 0 75.18 0 7.89 5.94 15.76 12.37 0.93 36.66 1.87 73.33-7.53 4.52-15.08 8.7c-25.02-5.96-50.25-10.79-75.6-14.51zm33.59-10.32q3.88 0.59 7.75 1.21-0.78-27.31-1.56-54.62-3.86-0.14-7.72-0.28 0.76 26.84 1.53 53.69z"/>
						<path id="&lt;Compound Path&gt;" fill-rule="evenodd" class="s9" d="m583.09 121.01q-1.23-50.2-2.45-100.41 45.31 0.02 90.62 0.04 7.76 8.16 15.46 17.08 0.04 28.54 0.08 57.09-4.57 4.13-9.12 8.02 6.99 26.41 13.76 54.98-24.66-10.21-49.75-18.86-3.9-20.52-7.86-40.2-1.4-0.32-2.8-0.63 0.29 18.71 0.58 37.42-24.1-7.98-48.52-14.53zm47.52-49.09q3.83 0.56 7.65 1.14-0.21-15.3-0.43-30.6-3.84-0.24-7.69-0.48 0.24 14.97 0.47 29.94z"/>
					</g>
					<g id="&lt;Group&gt;">
						<path id="&lt;Compound Path&gt;" fill-rule="evenodd" class="s9" d="m24.52 24.47h77.56c6.52 6.27 13.23 12.38 19.97 18.21l-1.36 57.46c-7.32 8.09-14.55 16.56-21.51 25.22-25.17 7.67-50.25 16.57-74.66 26.49zm44.63 14.13l-3.7 0.24-1.08 83.85 5.15-1.45q3.78-1.06 7.55-2.09l2.91-0.8 1.18-80.49c0 0-9.44 0.58-12.01 0.74z"/>
						<path id="&lt;Compound Path&gt;" fill-rule="evenodd" class="s9" d="m149.01 111.75c-3.92-2.2-7.8-4.46-11.59-6.74l1.74-70.09c4.31-3.54 8.72-7.05 13.16-10.45h72.61c4 2.67 8.14 5.36 12.35 8.04l-1.39 54.31c-4.6 3.44-9.16 6.96-13.59 10.46-24.52 3.77-49.17 8.63-73.29 14.47zm31.33-78.8l-1.82 63.81 4.79-0.79q3.86-0.64 7.72-1.24l3.28-0.52 1.77-61.84z"/>
						<path id="&lt;Path&gt;" class="s9" d="m265.09 91.78c-4.33-2.22-8.33-4.3-12.15-6.32l1.29-52.93c4.15-2.62 8.38-5.24 12.86-7.96l72.98-0.01q6.25 3.61 12.52 7.21v16.66c-13.8 0.02-27.74 0.2-41.54 0.53l0.25-19.07c0 0-9.27 0.1-11.86 0.13l-3.89 0.05-0.8 53.56 4.28-0.23q3.9-0.21 7.81-0.39l3.76-0.17 0.26-19.46c13.86-0.39 27.86-0.61 41.74-0.64v17.03c-4.56 2.61-8.79 5.07-12.87 7.46-24.83 0.46-49.94 1.99-74.64 4.55z"/>
						<path id="&lt;Path&gt;" class="s9" d="m433.1 90.46c-13.94-1.22-28.04-2.12-42.01-2.68l-0.41-48.41-3.92-0.05c-6.66-0.08-13.43-0.13-20.18-0.16l-0.02-14.6q44.6 0 89.21 0.01l0.4 16.46c-6.64-0.25-13.31-0.48-19.88-0.67l-4.2-0.13z"/>
						<path id="&lt;Compound Path&gt;" fill-rule="evenodd" class="s9" d="m558.21 110.62c-24.14-5.7-48.82-10.43-73.37-14.06-4.42-3.45-8.97-6.91-13.57-10.31l-1.34-53.81c4.21-2.66 8.35-5.34 12.35-7.97h72.63c4.44 3.37 8.86 6.83 13.15 10.31l1.76 69.15c-3.79 2.26-7.68 4.5-11.61 6.69zm-45.33-17.13l3.3 0.5q3.87 0.59 7.73 1.21l4.77 0.76-1.8-63.19c0 0-8.91-0.33-11.48-0.42l-4.26-0.14z"/>
						<path id="&lt;Compound Path&gt;" fill-rule="evenodd" class="s9" d="m685.74 151.16c-13.38-5.4-26.98-10.51-40.55-15.23-2.42-12.66-4.92-25.43-7.44-37.97l-0.51-2.55-5.35-1.2-4.94-1.1 0.58 36.88c-13.38-4.33-26.97-8.38-40.52-12.06l-2.27-93.33q42.4 0.02 84.79 0.04c4.45 4.71 8.88 9.6 13.19 14.57l0.08 53.82c-2.56 2.29-5.15 4.56-7.72 6.76l-1.91 1.63 0.64 2.43c4.06 15.36 8.07 31.24 11.93 47.31zm-59.07-75.77l3.36 0.49q3.82 0.56 7.64 1.13l4.66 0.71-0.55-39.02c0 0-8.83-0.55-11.39-0.71l-4.31-0.26z"/>
					</g>
				</g>
			</g>
			<g id="&lt;Group&gt;">
				<g id="&lt;Group&gt;">
					<path id="&lt;Compound Path&gt;" fill-rule="evenodd" class="s0" d="m20.52 157.81q0-68.67 0-137.34 41.58 0 83.17 0c7.49 7.24 14.95 14.02 22.41 20.41q-0.72 30.43-1.45 60.85c-7.74 8.51-15.46 17.52-23.13 27.09-27.34 8.3-54.37 17.96-81 28.99zm47.92-40.42q3.79-1.07 7.58-2.1 0.54-36.59 1.07-73.17-3.84 0.23-7.69 0.48-0.48 37.39-0.96 74.79z"/>
					<path id="&lt;Compound Path&gt;" fill-rule="evenodd" class="s0" d="m148.42 116.01q-7.54-4.21-15.06-8.77 0.93-37.12 1.85-74.24 7.87-6.52 15.75-12.53 37.59 0 75.18 0 7.59 5.07 15.19 9.87-0.74 29.26-1.49 58.52-7.94 5.9-15.88 12.22c-25.33 3.86-50.54 8.83-75.54 14.93zm34.24-23.99q3.87-0.64 7.75-1.24 0.77-27.13 1.55-54.26-3.87 0.14-7.73 0.28-0.79 27.61-1.57 55.22z"/>
					<path id="&lt;Compound Path&gt;" class="s0" d="m264.32 95.89q-7.74-3.98-15.44-8.05 0.7-28.77 1.41-57.54 7.85-4.98 15.67-9.73 37.6-0.01 75.19-0.01 7.7 4.45 15.44 8.9 0 11.48 0 22.96-24.8 0-49.6 0.64 0.13-9.57 0.25-19.13-3.87 0.04-7.75 0.09-0.33 22.69-0.67 45.38 3.91-0.2 7.83-0.39 0.13-9.75 0.26-19.51 24.83-0.77 49.69-0.76 0 11.67 0 23.35-7.85 4.49-15.75 9.12c-25.55 0.44-51.09 2-76.53 4.68z"/>
					<path id="&lt;Compound Path&gt;" class="s0" d="m387.12 91.64q-0.2-24.16-0.4-48.32-12.07-0.14-24.13-0.17-0.02-11.29-0.04-22.59 48.56 0 97.12 0.01 0.3 12.31 0.6 24.62-12.05-0.47-24.1-0.84 0.51 25.25 1.01 50.5-24.99-2.32-50.06-3.21z"/>
					<path id="&lt;Compound Path&gt;" fill-rule="evenodd" class="s0" d="m483.2 100.36q-7.94-6.23-15.88-12.05-0.72-29.02-1.44-58.05 7.61-4.77 15.19-9.79 37.59 0 75.18 0 7.89 5.94 15.76 12.37 0.93 36.66 1.87 73.33-7.53 4.52-15.08 8.7c-25.02-5.96-50.25-10.79-75.6-14.51zm33.59-10.32q3.88 0.59 7.75 1.21-0.78-27.31-1.56-54.62-3.86-0.14-7.72-0.28 0.76 26.84 1.53 53.69z"/>
					<path id="&lt;Compound Path&gt;" fill-rule="evenodd" class="s0" d="m583.09 121.01q-1.23-50.2-2.45-100.41 45.31 0.02 90.62 0.04 7.76 8.16 15.46 17.08 0.04 28.54 0.08 57.09-4.57 4.13-9.12 8.02 6.99 26.41 13.76 54.98-24.66-10.21-49.75-18.86-3.9-20.52-7.86-40.2-1.4-0.32-2.8-0.63 0.29 18.71 0.58 37.42-24.1-7.98-48.52-14.53zm47.52-49.09q3.83 0.56 7.65 1.14-0.21-15.3-0.43-30.6-3.84-0.24-7.69-0.48 0.24 14.97 0.47 29.94z"/>
				</g>
				<g id="&lt;Group&gt;">
					<path id="&lt;Compound Path&gt;" fill-rule="evenodd" class="s1" d="m20.52 157.81q0-68.67 0-137.34 41.58 0 83.17 0c7.49 7.24 14.95 14.02 22.41 20.41q-0.72 30.43-1.45 60.85c-7.74 8.51-15.46 17.52-23.13 27.09-27.34 8.3-54.37 17.96-81 28.99zm47.92-40.42q3.79-1.07 7.58-2.1 0.54-36.59 1.07-73.17-3.84 0.23-7.69 0.48-0.48 37.39-0.96 74.79z"/>
					<path id="&lt;Compound Path&gt;" fill-rule="evenodd" class="s1" d="m148.42 116.01q-7.54-4.21-15.06-8.77 0.93-37.12 1.85-74.24 7.87-6.52 15.75-12.53 37.59 0 75.18 0 7.59 5.07 15.19 9.87-0.74 29.26-1.49 58.52-7.94 5.9-15.88 12.22c-25.33 3.86-50.54 8.83-75.54 14.93zm34.24-23.99q3.87-0.64 7.75-1.24 0.77-27.13 1.55-54.26-3.87 0.14-7.73 0.28-0.79 27.61-1.57 55.22z"/>
					<path id="&lt;Compound Path&gt;" class="s1" d="m264.32 95.89q-7.74-3.98-15.44-8.05 0.7-28.77 1.41-57.54 7.85-4.98 15.67-9.73 37.6-0.01 75.19-0.01 7.7 4.45 15.44 8.9 0 11.48 0 22.96-24.8 0-49.6 0.64 0.13-9.57 0.25-19.13-3.87 0.04-7.75 0.09-0.33 22.69-0.67 45.38 3.91-0.2 7.83-0.39 0.13-9.75 0.26-19.51 24.83-0.77 49.69-0.76 0 11.67 0 23.35-7.85 4.49-15.75 9.12c-25.55 0.44-51.09 2-76.53 4.68z"/>
					<path id="&lt;Compound Path&gt;" class="s1" d="m387.12 91.64q-0.2-24.16-0.4-48.32-12.07-0.14-24.13-0.17-0.02-11.29-0.04-22.59 48.56 0 97.12 0.01 0.3 12.31 0.6 24.62-12.05-0.47-24.1-0.84 0.51 25.25 1.01 50.5-24.99-2.32-50.06-3.21z"/>
					<path id="&lt;Compound Path&gt;" fill-rule="evenodd" class="s1" d="m483.2 100.36q-7.94-6.23-15.88-12.05-0.72-29.02-1.44-58.05 7.61-4.77 15.19-9.79 37.59 0 75.18 0 7.89 5.94 15.76 12.37 0.93 36.66 1.87 73.33-7.53 4.52-15.08 8.7c-25.02-5.96-50.25-10.79-75.6-14.51zm33.59-10.32q3.88 0.59 7.75 1.21-0.78-27.31-1.56-54.62-3.86-0.14-7.72-0.28 0.76 26.84 1.53 53.69z"/>
					<path id="&lt;Compound Path&gt;" fill-rule="evenodd" class="s1" d="m583.09 121.01q-1.23-50.2-2.45-100.41 45.31 0.02 90.62 0.04 7.76 8.16 15.46 17.08 0.04 28.54 0.08 57.09-4.57 4.13-9.12 8.02 6.99 26.41 13.76 54.98-24.66-10.21-49.75-18.86-3.9-20.52-7.86-40.2-1.4-0.32-2.8-0.63 0.29 18.71 0.58 37.42-24.1-7.98-48.52-14.53zm47.52-49.09q3.83 0.56 7.65 1.14-0.21-15.3-0.43-30.6-3.84-0.24-7.69-0.48 0.24 14.97 0.47 29.94z"/>
				</g>
				<g id="&lt;Group&gt;">
					<path id="&lt;Path&gt;" class="s2" d="m8.52 8.47h100.03l3.49 3.37c7.11 6.89 14.47 13.6 21.87 19.93l4.32 3.71-1.69 71.01-3.01 3.32c-7.71 8.47-15.33 17.39-22.64 26.52l-2.33 2.9-3.55 1.08c-26.97 8.18-53.85 17.8-79.9 28.59l-16.59 6.87z"/>
					<path id="&lt;Path&gt;" class="s2" d="m142.58 126.48c-5.24-2.92-10.44-5.94-15.45-8.99l-5.94-3.61 2.16-86.64 4.21-3.49c5.25-4.35 10.67-8.66 16.12-12.82l3.23-2.46h82.88l3.03 2.02c4.8 3.22 9.82 6.49 14.92 9.71l5.76 3.64-1.81 71.16-4.69 3.49c-5.28 3.93-10.52 7.96-15.57 11.98l-2.5 1.99-3.16 0.48c-24.93 3.8-50 8.75-74.51 14.72l-4.57 1.12z"/>
					<path id="&lt;Path&gt;" class="s2" d="m258.83 106.56c-5.63-2.9-10.72-5.55-15.56-8.11l-6.56-3.48 1.74-71.37 5.4-3.43c5.12-3.25 10.31-6.47 15.89-9.86l2.87-1.74 81.76-0.01 2.79 1.61q7.68 4.45 15.41 8.89l6.02 3.46 0.01 66.53-6.04 3.45c-5.62 3.22-10.73 6.18-15.62 9.06l-2.72 1.6-3.16 0.05c-25.11 0.43-50.51 1.99-75.49 4.61l-3.56 0.38z"/>
					<path id="&lt;Path&gt;" class="s2" d="m436.07 106.8c-16.35-1.52-32.96-2.59-49.37-3.17l-11.48-0.41-0.4-48.01q-6.14-0.04-12.26-0.06l-11.95-0.03-0.08-46.52 12.02-0.04c32.38 0 108.84 0.01 108.84 0.01l1.18 49.11-12.77-0.5q-5.68-0.22-11.38-0.42l1.03 51.28z"/>
					<path id="&lt;Path&gt;" class="s2" d="m556.02 126.54c-24.52-5.83-49.6-10.65-74.56-14.31l-3.15-0.46-2.51-1.97c-5.05-3.96-10.29-7.93-15.58-11.82l-4.75-3.48-1.76-70.77 5.79-3.63c5.12-3.21 10.14-6.45 14.94-9.63l3.02-2h82.81l3.21 2.42c5.46 4.12 10.89 8.38 16.13 12.66l4.26 3.48 2.18 85.81-5.98 3.61c-5.01 3.01-10.21 6.01-15.46 8.91l-4.06 2.26z"/>
					<path id="&lt;Path&gt;" class="s2" d="m686.85 168.9c-16.11-6.67-32.62-12.93-49.07-18.61l-4.93-1.7-5.01-1.66c-15.74-5.21-31.85-10.03-47.86-14.33l-8.67-2.33-2.97-121.67 108.07 0.04 3.54 3.73c5.36 5.63 10.69 11.52 15.86 17.51l2.9 3.37 0.09 66.88-3.95 3.58q-1.83 1.65-3.67 3.28c4.08 15.66 8.08 31.78 11.94 48.05l5.4 22.83z"/>
				</g>
				<g id="&lt;Group&gt;">
					<path id="&lt;Compound Path&gt;" fill-rule="evenodd" class="s1" d="m20.52 157.81q0-68.67 0-137.34 41.58 0 83.17 0c7.49 7.24 14.95 14.02 22.41 20.41q-0.72 30.43-1.45 60.85c-7.74 8.51-15.46 17.52-23.13 27.09-27.34 8.3-54.37 17.96-81 28.99zm47.92-40.42q3.79-1.07 7.58-2.1 0.54-36.59 1.07-73.17-3.84 0.23-7.69 0.48-0.48 37.39-0.96 74.79z"/>
					<path id="&lt;Compound Path&gt;" fill-rule="evenodd" class="s1" d="m148.42 116.01q-7.54-4.21-15.06-8.77 0.93-37.12 1.85-74.24 7.87-6.52 15.75-12.53 37.59 0 75.18 0 7.59 5.07 15.19 9.87-0.74 29.26-1.49 58.52-7.94 5.9-15.88 12.22c-25.33 3.86-50.54 8.83-75.54 14.93zm34.24-23.99q3.87-0.64 7.75-1.24 0.77-27.13 1.55-54.26-3.87 0.14-7.73 0.28-0.79 27.61-1.57 55.22z"/>
					<path id="&lt;Compound Path&gt;" class="s1" d="m264.32 95.89q-7.74-3.98-15.44-8.05 0.7-28.77 1.41-57.54 7.85-4.98 15.67-9.73 37.6-0.01 75.19-0.01 7.7 4.45 15.44 8.9 0 11.48 0 22.96-24.8 0-49.6 0.64 0.13-9.57 0.25-19.13-3.87 0.04-7.75 0.09-0.33 22.69-0.67 45.38 3.91-0.2 7.83-0.39 0.13-9.75 0.26-19.51 24.83-0.77 49.69-0.76 0 11.67 0 23.35-7.85 4.49-15.75 9.12c-25.55 0.44-51.09 2-76.53 4.68z"/>
					<path id="&lt;Compound Path&gt;" class="s1" d="m387.12 91.64q-0.2-24.16-0.4-48.32-12.07-0.14-24.13-0.17-0.02-11.29-0.04-22.59 48.56 0 97.12 0.01 0.3 12.31 0.6 24.62-12.05-0.47-24.1-0.84 0.51 25.25 1.01 50.5-24.99-2.32-50.06-3.21z"/>
					<path id="&lt;Compound Path&gt;" fill-rule="evenodd" class="s1" d="m483.2 100.36q-7.94-6.23-15.88-12.05-0.72-29.02-1.44-58.05 7.61-4.77 15.19-9.79 37.59 0 75.18 0 7.89 5.94 15.76 12.37 0.93 36.66 1.87 73.33-7.53 4.52-15.08 8.7c-25.02-5.96-50.25-10.79-75.6-14.51zm33.59-10.32q3.88 0.59 7.75 1.21-0.78-27.31-1.56-54.62-3.86-0.14-7.72-0.28 0.76 26.84 1.53 53.69z"/>
					<path id="&lt;Compound Path&gt;" fill-rule="evenodd" class="s1" d="m583.09 121.01q-1.23-50.2-2.45-100.41 45.31 0.02 90.62 0.04 7.76 8.16 15.46 17.08 0.04 28.54 0.08 57.09-4.57 4.13-9.12 8.02 6.99 26.41 13.76 54.98-24.66-10.21-49.75-18.86-3.9-20.52-7.86-40.2-1.4-0.32-2.8-0.63 0.29 18.71 0.58 37.42-24.1-7.98-48.52-14.53zm47.52-49.09q3.83 0.56 7.65 1.14-0.21-15.3-0.43-30.6-3.84-0.24-7.69-0.48 0.24 14.97 0.47 29.94z"/>
				</g>
				<g id="&lt;Group&gt;">
					<path id="&lt;Compound Path&gt;" fill-rule="evenodd" class="s10" d="m24.52 24.47h77.56c6.52 6.27 13.23 12.38 19.97 18.21l-1.36 57.46c-7.32 8.09-14.55 16.56-21.51 25.22-25.17 7.67-50.25 16.57-74.66 26.49zm44.63 14.13l-3.7 0.24-1.08 83.85 5.15-1.45q3.78-1.06 7.55-2.09l2.91-0.8 1.18-80.49c0 0-9.44 0.58-12.01 0.74z"/>
					<path id="&lt;Compound Path&gt;" fill-rule="evenodd" class="s11" d="m149.01 111.75c-3.92-2.2-7.8-4.46-11.59-6.74l1.74-70.09c4.31-3.54 8.72-7.05 13.16-10.45h72.61c4 2.67 8.14 5.36 12.35 8.04l-1.39 54.31c-4.6 3.44-9.16 6.96-13.59 10.46-24.52 3.77-49.17 8.63-73.29 14.47zm31.33-78.8l-1.82 63.81 4.79-0.79q3.86-0.64 7.72-1.24l3.28-0.52 1.77-61.84z"/>
					<path id="&lt;Path&gt;" class="s12" d="m265.09 91.78c-4.33-2.22-8.33-4.3-12.15-6.32l1.29-52.93c4.15-2.62 8.38-5.24 12.86-7.96l72.98-0.01q6.25 3.61 12.52 7.21v16.66c-13.8 0.02-27.74 0.2-41.54 0.53l0.25-19.07c0 0-9.27 0.1-11.86 0.13l-3.89 0.05-0.8 53.56 4.28-0.23q3.9-0.21 7.81-0.39l3.76-0.17 0.26-19.46c13.86-0.39 27.86-0.61 41.74-0.64v17.03c-4.56 2.61-8.79 5.07-12.87 7.46-24.83 0.46-49.94 1.99-74.64 4.55z"/>
					<path id="&lt;Path&gt;" class="s13" d="m433.1 90.46c-13.94-1.22-28.04-2.12-42.01-2.68l-0.41-48.41-3.92-0.05c-6.66-0.08-13.43-0.13-20.18-0.16l-0.02-14.6q44.6 0 89.21 0.01l0.4 16.46c-6.64-0.25-13.31-0.48-19.88-0.67l-4.2-0.13z"/>
					<path id="&lt;Compound Path&gt;" fill-rule="evenodd" class="s14" d="m558.21 110.62c-24.14-5.7-48.82-10.43-73.37-14.06-4.42-3.45-8.97-6.91-13.57-10.31l-1.34-53.81c4.21-2.66 8.35-5.34 12.35-7.97h72.63c4.44 3.37 8.86 6.83 13.15 10.31l1.76 69.15c-3.79 2.26-7.68 4.5-11.61 6.69zm-45.33-17.13l3.3 0.5q3.87 0.59 7.73 1.21l4.77 0.76-1.8-63.19c0 0-8.91-0.33-11.48-0.42l-4.26-0.14z"/>
					<path id="&lt;Compound Path&gt;" fill-rule="evenodd" class="s15" d="m685.74 151.16c-13.38-5.4-26.98-10.51-40.55-15.23-2.42-12.66-4.92-25.43-7.44-37.97l-0.51-2.55-5.35-1.2-4.94-1.1 0.58 36.88c-13.38-4.33-26.97-8.38-40.52-12.06l-2.27-93.33q42.4 0.02 84.79 0.04c4.45 4.71 8.88 9.6 13.19 14.57l0.08 53.82c-2.56 2.29-5.15 4.56-7.72 6.76l-1.91 1.63 0.64 2.43c4.06 15.36 8.07 31.24 11.93 47.31zm-59.07-75.77l3.36 0.49q3.82 0.56 7.64 1.13l4.66 0.71-0.55-39.02c0 0-8.83-0.55-11.39-0.71l-4.31-0.26z"/>
				</g>
			</g>
		</g>
	</g>
</svg>