<?xml version="1.0" encoding="UTF-8"?>
<svg id="Vrstva_2" data-name="Vrstva 2" xmlns="http://www.w3.org/2000/svg" viewBox="0 0 447.98 425.23">
  <defs>
    <style>
      .cls-1 {
        fill: #fff;
      }

      .cls-1, .cls-2, .cls-3, .cls-4, .cls-5, .cls-6, .cls-7, .cls-8, .cls-9, .cls-10, .cls-11, .cls-12 {
        fill-rule: evenodd;
      }

      .cls-2 {
        fill: #f9c;
      }

      .cls-3 {
        fill: green;
      }

      .cls-4 {
        fill: #f0f;
      }

      .cls-6 {
        fill: #ff0;
      }

      .cls-7 {
        fill: #c44785;
      }

      .cls-8 {
        fill: #333;
      }

      .cls-9 {
        fill: #3f0054;
      }

      .cls-10 {
        fill: #999;
      }

      .cls-11 {
        fill: lime;
      }

      .cls-12 {
        fill: #90c;
      }
    </style>
  </defs>
  <g id="Layer_1" data-name="Layer 1">
    <g>
      <path class="cls-11" d="M335.76,189.24c3.09-11.11,2.89-19.05,2.89-19.05,0,0,10.97,9.89,15.45,24.18,4.48,14.31,3.8,18.85,3.8,18.85,0,0,9.04-35.52,31.78-54.99,22.73-19.47,38.21-18.96,38.21-18.96,0,0-15.76,30.53-6.89,54.31,8.87,23.75,21.15,60.8,5.73,98.67-15.42,37.84-25.2,43.68-25.2,43.68,0,0,20.44-5.07,32.17-20.95,11.74-15.9,13.52-26.31,13.52-26.31,0,0,8.73,52.78-32.85,90.23-17.01,15.31-37.81,18.96-56.47,17.91-1.02.88-2.07,1.73-3.17,2.55-14.77,20.72-47.59,28.18-71.74,22.85-19.47,1.9-39.03,2.69-58.56,3h-.85c-19.53-.31-39.09-1.11-58.56-3-24.12,5.33-56.95-2.13-71.74-22.85-1.11-.82-2.15-1.67-3.17-2.55-18.65,1.05-39.43-2.61-56.44-17.91C-7.97,341.46.76,288.68.76,288.68c0,0,1.79,10.4,13.52,26.31,11.74,15.87,32.17,20.95,32.17,20.95,0,0-9.78-5.84-25.2-43.68-15.42-37.87-3.15-74.92,5.73-98.67,8.87-23.78-6.89-54.31-6.89-54.31,0,0,15.48-.51,38.21,18.96,22.73,19.47,31.78,54.99,31.78,54.99,0,0-.68-4.54,3.8-18.85,4.48-14.29,15.45-24.18,15.45-24.18,0,0-.2,7.94,2.89,19.05.23-4.14.71-8.25,1.47-12.3,1.3-6.83,2.24-13.72,2.64-20.64-6.21-13.21-12.56-31.66-10.94-48.87,2.83-30.22,21.71-37.3,26.45-56.21,4.71-18.88-9.44-39.17-9.44-39.17,0,0,25.97,8.02,30.22,27.38,1.62,7.29,1.5,16.98.77,26.19,1.39-1.59,2.75-3.09,4.05-4.48,3.49-8.19,7.14-18.11,9.35-27.86,5.19-22.9-1.64-33.28-1.64-33.28,0,0,19.36,12.98,20.3,31.86.14,2.58.03,5.19-.26,7.8,5.58-3.37,11.25-6.6,16.89-10.06,6.18-3.8,11.59-5.81,18.51-7.77l3.4-.96,3.4.96c6.92,1.96,12.33,3.97,18.51,7.77,5.64,3.46,11.31,6.69,16.89,10.06-.28-2.61-.4-5.22-.26-7.8.94-18.88,20.32-31.86,20.32-31.86,0,0-6.86,10.37-1.67,33.28,2.21,9.75,5.9,19.67,9.35,27.86,1.3,1.39,2.66,2.89,4.05,4.48-.74-9.21-.82-18.91.77-26.19,4.25-19.36,30.25-27.38,30.25-27.38,0,0-14.17,20.3-9.47,39.17,4.73,18.91,23.61,25.99,26.45,56.21,1.62,17.21-4.73,35.66-10.91,48.87.37,6.92,1.3,13.8,2.61,20.64.77,4.05,1.25,8.16,1.47,12.3h0ZM358.01,154.8s9.61-16.19,9.01-46.18c-.62-30.02-14.4-46.2-14.4-46.2,0,0,37.79,25.8,37.19,56.38-.6,30.61-31.8,36-31.8,36h0ZM89.97,154.8s-9.61-16.19-8.99-46.18c.6-30.02,14.4-46.2,14.4-46.2,0,0-37.81,25.8-37.22,56.38.6,30.61,31.8,36,31.8,36h0ZM68.09,260.56s-5.67-17.43-4.59-34.33c1.08-16.89-2.98-29.06-6.8-36-3.86-6.92-8.79-9.98-8.79-9.98,0,0,3.8,17.29.37,34.78-3.4,17.46,9.78,39.4,19.81,45.52h0ZM379.9,260.56s5.67-17.43,4.59-34.33c-1.08-16.89,2.98-29.06,6.83-36,3.83-6.92,8.76-9.98,8.76-9.98,0,0-3.8,17.29-.37,34.78,3.4,17.46-9.78,39.4-19.81,45.52h0Z"/>
      <path class="cls-5" d="M318.13,222.6c18.77,10.74,41.19,27.38,45.35,45.24,9.35,40.28,21.37,94.62-17.86,122.83-.17.26-.31.48-.48.71-11.59,17.38-41.36,23.47-61.31,18.28-19.73,2.01-39.83,2.83-59.61,3.15h-.45c-19.79-.31-39.88-1.13-59.58-3.15-19.98,5.19-49.75-.91-61.34-18.28-.17-.23-.31-.45-.48-.71-39.23-28.2-27.21-82.54-17.86-122.83,4.17-17.86,26.62-34.5,45.35-45.24-.31-.88-.62-1.7-.91-2.52-4.59-13.15-5.64-27.16-3.03-40.85,1.5-8.02,2.55-15.99,2.89-24.15.26-5.87.09-11.74.4-17.57.14-2.92.43-5.84.88-8.76,2.66-17.15,27.72-51.36,40.65-63.38,11.2-10.37,24.94-17.26,37.84-25.17,5.44-3.34,9.47-4.73,15.42-6.43,5.95,1.7,9.98,3.09,15.42,6.43,12.9,7.91,26.65,14.8,37.84,25.17,12.93,12.02,38.01,46.23,40.68,63.38.43,2.92.71,5.84.85,8.76.31,5.84.14,11.71.4,17.57.34,8.16,1.39,16.13,2.89,24.15,2.61,13.69,1.56,27.69-3.03,40.85-.28.82-.6,1.64-.91,2.52h0Z"/>
      <path class="cls-3" d="M223.99,235.73v-1.45c3.09,0,5.64-3.69,6.26-8.62h0c-.26,5.16-1.81,9.47-6.26,10.06h0Z"/>
      <path class="cls-10" d="M225.58,242.87c3.57-.54,6.75-2.92,9.1-6.46,2.55-3.88,4.14-9.18,4.14-15.02,0-5.39-1.36-10.35-3.57-14.12,4.73,3.23,9.41,7.94,9.41,7.94,0,0-1.45-4.68-7.48-9.55-3.74-3-7.29-4.51-9.47-5.19-.68-.26-1.39-.45-2.13-.57h0v-32.54c1.36.2,2.83.62,4.05,1.56,3.37,2.55,24.35,21.15,33,28.86-.48.51-.99,1.05-1.47,1.64-.17.2-.34.4-.51.62l-15.79-9.95,13.18,13.32c-2.52,3.51-5.19,7.82-7.68,12.56h0c-3.57,6.75-6.21,13.24-7.6,18.26-.85,3.03-1.19,5.73-1.05,7.97-2.69,1.93-9.61,6.66-16.13,8.36v-7.68ZM222.4,242.87c-3.57-.54-6.75-2.92-9.1-6.46-2.55-3.88-4.14-9.18-4.14-15.02,0-5.39,1.36-10.35,3.57-14.12-4.73,3.23-9.41,7.94-9.41,7.94,0,0,1.45-4.68,7.48-9.55,3.74-3,7.29-4.51,9.47-5.19.68-.26,1.39-.45,2.13-.57h0v-32.54c-1.36.2-2.83.62-4.05,1.56-3.37,2.55-24.35,21.15-33,28.86.48.51.99,1.05,1.47,1.64.17.2.34.4.54.62l15.76-9.95-13.18,13.32c2.52,3.51,5.19,7.82,7.68,12.56h.03c3.54,6.75,6.18,13.24,7.57,18.26.85,3.03,1.19,5.73,1.05,7.97,2.69,1.93,9.61,6.66,16.13,8.36v-7.68ZM169.03,388.66c1.9-4.65,1.76-8.16,1.33-10.23-7.48,3.8-19.13,6.86-32.37.23-3.94-1.96-7.26-4.2-10.06-6.58h0c3.8,6.94,11.79,11.82,11.79,11.82,0,0-7.85-2.66-14.88-10.15-7.03-7.51-9.38-18.17-9.38-18.17-1.81,3.09-4.05,8.79-3.4,17.52,1.13,15.02,13.12,21,26.39,23.22-16.78-6.55-19.67-17.91-19.67-17.91,0,0,9.78,12.42,25.74,14.88,6.8,1.08,21.09,3.8,24.52-4.62h0ZM193.46,218.18c-6.8-12.9-14.63-22.14-17.46-20.64l-3.86,2.01c1.47,1.02,3.09,2.55,4.79,4.56,3.43,4.03,7.37,10.01,11.06,16.95h0c3.66,6.94,6.38,13.55,7.77,18.68.71,2.52,1.08,4.73,1.08,6.52l3.85-2.04h0c2.83-1.5-.4-13.15-7.23-26.05h0ZM168.97,201.23l-2.04,1.11c1.47.99,3.09,2.55,4.79,4.54,3.4,4.05,7.37,10.01,11.03,16.95h0c3.68,6.94,6.38,13.58,7.8,18.68.71,2.52,1.08,4.73,1.08,6.52l2.01-1.05c.6-.65.23-3.4-.88-7.4-1.36-4.9-4-11.31-7.54-18.06h-.03c-3.54-6.72-7.37-12.5-10.66-16.38-2.61-3.09-4.65-4.93-5.56-4.9h0ZM163.75,204.01l-6.26,3.32c2.83-1.5,10.66,7.74,17.46,20.64,6.83,12.9,10.03,24.58,7.2,26.08l6.26-3.32c.6-.65.2-3.4-.91-7.37-1.33-4.9-3.97-11.31-7.54-18.06h0c-3.54-6.75-7.37-12.5-10.66-16.38-2.64-3.12-4.65-4.96-5.56-4.9h0ZM156.58,208.74c-.85,3.74,2.35,13.78,8.11,24.66,5.53,10.43,11.71,18.48,15.36,20.35.37-3.63-.71-10.12-2.07-13.49-1.28-3.15-1.62-3.4-1.62-3.4,0,0,2.15,4.73.74,6.12-1.7,1.64-8.16-10.2-8.84-11.48-2.18-4.11-3.77-8.02-4.65-11.08h0c-.09-.34-.77-2.98.26-2.86,1.11.14,3.46,3,3.46,3-2.64-4.14-6.69-9.07-10.74-11.82h0ZM278.95,388.66c-1.9-4.65-1.76-8.16-1.33-10.23,7.48,3.8,19.13,6.86,32.37.23,3.94-1.96,7.26-4.2,10.06-6.58h0c-3.8,6.94-11.79,11.82-11.79,11.82,0,0,7.85-2.66,14.88-10.15,7.03-7.51,9.38-18.17,9.38-18.17,1.81,3.09,4.08,8.79,3.4,17.52-1.13,15.02-13.12,21-26.39,23.22,16.78-6.55,19.67-17.91,19.67-17.91,0,0-9.78,12.42-25.74,14.88-6.8,1.08-21.09,3.8-24.52-4.62h0ZM254.52,218.18c6.8-12.9,14.63-22.14,17.46-20.64l3.86,2.01c-1.47,1.02-3.09,2.55-4.79,4.56-3.43,4.03-7.37,10.01-11.03,16.95h-.03c-3.66,6.94-6.35,13.55-7.77,18.68-.71,2.52-1.08,4.73-1.08,6.52l-3.86-2.04h0c-2.83-1.5.4-13.15,7.23-26.05h0ZM279.01,201.23l2.04,1.11c-1.47.99-3.09,2.55-4.76,4.54-3.43,4.05-7.4,10.01-11.06,16.95h0c-3.69,6.94-6.38,13.58-7.8,18.68-.71,2.52-1.05,4.73-1.08,6.52l-2.01-1.05c-.6-.65-.23-3.4.88-7.4,1.36-4.9,4-11.31,7.57-18.06h0c3.54-6.72,7.37-12.5,10.66-16.38,2.61-3.09,4.65-4.93,5.56-4.9h0ZM284.23,204.01l6.29,3.32c-2.83-1.5-10.66,7.74-17.49,20.64-6.83,12.9-10.03,24.58-7.2,26.08l-6.26-3.32c-.57-.65-.2-3.4.91-7.37,1.36-4.9,3.97-11.31,7.54-18.06h0c3.57-6.75,7.37-12.5,10.66-16.38,2.64-3.12,4.65-4.96,5.56-4.9h0ZM291.4,208.74c.85,3.74-2.35,13.78-8.11,24.66-5.53,10.43-11.68,18.48-15.36,20.35-.37-3.63.71-10.12,2.07-13.49,1.28-3.15,1.62-3.4,1.62-3.4,0,0-2.15,4.73-.74,6.12,1.7,1.64,8.16-10.2,8.84-11.48,2.18-4.11,3.8-8.02,4.65-11.08h0c.11-.34.77-2.98-.26-2.86-1.11.14-3.46,3-3.46,3,2.64-4.14,6.69-9.07,10.74-11.82h0Z"/>
      <path class="cls-2" d="M223.99,115.91c1.73-.94,3.66-1.56,5.64-1.81,2.66-.34,5.39,0,7.65,1.19l-.28.57c-1.76,3.37-3.6,6.18-3.74,6.18-.03,0-.28-.11-.68-.28-1.02-.43-2.07-.91-5.41-1.64-1.13-.26-2.21-.37-3.17-.43-.96.06-2.04.17-3.17.43-3.34.74-4.39,1.22-5.41,1.64-.4.17-.65.28-.68.28-.14,0-1.96-2.81-3.74-6.18l-.28-.57c2.27-1.19,4.99-1.53,7.68-1.19,1.96.26,3.88.88,5.61,1.81h0ZM223.99,295.77c-.91,1.33-1.67,2.75-2.35,4.2-2.01,4.28-3.03,8.99-3.15,13.61-.11,4.65.68,9.24,2.35,13.29.82,2.07,1.87,4,3.15,5.73,1.28-1.73,2.32-3.66,3.15-5.73,1.67-4.05,2.47-8.65,2.35-13.29-.11-4.62-1.13-9.33-3.15-13.61-.68-1.45-1.45-2.86-2.35-4.2h0ZM167.07,196.92l3.29-1.73c1.22-1.56,4.99-6.12,10.09-10.09.57-.43,1.02-.91,1.33-1.45-3.4,1.39-6.18,2.83-8.53,4.71-2.49,2.01-4.51,4.56-6.29,8.16l.11.4ZM182.49,181.7c0-.09,0-.17.03-.26.06-.79-.06-1.62-.34-2.44-.03-.06-.03-.11-.06-.17-4.42,2.01-7.85,3.88-10.6,6.41-2.24,2.07-4.03,4.62-5.5,8.08.09.34.2.71.31,1.05,1.67-3.06,3.6-5.36,5.92-7.23,2.81-2.24,6.12-3.83,10.23-5.44h0ZM181.44,177.42c-.17-.28-.37-.57-.57-.82-.4-.48-.82-.96-1.33-1.39-4.08,2.24-7.26,4.28-9.72,6.89-1.96,2.07-3.49,4.51-4.68,7.68.06.4.14.77.23,1.16,1.42-2.81,3.09-4.99,5.1-6.86,2.86-2.64,6.43-4.56,10.97-6.66h0ZM178.15,174.19c-.94-.57-1.96-.99-3.09-1.25-2.83,1.93-5.16,3.8-6.97,6.01-1.25,1.53-2.3,3.2-3.15,5.16-.11.88-.17,1.7-.17,2.52,1.08-2.18,2.38-4,3.88-5.61,2.49-2.61,5.58-4.65,9.5-6.83h0ZM172.71,172.66c-2.72.06-4.56,2.24-5.78,5.05l-.17.37.11-.11c1.62-1.96,3.54-3.63,5.84-5.3h0ZM223.99,108.94c-3.09.91-4.48,2.61-5.07,3.66,1.76.26,3.49.79,5.07,1.56,1.59-.77,3.32-1.3,5.07-1.56-.6-1.05-1.98-2.75-5.07-3.66h0ZM223.99,103.32c-1.11-.6-2.41-1.08-3.83-1.3-3.06-.51-5.22.88-6.24,1.76.68.51,1.33,1.13,1.9,1.87,1.11,1.42,1.93,3.2,2.41,5.22.99-1.28,2.75-2.78,5.75-3.54,3.03.77,4.76,2.27,5.75,3.54.48-2.01,1.3-3.8,2.44-5.22.54-.74,1.19-1.36,1.87-1.87-1.02-.88-3.17-2.27-6.24-1.76-1.42.23-2.72.71-3.83,1.3h0ZM223.99,94.22c-.57-.06-1.16-.06-1.73-.03-1.98.11-3.49.68-4.45,1.19l.17.09c3.6,1.84,4.54,4.48,4.79,5.61.43.14.82.31,1.22.48.4-.17.79-.34,1.22-.48.26-1.13,1.22-3.77,4.79-5.61l.17-.09c-.96-.51-2.47-1.08-4.45-1.19-.57-.03-1.16-.03-1.73.03h0ZM223.99,89.04c-2.47.11-5.44.45-8.82,1.16.91,1.39,1.33,2.95,1.5,4.03,1.11-.62,2.98-1.45,5.47-1.59.62-.06,1.25-.03,1.84,0,.6-.03,1.22-.06,1.84,0,2.49.14,4.37.96,5.47,1.59.17-1.08.6-2.64,1.5-4.03-3.34-.71-6.35-1.05-8.82-1.16h0ZM213.5,90.6c-2.35.6-4.88,1.39-7.51,2.44,2.01-.06,3.63.34,4.54,1.45,1.11-.23,2.75-.4,4.62,0-.17-1.08-.6-2.64-1.64-3.88h0ZM211.18,95.95c.54,2.32-.77,4.39-2.13,6.43.11-.03.23-.03.34-.03,1.11-.09,2.15.11,3.15.57,1.02-.96,3.8-3.12,7.88-2.47.2.03.37.06.57.11-.43-1.02-1.42-2.52-3.71-3.71-2.38-1.22-4.65-1.16-6.09-.91h0ZM207.72,104.37c-.57.94-.94,1.79-.79,2.41.28,1.28,1.56,4.11,3.06,7.09,2.1-1.08,4.51-1.53,6.92-1.47-.28-2.21-1.13-4.25-2.32-5.78-.71-.91-1.5-1.62-2.38-2.1h0c-.85-.45-1.76-.65-2.69-.6-.6.03-1.19.2-1.79.45h0ZM280.91,196.92l-3.29-1.73c-1.22-1.56-4.99-6.12-10.09-10.09-.57-.43-.99-.91-1.33-1.45,3.4,1.39,6.18,2.83,8.53,4.71,2.49,2.01,4.54,4.56,6.29,8.16l-.11.4ZM265.49,181.7c0-.09,0-.17-.03-.26-.06-.79.06-1.62.34-2.44.03-.06.03-.11.06-.17,4.42,2.01,7.85,3.88,10.6,6.41,2.24,2.07,4.03,4.62,5.5,8.08-.08.34-.2.71-.28,1.05-1.7-3.06-3.63-5.36-5.95-7.23-2.81-2.24-6.12-3.83-10.23-5.44h0ZM266.54,177.42c.17-.28.37-.57.57-.82.4-.48.82-.96,1.33-1.39,4.08,2.24,7.26,4.28,9.72,6.89,1.96,2.07,3.49,4.51,4.71,7.68-.09.4-.17.77-.26,1.16-1.42-2.81-3.09-4.99-5.1-6.86-2.86-2.64-6.43-4.56-10.97-6.66h0ZM269.83,174.19c.94-.57,1.96-.99,3.09-1.25,2.86,1.93,5.16,3.8,6.97,6.01,1.25,1.53,2.3,3.2,3.15,5.16.11.88.17,1.7.17,2.52-1.08-2.18-2.35-4-3.88-5.61-2.49-2.61-5.58-4.65-9.5-6.83h0ZM275.27,172.66c2.72.06,4.56,2.24,5.78,5.05l.17.37-.11-.11c-1.62-1.96-3.54-3.63-5.84-5.3h0ZM234.48,90.6c2.35.6,4.88,1.39,7.51,2.44-2.01-.06-3.63.34-4.54,1.45-1.11-.23-2.75-.4-4.62,0,.17-1.08.6-2.64,1.64-3.88h0ZM236.8,95.95c-.54,2.32.77,4.39,2.13,6.43-.11-.03-.23-.03-.34-.03-1.08-.09-2.15.11-3.12.57-1.05-.96-3.83-3.12-7.91-2.47-.17.03-.37.06-.57.11.43-1.02,1.42-2.52,3.71-3.71,2.38-1.22,4.65-1.16,6.09-.91h0ZM240.26,104.37c.57.94.94,1.79.79,2.41-.28,1.28-1.56,4.11-3.06,7.09-2.1-1.08-4.51-1.53-6.92-1.47.28-2.21,1.13-4.25,2.32-5.78.71-.91,1.5-1.62,2.38-2.1h0c.85-.45,1.76-.65,2.69-.6.6.03,1.19.2,1.79.45h0Z"/>
      <path class="cls-11" d="M271.3,192.73c-1.16.03-2.38.4-3.66,1.08-4.9-4.37-15.05-13.38-23.13-20.44,2.58,1.02,5.27,1.79,7.03,1.47,4.42-.82,13.44-7.4,13.44-7.4,0,0-10.83,4.99-13.44,4.93-2.61-.06-7.4-2.35-6.83-3.63.54-1.28,9.5,1.5,9.5,1.5l-6.6-3.29s4.42,1.39,9.44-.74c5.02-2.13,11.42-11.65,11.42-11.65,0,0-23.53,6.49-23.36,5.58.14-.88,7.65-7.57,11.31-8.84,3.63-1.28,16.04,1.93,16.04,1.93,0,0-11.14-6.8-17.23-4.14-6.09,2.66-18.34,11.59-18.88,10.12-.57-1.47,9.38-13.52,9.38-13.52,0,0-8.08,7.34-12.73,11.76-2.41,2.27-4.45,3.34-5.87,3.83-1.13-.2-2.18-.28-3.15-.31-.94.03-2.01.11-3.15.31-1.42-.48-3.46-1.56-5.84-3.83-4.68-4.42-12.76-11.76-12.76-11.76,0,0,9.95,12.05,9.41,13.52-.57,1.47-12.81-7.46-18.91-10.12-6.09-2.66-17.21,4.14-17.21,4.14,0,0,12.39-3.2,16.02-1.93,3.66,1.28,11.17,7.97,11.34,8.84.14.91-23.39-5.58-23.39-5.58,0,0,6.41,9.52,11.42,11.65,5.02,2.13,9.44.74,9.44.74l-6.6,3.29s8.96-2.78,9.52-1.5c.54,1.28-4.25,3.57-6.86,3.63-2.61.06-13.44-4.93-13.44-4.93,0,0,9.01,6.58,13.44,7.4,1.76.31,4.45-.45,7.03-1.47-8.05,7.06-18.23,16.07-23.13,20.44-1.25-.68-2.49-1.05-3.66-1.08,1.56-1.62,3.49-3.43,5.7-5.13,2.07-1.62,3.09-3.71,3.26-5.92.09-1.19-.08-2.44-.48-3.66-.4-1.16-.99-2.3-1.81-3.34-2.1-2.72-5.56-4.82-9.78-5.13-.26-.03-.48-.03-.71-.03-4.34,0-7.09,3-8.79,6.94-.54,1.25-.99,2.58-1.33,3.91-.51-2.24-.99-4.59-1.47-6.97.14-.85.31-1.67.54-2.47.65-2.13,1.67-3.8,2.72-5.81h0s6.75-7.17,8.7-15.14c1.96-7.97.08-19.67.08-19.67,0,0-.68,13.8-4.76,19.56.09-1.28.14-2.64.14-4.11.11-8.73-1.28-14.49-2.35-17.8,3.12-4.82,7.51-10.12,13.63-16.33-1.08,2.58-1.9,5.56-2.04,8.79-.48,10.71,1.59,19.08,1.59,19.08,0,0-.51-4.42,1.56-17.01,2.1-12.7,5.07-20.21,17.26-24.52,2.35-.85,4.79-1.5,6.77-1.73,4.85-.54,3.12,1.76,1.05,4.79-1.42,2.1-2.81,4.14-2.3,6.46.43,1.81,2.35,6.04,4.34,9.81,2.21,4.28,4.82,8.14,5.9,8.14.68,0,1.16-.2,1.96-.54.91-.4,2.44-1.05,5.44-1.73.91-.2,1.73-.31,2.49-.34.77.03,1.62.14,2.52.34,2.98.68,4.51,1.33,5.44,1.73.77.34,1.25.54,1.93.54,1.08,0,3.69-3.86,5.9-8.14,1.98-3.77,3.91-7.99,4.34-9.81.51-2.32-.88-4.37-2.3-6.46-2.07-3.03-3.8-5.33,1.05-4.79,1.98.23,4.42.88,6.77,1.73,12.19,4.31,15.17,11.82,17.26,24.52,2.07,12.59,1.59,17.01,1.59,17.01,0,0,2.04-8.36,1.56-19.08-.14-3.23-.96-6.21-2.04-8.79,6.12,6.21,10.52,11.51,13.66,16.33-1.11,3.32-2.49,9.07-2.38,17.8,0,1.47.06,2.83.14,4.11-4.08-5.75-4.76-19.56-4.76-19.56,0,0-1.87,11.71.08,19.67,1.96,7.97,8.7,15.14,8.7,15.14h0c1.05,2.01,2.07,3.68,2.72,5.81.23.79.4,1.62.54,2.47-.45,2.38-.96,4.73-1.47,6.97-.34-1.33-.79-2.66-1.33-3.91-1.7-3.94-4.45-6.94-8.79-6.94-.23,0-.45,0-.71.03-4.22.31-7.68,2.41-9.78,5.13-.82,1.05-1.42,2.18-1.81,3.34-.4,1.22-.57,2.47-.48,3.66.17,2.21,1.19,4.31,3.26,5.92,2.21,1.7,4.14,3.51,5.7,5.13h0ZM179.12,396.77c4.76.37,9.47.65,14.03.88-1.64-3.46-2.55-6.35-3.06-8.59-3.94,3.2-7.71,5.87-10.97,7.71h0ZM223.99,346.37l-.06.14c-.06.14-.08.28-.14.43-1.5,4.9-4.76,10.54-8.96,16.27.99,1.93,2.66,4.51,5.53,7.74,1.08,1.22,2.32,2.32,3.63,3.34,1.3-1.02,2.55-2.13,3.63-3.34,2.86-3.23,4.54-5.81,5.53-7.74-4.2-5.73-7.46-11.37-8.96-16.27-.06-.14-.08-.28-.11-.43l-.08-.14ZM221.61,398.64c.82.03,1.62.03,2.38.06.77-.03,1.56-.03,2.38-.06,3.29-2.78,6.38-5.92,9.04-9.35,3.4-4.37,6.12-9.16,7.63-14.2-2.78-2.98-5.41-6.07-7.85-9.16-1.13,1.98-2.78,4.37-5.22,7.09-1.73,1.96-3.8,3.66-5.98,5.16-2.18-1.5-4.25-3.2-5.98-5.16-2.44-2.72-4.08-5.1-5.22-7.09-2.41,3.09-5.07,6.18-7.85,9.16,1.5,5.05,4.22,9.84,7.63,14.2,2.66,3.43,5.75,6.58,9.04,9.35h0ZM196.72,397.84c7.46.34,14.37.57,20.07.71-2.38-2.27-4.65-4.73-6.69-7.34-3.26-4.17-5.92-8.73-7.63-13.55-3.17,3.26-6.43,6.32-9.67,9.1.34,2.35,1.3,6.07,3.91,11.08h0ZM170.64,372.42c.06-.03,16.19-12.13,22.71-12.13,2.61,0,9.47-2.92,15.51-6.75,4.42-2.78,8.16-5.92,8.93-8.45.2-.65.34-1.22.4-1.76.2-1.47-.06-2.49-.6-3.2-.6-.74-1.53-1.25-2.58-1.56-.57-.17-1.13-.28-1.7-.37-2.89-.4-21.74,2.92-22.93,3.69-3.97,2.49-5.67,4.2-5.67,4.2,0,0,3.09-5.84,6.35-7.54.43-.2.99-.43,1.67-.65,1.13-1.5,2.81-3.4,5.02-5.1,4.42-3.4,8.11-4.79,8.11-4.79,0,0-5.1,4.37-7.46,7.37-.34.45-.65.88-.94,1.25,3.37-.77,6.94-1.42,8.48-1.7,3.17-4.73,9.35-15.34,4.51-20.18-4.82-4.82-27.89,6.86-32.31,11.14-4.28,4.11-7.65,10.63-7.65,10.63,0,0,1.3-5.84,3.8-10.52h0s11.48-24.24,12.39-24.32c1.02-.09,7.4,4.62,6.21,4.34l-5.02-1.19s-1.56,2.81-2.66,5.41c-1.11,2.58-2.81,6.26-3.91,8.7,4-2.52,9.24-5.19,12.19-6.6,2.07-5.36,4.85-14.32,1.59-17.72-2.38-2.52-5.67-4.22-8.84-5.24-3.97-1.28-7.4-1.53-8.53-.94-5.1,2.66-22.48,20.49-25.09,23.87-5.44,7.09-6.04,10.03-6.04,10.03,0,0,.6-7.82,3.26-12.84,2.75-5.24,8.87-22.59,9.47-23.3.57-.65,1.84-.54,4.11.03,2.24.6,4.17,1.96,4.17,1.96,0,0-1.11-.48-3.8-.54-2.69-.09-3,.14-3,.14,0,0-.79,3.32-1.84,7.09-.48,1.76-1.39,4.22-2.24,6.41,4.62-4.88,10.35-10.43,13.55-13.52-.37-3.23-1.56-7.29-4.9-9.52-3.09-2.04-6.46-3.12-9.61-3.57-4.48-.62-8.45-.06-10.69.68-7.51,2.52-17.72,38.72-17.94,43.97-.45,9.44-2.18,23.7-2.18,23.7,0,0-1.5-22.39-1.22-27.52.28-5.13,1.81-9.16,3.8-15.17-.79-3.97-1.45-10.91-1.45-10.91,0,0,1.64,3.8,2.98,6.49,1.67-4.85,3.43-9.47,4.65-12.67-3.4-1.76-9.3-4.11-14.12-2.18-3.15,1.25-4.68,5.92-5.36,11.93-.79,6.86-.34,15.34.23,23.02,1.19,15.62,4.08,33.93,4.11,33.99,1.53,9.72,13.27,20.32,21.57,24.49,9.67,4.82,22.73,3.83,30.56-2.04h0ZM167.53,340.53s-7.2,8.84-10.54,13.75c-3.34,4.9-5.19,8.59-5.19,8.59,0,0,10.94-9.5,15.73-22.34h0ZM142.72,320.4s-5.92,4.73-8.5,4.73-6.04-3.6-6.04-3.6c0,0,2.3,5.47,6.04,6.12,3.71.65,8.5-7.26,8.5-7.26h0ZM168.74,324.34s-1.64,7.06-4.2,9.38c-2.52,2.3-9.33,3.77-9.33,3.77,0,0,8.28.43,11.17-1.96,2.89-2.35,2.35-11.2,2.35-11.2h0ZM194.6,357.14c-2.47,1.56-8.73-.74-8.73-.74,0,0,5.67.11,7.82-1.02,2.18-1.13,4.65-3.66,4.65-3.66-.94,3.09-.96,3.68-3.74,5.41h0ZM187.99,334.49s-2.78,4.85-5.13,6.18c-2.35,1.36-9.04,2.49-9.04,2.49,0,0,7.03.65,10.35-.77,3.29-1.42,3.83-7.91,3.83-7.91h0ZM144.54,328.68s-2.24,11.17-3.91,16.87c-1.64,5.7-3.34,9.47-3.34,9.47,0,0,.4-14.46,7.26-26.33h0ZM180.62,351.01s-5.33,3.57-7.94,5.64c-2.61,2.07-4.22,3.77-4.22,3.77,0,0,7.46-3.29,12.16-9.41h0ZM119.99,297.07c-.99,0-1.79.79-1.79,1.79s.79,1.76,1.79,1.76,1.76-.79,1.76-1.76-.79-1.79-1.76-1.79h0ZM203.41,350.45c-.91,0-1.67.74-1.67,1.64s.77,1.67,1.67,1.67,1.64-.74,1.64-1.67-.74-1.64-1.64-1.64h0ZM208.43,347.73c-.91,0-1.67.74-1.67,1.67s.77,1.64,1.67,1.64,1.64-.74,1.64-1.64-.74-1.67-1.64-1.67h0ZM194.85,328.85c-.85,0-1.53.68-1.53,1.53s.68,1.53,1.53,1.53,1.53-.68,1.53-1.53-.68-1.53-1.53-1.53h0ZM171.95,318.7c-.65,0-1.19.51-1.19,1.16s.54,1.19,1.19,1.19,1.16-.54,1.16-1.19-.51-1.16-1.16-1.16h0ZM174.07,311.73c-.94,0-1.67.74-1.67,1.64s.74,1.64,1.67,1.64,1.64-.74,1.64-1.64-.74-1.64-1.64-1.64h0ZM145.44,301.69c-.88,0-1.62.71-1.62,1.62s.74,1.62,1.62,1.62,1.64-.71,1.64-1.62-.74-1.62-1.64-1.62h0ZM142.86,307.11c-.85,0-1.5.68-1.5,1.5s.65,1.53,1.5,1.53,1.5-.68,1.5-1.53-.68-1.5-1.5-1.5h0ZM141.45,313.97c-.77,0-1.39.62-1.39,1.39s.62,1.39,1.39,1.39,1.39-.62,1.39-1.39-.62-1.39-1.39-1.39h0ZM223.99,234.28c-3.54,0-6.41-4.9-6.41-10.91s2.86-10.91,6.41-10.91,6.41,4.88,6.41,10.91-2.86,10.91-6.41,10.91h0ZM223.99,202.93c-3.09,0-5.95,1.98-8.05,5.16-2.24,3.37-3.63,8.08-3.63,13.29s1.39,9.92,3.63,13.29c2.1,3.17,4.96,5.16,8.05,5.16s5.95-1.98,8.05-5.16c2.24-3.37,3.63-8.08,3.63-13.29s-1.39-9.92-3.63-13.29c-2.1-3.17-4.96-5.16-8.05-5.16h0ZM216.2,147.54c-.71,0-1.25.57-1.25,1.25s.54,1.25,1.25,1.25,1.22-.57,1.22-1.25-.54-1.25-1.22-1.25h0ZM211.58,142.13c-.43,0-.77.34-.77.77s.34.77.77.77.77-.34.77-.77-.34-.77-.77-.77h0ZM199.05,136.43c-.77,0-1.45.28-1.93.79h0c-.48.48-.79,1.16-.79,1.9s.31,1.42.79,1.93h0c.51.48,1.16.79,1.93.79s1.42-.31,1.9-.79h0c.48-.51.79-1.16.79-1.93s-.31-1.42-.79-1.9c-.48-.51-1.16-.79-1.9-.79h0ZM181.1,139.78c-.82,0-1.59.34-2.13.88h0c-.54.57-.88,1.3-.88,2.13s.34,1.59.88,2.13h0c.54.54,1.3.88,2.13.88s1.59-.34,2.13-.88h0c.54-.54.88-1.3.88-2.13s-.34-1.59-.88-2.13-1.3-.88-2.13-.88h0ZM187.42,141.59c-.43,0-.79.37-.79.79s.37.77.79.77.77-.34.77-.77-.34-.79-.77-.79h0ZM193.35,138.59c-.43,0-.77.34-.77.77s.34.77.77.77.79-.34.79-.77-.37-.77-.79-.77h0ZM183.6,130.99c-.6,0-1.11.51-1.11,1.11s.51,1.11,1.11,1.11,1.11-.51,1.11-1.11-.51-1.11-1.11-1.11h0ZM190.6,127.02c-1.19,0-2.27.48-3.03,1.25-.79.79-1.28,1.84-1.28,3.03s.48,2.27,1.28,3.03c.77.79,1.84,1.28,3.03,1.28s2.24-.48,3.03-1.28,1.25-1.84,1.25-3.03-.48-2.24-1.25-3.03c-.79-.77-1.87-1.25-3.03-1.25h0ZM268.86,396.77c-4.73.37-9.47.65-14.03.88,1.64-3.46,2.55-6.35,3.06-8.59,3.94,3.2,7.71,5.87,10.97,7.71h0ZM251.26,397.84c-7.46.34-14.37.57-20.07.71,2.38-2.27,4.65-4.73,6.69-7.34,3.26-4.17,5.92-8.73,7.62-13.55,3.17,3.26,6.43,6.32,9.67,9.1-.34,2.35-1.3,6.07-3.91,11.08h0ZM277.34,372.42c-.06-.03-16.19-12.13-22.71-12.13-2.61,0-9.47-2.92-15.51-6.75-4.42-2.78-8.16-5.92-8.93-8.45-.2-.65-.34-1.22-.4-1.76-.2-1.47.06-2.49.6-3.2.6-.74,1.53-1.25,2.58-1.56.57-.17,1.13-.28,1.7-.37,2.92-.4,21.74,2.92,22.93,3.69,3.97,2.49,5.67,4.2,5.67,4.2,0,0-3.09-5.84-6.35-7.54-.43-.2-.99-.43-1.67-.65-1.13-1.5-2.81-3.4-5.02-5.1-4.42-3.4-8.11-4.79-8.11-4.79,0,0,5.1,4.37,7.46,7.37.34.45.65.88.94,1.25-3.37-.77-6.94-1.42-8.48-1.7-3.17-4.73-9.35-15.34-4.51-20.18,4.82-4.82,27.89,6.86,32.31,11.14,4.28,4.11,7.68,10.63,7.68,10.63,0,0-1.33-5.84-3.83-10.52h0s-11.48-24.24-12.39-24.32c-1.02-.09-7.4,4.62-6.21,4.34l5.02-1.19s1.56,2.81,2.66,5.41c1.11,2.58,2.81,6.26,3.91,8.7-3.97-2.52-9.24-5.19-12.19-6.6-2.07-5.36-4.85-14.32-1.59-17.72,2.41-2.52,5.67-4.22,8.84-5.24,3.97-1.28,7.4-1.53,8.53-.94,5.1,2.66,22.48,20.49,25.09,23.87,5.44,7.09,6.04,10.03,6.04,10.03,0,0-.6-7.82-3.23-12.84-2.78-5.24-8.9-22.59-9.5-23.3-.57-.65-1.84-.54-4.11.03-2.24.6-4.17,1.96-4.17,1.96,0,0,1.11-.48,3.8-.54,2.69-.09,3,.14,3,.14,0,0,.82,3.32,1.84,7.09.48,1.76,1.39,4.22,2.24,6.41-4.62-4.88-10.35-10.43-13.55-13.52.37-3.23,1.56-7.29,4.9-9.52,3.09-2.04,6.46-3.12,9.61-3.57,4.48-.62,8.45-.06,10.69.68,7.51,2.52,17.72,38.72,17.94,43.97.45,9.44,2.18,23.7,2.18,23.7,0,0,1.5-22.39,1.22-27.52-.28-5.13-1.81-9.16-3.8-15.17.79-3.97,1.45-10.91,1.45-10.91,0,0-1.64,3.8-2.98,6.49-1.67-4.85-3.43-9.47-4.62-12.67,3.37-1.76,9.27-4.11,14.09-2.18,3.15,1.25,4.68,5.92,5.36,11.93.79,6.86.34,15.34-.23,23.02-1.19,15.62-4.08,33.93-4.11,33.99-1.53,9.72-13.27,20.32-21.57,24.49-9.67,4.82-22.73,3.83-30.56-2.04h0ZM280.46,340.53s7.2,8.84,10.54,13.75c3.34,4.9,5.19,8.59,5.19,8.59,0,0-10.94-9.5-15.73-22.34h0ZM305.26,320.4s5.92,4.73,8.5,4.73,6.04-3.6,6.04-3.6c0,0-2.3,5.47-6.04,6.12-3.71.65-8.5-7.26-8.5-7.26h0ZM279.24,324.34s1.64,7.06,4.2,9.38c2.52,2.3,9.33,3.77,9.33,3.77,0,0-8.28.43-11.17-1.96-2.89-2.35-2.35-11.2-2.35-11.2h0ZM253.39,357.14c2.47,1.56,8.73-.74,8.73-.74,0,0-5.67.11-7.82-1.02-2.18-1.13-4.65-3.66-4.65-3.66.94,3.09.96,3.68,3.74,5.41h0ZM259.99,334.49s2.78,4.85,5.13,6.18c2.35,1.36,9.04,2.49,9.04,2.49,0,0-7.03.65-10.35-.77-3.29-1.42-3.83-7.91-3.83-7.91h0ZM303.45,328.68s2.24,11.17,3.91,16.87c1.64,5.7,3.34,9.47,3.34,9.47,0,0-.4-14.46-7.26-26.33h0ZM267.36,351.01s5.33,3.57,7.94,5.64c2.61,2.07,4.22,3.77,4.22,3.77,0,0-7.46-3.29-12.16-9.41h0ZM327.99,297.07c.99,0,1.79.79,1.79,1.79s-.79,1.76-1.79,1.76-1.76-.79-1.76-1.76.79-1.79,1.76-1.79h0ZM244.57,350.45c.94,0,1.67.74,1.67,1.64s-.74,1.67-1.67,1.67-1.64-.74-1.64-1.67.74-1.64,1.64-1.64h0ZM239.55,347.73c.91,0,1.67.74,1.67,1.67s-.77,1.64-1.67,1.64-1.64-.74-1.64-1.64.74-1.67,1.64-1.67h0ZM253.13,328.85c.85,0,1.53.68,1.53,1.53s-.68,1.53-1.53,1.53-1.53-.68-1.53-1.53.68-1.53,1.53-1.53h0ZM276.04,318.7c.65,0,1.19.51,1.19,1.16s-.54,1.19-1.19,1.19-1.16-.54-1.16-1.19.51-1.16,1.16-1.16h0ZM273.91,311.73c.94,0,1.67.74,1.67,1.64s-.74,1.64-1.67,1.64-1.64-.74-1.64-1.64.74-1.64,1.64-1.64h0ZM302.54,301.69c.88,0,1.62.71,1.62,1.62s-.74,1.62-1.62,1.62-1.64-.71-1.64-1.62.74-1.62,1.64-1.62h0ZM305.12,307.11c.85,0,1.5.68,1.5,1.5s-.65,1.53-1.5,1.53-1.5-.68-1.5-1.53.68-1.5,1.5-1.5h0ZM306.54,313.97c.77,0,1.39.62,1.39,1.39s-.62,1.39-1.39,1.39-1.39-.62-1.39-1.39.62-1.39,1.39-1.39h0ZM231.81,147.54c.68,0,1.22.57,1.22,1.25s-.54,1.25-1.22,1.25-1.25-.57-1.25-1.25.54-1.25,1.25-1.25h0ZM236.41,142.13c.43,0,.77.34.77.77s-.34.77-.77.77-.77-.34-.77-.77.34-.77.77-.77h0ZM248.94,136.43c.77,0,1.45.28,1.93.79h0c.48.48.79,1.16.79,1.9s-.31,1.42-.79,1.93h0c-.51.48-1.16.79-1.93.79s-1.42-.31-1.9-.79h0c-.48-.51-.79-1.16-.79-1.93s.31-1.42.79-1.9c.48-.51,1.16-.79,1.9-.79h0ZM266.88,139.78c.82,0,1.59.34,2.13.88h0c.54.57.88,1.3.88,2.13s-.34,1.59-.88,2.13h0c-.54.54-1.3.88-2.13.88s-1.59-.34-2.13-.88h0c-.54-.54-.88-1.3-.88-2.13s.34-1.59.88-2.13,1.3-.88,2.13-.88h0ZM260.56,141.59c.45,0,.79.37.79.79s-.34.77-.79.77c-.43,0-.77-.34-.77-.77s.34-.79.77-.79h0ZM254.63,138.59c.43,0,.77.34.77.77s-.34.77-.77.77-.77-.34-.77-.77.34-.77.77-.77h0ZM264.38,130.99c.6,0,1.11.51,1.11,1.11s-.51,1.11-1.11,1.11-1.11-.51-1.11-1.11.51-1.11,1.11-1.11h0ZM257.38,127.02c1.19,0,2.27.48,3.06,1.25.77.79,1.25,1.84,1.25,3.03s-.48,2.27-1.25,3.03c-.79.79-1.87,1.28-3.06,1.28s-2.24-.48-3.03-1.28c-.77-.77-1.25-1.84-1.25-3.03s.48-2.24,1.25-3.03c.79-.77,1.87-1.25,3.03-1.25h0Z"/>
      <path class="cls-12" d="M223.99,48.44c1.93.54,4.56,1.64,8.02,3.8,3.49,2.13,8.08,4.73,12.98,7.63-9.44-1.56-17.8-1.7-17.8-1.7,0,0,8.08,1.47,16.64,4.22,8.96,2.89,16.92,6.97,23.81,13.32,4.59,4.28,12.33,13.58,19.47,23.67-1.98-1.45-4.25-3-6.8-4.68-15.17-9.86-28.29-11.76-28.29-11.76,0,0,10.12,3.63,23.39,13.63,10.94,8.22,26.28,19.67,28.54,34.36,2.13,13.66-.94,23.58,4.25,50.94,3.8,20.04-2.78,35.77-6.58,42.75-1.36-.54-2.66-1.05-3.8-1.5,4.31-15.76,5.1-29.68,5.1-29.68,0,0-3.23,8.28-6.86,18.48.31-4.25-.74-7.37-3.37-8.76h0l-7.54-4c1.62-5.39,7.65-26.33,8.36-41.61.4-8.99-.06-16.44-3.8-24.72-3.34-7.46-9.3-15.45-19.64-25.82,13.49,8.82,24.24,21.57,24.24,21.57,0,0-6.26-12.27-21.26-24.32-11.91-9.55-33-19.19-49.07-19.9-16.07.71-37.16,10.35-49.07,19.9-15,12.05-21.26,24.32-21.26,24.32,0,0,10.74-12.76,24.24-21.57-10.32,10.37-16.3,18.37-19.64,25.82-3.71,8.28-4.2,15.73-3.8,24.72.71,15.28,6.75,36.23,8.36,41.61l-7.54,4h0c-2.64,1.39-3.69,4.51-3.37,8.76-3.63-10.2-6.86-18.48-6.86-18.48,0,0,.79,13.92,5.1,29.68-1.11.45-2.44.96-3.8,1.5-3.8-6.97-10.37-22.71-6.58-42.75,5.19-27.35,2.13-37.28,4.25-50.94,2.27-14.68,17.6-26.14,28.54-34.36,13.27-10.01,23.39-13.63,23.39-13.63,0,0-13.12,1.9-28.26,11.76-2.58,1.67-4.85,3.23-6.83,4.68,7.14-10.09,14.88-19.39,19.5-23.67,6.86-6.35,14.85-10.43,23.78-13.32,8.56-2.75,16.64-4.22,16.64-4.22,0,0-8.36.14-17.8,1.7,4.9-2.89,9.5-5.5,12.98-7.63,3.46-2.15,6.09-3.26,8.02-3.8h0ZM98.27,271.05c-7.63,32.77-19.13,79.4,7.68,104.34-.06-.62-.14-1.22-.2-1.84-.4-5.44.2-10.01,1.22-13.66-3.4-3.91-9.5-11.65-10.91-18.11-2.01-9.1-1.76-20.07-1.76-20.07,0,0,2.24,14.74,6.72,21.37,3,4.45,6.72,7.94,8.84,9.72.17-.31.34-.62.54-.91-1.93-3.88-5.67-12.05-7.14-18.62-2.01-8.99-1.16-28.09-1.16-28.09,0,0,2.24,21.49,5.3,27.16.94,1.76,2.01,3.8,3.06,5.81-.85-6.43-1.79-14.4-2.32-21.71-.6-7.97-1.05-16.78-.23-24.15.94-8.22,3.54-14.8,9.27-17.06,2.58-1.05,5.24-1.28,7.77-1.05-.79-4.39-4.25-12.1-4.79-12.59-.71-.57,3.32,2.27,7.8,7.34,2.38,2.69,3.83,5.36,4.68,7.26,1.19.51,2.3,1.08,3.23,1.59,1.3-3.15,3.63-7.2,7.2-8.39,2.92-.96,7.99-1.73,13.49-.94,4.03.57,8.31,1.93,12.25,4.54,4.05,2.69,5.64,6.35,6.09,9.84,2.44-1.19,7.82-1.16,13.21.57,4.05,1.3,8.28,3.52,11.48,6.89,4.11,4.28,2.98,11.23.82,17.15,2.86-1.08,6.04-1.53,9.18-.51,1.05-10.63,6.29-21.15,14.4-29,8.11,7.85,13.35,18.37,14.4,29,3.15-1.02,6.32-.57,9.18.51-2.15-5.92-3.26-12.87.82-17.15,3.23-3.37,7.46-5.58,11.48-6.89,5.39-1.73,10.77-1.76,13.21-.57.45-3.49,2.04-7.14,6.09-9.84,3.94-2.61,8.22-3.97,12.25-4.54,5.5-.79,10.57-.03,13.49.94,3.57,1.19,5.9,5.24,7.2,8.39.94-.51,2.04-1.08,3.23-1.59.85-1.9,2.3-4.56,4.68-7.26,4.51-5.07,8.5-7.91,7.8-7.34-.54.48-3.97,8.19-4.79,12.59,2.52-.23,5.19,0,7.77,1.05,5.73,2.27,8.33,8.84,9.27,17.06.82,7.37.37,16.19-.23,24.15-.54,7.31-1.47,15.28-2.32,21.71,1.05-2.01,2.13-4.05,3.06-5.81,3.06-5.67,5.33-27.16,5.33-27.16,0,0,.82,19.11-1.19,28.09-1.47,6.58-5.22,14.74-7.11,18.62.17.28.34.6.51.91,2.13-1.79,5.84-5.27,8.84-9.72,4.48-6.63,6.72-21.37,6.72-21.37,0,0,.26,10.97-1.76,20.07-1.42,6.46-7.51,14.2-10.91,18.11,1.02,3.66,1.62,8.22,1.22,13.66-.06.62-.11,1.22-.2,1.84,26.82-24.94,15.31-71.57,7.68-104.34-3.77-16.24-37.45-37.22-53.21-43.37-1.67,5.3-3.77,10.71-6.38,15.73-11.2,21.66-17.52,24.21-17.52,24.21,0,0,12.13-20.07,17.09-36.45-.71,1.45-1.45,2.92-2.24,4.42-3.57,6.75-7.43,12.59-10.8,16.55-7.65,12.08-29.62,23.47-29.62,23.47,0,0,6.21-4.34,13.46-12.5,1.36-1.53,2.61-3.09,3.77-4.62-.23-.09-.45-.17-.65-.28l-13.46-7.14c-1.45,3.03-3.49,6.6-6.26,10.06-6.69,8.36-16.72,14.09-16.72,14.09,0,0,4.9-4.93,12.19-14.37,3.06-3.97,5.22-8.28,6.69-11.93l-.94-.51h0c-.74-.37-1.33-.91-1.84-1.53-3.6,2.47-10.63,6.92-17.4,8.48-.62.14-1.25.23-1.87.28-.62-.06-1.25-.14-1.87-.28-6.77-1.56-13.8-6.01-17.4-8.48-.48.62-1.11,1.16-1.84,1.53h0l-.94.51c1.47,3.66,3.63,7.97,6.69,11.93,7.29,9.44,12.19,14.37,12.19,14.37,0,0-10.03-5.73-16.72-14.09-2.78-3.46-4.82-7.03-6.26-10.06l-13.46,7.14c-.2.11-.43.2-.62.28,1.13,1.53,2.38,3.09,3.74,4.62,7.29,8.16,13.46,12.5,13.46,12.5,0,0-21.97-11.4-29.62-23.47-3.37-3.97-7.23-9.81-10.8-16.55-.79-1.5-1.53-2.98-2.24-4.42,4.96,16.38,17.09,36.45,17.09,36.45,0,0-6.29-2.55-17.52-24.21-2.61-5.02-4.71-10.43-6.38-15.73-15.76,6.15-49.44,27.13-53.21,43.37h0ZM223.99,217.25c-2.21,0-4,3.37-4,7.54s1.79,7.54,4,7.54,4-3.4,4-7.54-1.79-7.54-4-7.54h0ZM208.06,361.3c-5.84,3.12-11.85,5.27-14.71,5.27-3.46,0-13.07,6.63-17.12,9.55.77,2.98,1.33,8.28-1.39,14.91-.17.43-.37.85-.57,1.25,15.02-7.99,26.08-19.93,33.79-30.98h0ZM239.95,361.3c5.81,3.12,11.82,5.27,14.68,5.27,3.46,0,13.07,6.63,17.12,9.55-.77,2.98-1.33,8.28,1.39,14.91.17.43.37.85.57,1.25-15.02-7.99-26.05-19.93-33.76-30.98h0Z"/>
      <path class="cls-3" d="M223.99,235.73v-1.45c-3.09,0-5.64-3.69-6.26-8.62h0c.26,5.16,1.81,9.47,6.26,10.06h0Z"/>
      <path class="cls-4" d="M219.68,58.2h.06-.06ZM223.99,48.44c1.93.54,4.56,1.64,8.02,3.8,3.49,2.13,8.08,4.73,12.98,7.63-.96-.14-1.9-.28-2.81-.43-2.32-1.33-7.09-4.05-8.93-4.96-2.49-1.22-5.1-2.66-6.07-2.69-.99-.03,3.54,2.81,2.58,3.88-.62.74-3.77.96-5.78,1.05-2.01-.09-5.16-.31-5.78-1.05-.96-1.08,3.57-3.91,2.58-3.88-.96.03-3.57,1.47-6.07,2.69-1.84.91-6.6,3.63-8.93,4.96-.91.14-1.84.28-2.81.43,4.9-2.89,9.5-5.5,12.98-7.63,3.46-2.15,6.09-3.26,8.02-3.8h0ZM228.3,58.2h-.06.06ZM349.71,271.05c5.41,23.22,12.76,53.43,7.03,77.92.14-.91,1.9-13.35.31-28.2-1.64-15.48-2.89-18.37-3.54-18.91-.65-.54-1.11,6.15-1.7,9.69s-.23,3.83-.71,3.66-1.05-16.41-3.32-27.16c-2.24-10.74-3.77-15.14-4.96-15.59-1.16-.48,1.42,13.46-.11,21.97-.57,3.09-1.42,3.46-2.27,2.66-.08-1.64-.2-3.26-.37-4.82-.82-7.09-2.86-12.93-7.06-15.9h-.03s-3.86-4.93-2.61-11.88c1.25-6.97,2.24-6.32,1.81-7.2-.4-.91-5.07-1.96-11.91,1.22-4.65,2.18-9.35,5.07-14.6,11.17-.26-.11-.51-.23-.77-.31-1.36-.45-3.23-.88-5.41-1.08,4.11-4.2,11.23-12.76,16.16-14.74,6.86-2.72,14.26,1.11,16.33,2.24,2.07,1.16,2.21,1.67,2.55,1.56.31-.14-1.16-6.21-16.75-17.21-8.7-6.12-14.34-9.3-17.6-10.91,16.78,7.6,46.03,26.73,49.52,41.81h0ZM223.99,265.01c.88-.23,1.96-.57,2.89-1.05,1.96-1.08.34,4.9-.91,5.67-.54.34-1.22.28-1.98.14-.77.14-1.45.2-1.98-.14-1.25-.77-2.86-6.75-.91-5.67.94.48,2.01.82,2.89,1.05h0ZM296.19,268.1c-1.53,0-3.12.11-4.76.34-1.98.28-4,.74-6.04,1.45,7.34-7.23,13.12-18.54,17.77-21.63,5.3-3.54,3.77-2.13-1.08,6.83-3.23,6.01-5.3,10.43-5.9,13.01h0ZM275.27,276.8c-1.28,1.9-1.93,3.97-2.18,6.01-2.44-1.19-7.82-1.16-13.21.57-4.03,1.3-8.25,3.52-11.48,6.89-4.08,4.28-2.98,11.23-.82,17.15-.62-.23-1.25-.43-1.9-.6-.31-2.86-1.05-8.02-2.64-13.46-2.35-8.14-6.94-13.8-6.72-15.14.23-1.33,5.56-4.17,8.31-7.29,2.78-3.15,2.98-3.91,3.54-3.32.6.6-3,6.21-5.58,9.04-2.61,2.83-4.08,5.24-1.36,5.24s13.04-3.49,16.3-5.44c3.23-1.93,4.42-3.6,4.96-1.93.51,1.64-2.66,6.32-1.79,6.55.68.17,7.43-.88,14.57-4.28h0ZM256.48,366.97c-.82.91-1.13,2.3.57,4.31,3.71,4.45,6.89,8.84,8.19,5.44,1.3-3.37-2.98-6.89-3.03-6.92-2.1-1.25-4.14-2.3-5.73-2.83h0ZM227.19,58.17s8.08,1.47,16.64,4.22c8.96,2.89,16.92,6.97,23.81,13.32,4.59,4.28,12.33,13.58,19.47,23.67-1.59-1.16-3.37-2.38-5.3-3.69-1.64-3-4.51-7.65-8.39-11.79-6.38-6.8-9.84-10.01-21.4-15.79-11.59-5.78-18.91-7.09-17.83-5.78,1.05,1.28,16.27,9.78,14.51,11.79-1.79,2.01-19.96,2.35-20.55,4.03-.6,1.64,23.98,4.73,37.5,11.74,2.95,1.81,6.24,4.03,9.75,6.69,10.94,8.22,26.28,19.67,28.54,34.36,2.13,13.66-.94,23.58,4.25,50.94,3.8,20.04-2.78,35.77-6.58,42.75,0,0,4.82-11.62,5.41-23.56s-.06-15.87-1.08-24.97c-.99-9.1-3.12-19.25-4.54-19.25s-1.13,11.93-1.3,16.67l-.17,4.71-1.36-6.26s-4.62,15.25-5.56,15.42c-.94.17,2.41-10.8,5.13-23.44,2.72-12.64,2.61-24.55,1.19-33.65-1.42-9.1-9.92-17.77-29.71-28.57h0c-12.25-8.67-31.04-16.72-45.67-17.35-14.63.62-33.42,8.67-45.67,17.35h0c-19.79,10.8-28.29,19.47-29.71,28.57-1.42,9.1-1.53,21,1.19,33.65,2.72,12.64,6.07,23.61,5.13,23.44-.94-.17-5.56-15.42-5.56-15.42l-1.36,6.26-.17-4.71c-.17-4.73.11-16.67-1.3-16.67s-3.54,10.15-4.54,19.25c-1.02,9.1-1.64,13.04-1.08,24.97.6,11.93,5.41,23.56,5.41,23.56-3.8-6.97-10.37-22.71-6.58-42.75,5.19-27.35,2.13-37.28,4.25-50.94,2.27-14.68,17.6-26.14,28.54-34.36,3.51-2.66,6.83-4.88,9.78-6.69,13.52-7,38.07-10.09,37.47-11.74-.6-1.67-18.77-2.01-20.55-4.03-1.76-2.01,13.46-10.52,14.54-11.79,1.05-1.3-6.26,0-17.83,5.78-11.59,5.78-15.05,8.99-21.43,15.79-3.88,4.14-6.75,8.79-8.36,11.79-1.96,1.3-3.74,2.52-5.33,3.69,7.14-10.09,14.88-19.39,19.5-23.67,6.86-6.35,14.85-10.43,23.78-13.32,8.56-2.75,16.64-4.22,16.64-4.22,1.5-.17,2.3-.23,2.38-.26h0l.82.09.82-.09h0c.09.03.88.09,2.38.26h0ZM98.27,271.05c-5.41,23.22-12.76,53.43-7.03,77.92-.14-.91-1.9-13.35-.31-28.2,1.64-15.48,2.89-18.37,3.54-18.91s1.11,6.15,1.7,9.69c.6,3.54.23,3.83.71,3.66.48-.17,1.08-16.41,3.32-27.16,2.24-10.74,3.77-15.14,4.96-15.59,1.16-.48-1.42,13.46.11,21.97.57,3.09,1.42,3.46,2.27,2.66.09-1.64.2-3.26.37-4.82.82-7.09,2.86-12.93,7.09-15.9h0s3.86-4.93,2.61-11.88c-1.25-6.97-2.24-6.32-1.81-7.2.4-.91,5.07-1.96,11.91,1.22,4.65,2.18,9.35,5.07,14.6,11.17.26-.11.51-.23.77-.31,1.36-.45,3.23-.88,5.41-1.08-4.11-4.2-11.2-12.76-16.16-14.74-6.86-2.72-14.26,1.11-16.33,2.24-2.07,1.16-2.21,1.67-2.55,1.56-.31-.14,1.16-6.21,16.75-17.21,8.7-6.12,14.34-9.3,17.6-10.91-16.78,7.6-46.03,26.73-49.52,41.81h0ZM151.82,268.1c1.5,0,3.09.11,4.73.34,1.98.28,4,.74,6.04,1.45-7.34-7.23-13.12-18.54-17.77-21.63-5.3-3.54-3.77-2.13,1.08,6.83,3.23,6.01,5.33,10.43,5.92,13.01h0ZM172.71,276.8c1.28,1.9,1.93,3.97,2.18,6.01,2.44-1.19,7.82-1.16,13.21.57,4.05,1.3,8.28,3.52,11.48,6.89,4.11,4.28,2.98,11.23.82,17.15.62-.23,1.25-.43,1.9-.6.31-2.86,1.05-8.02,2.64-13.46,2.35-8.14,6.97-13.8,6.72-15.14-.23-1.33-5.56-4.17-8.31-7.29-2.78-3.15-2.98-3.91-3.54-3.32-.6.6,3,6.21,5.58,9.04,2.61,2.83,4.08,5.24,1.36,5.24s-13.04-3.49-16.27-5.44c-3.26-1.93-4.45-3.6-4.96-1.93-.54,1.64,2.64,6.32,1.76,6.55-.68.17-7.43-.88-14.57-4.28h0ZM191.51,366.97c.82.91,1.13,2.3-.57,4.31-3.71,4.45-6.89,8.84-8.19,5.44-1.3-3.37,2.98-6.89,3.03-6.92,2.1-1.25,4.14-2.3,5.73-2.83h0Z"/>
      <path class="cls-9" d="M207.52,59.22c7.43-.96,13.27-1.05,13.27-1.05l2.38-.26s-3.74-.62-6.6-.88.57-3.2.57-3.2l-9.61,5.39ZM240.46,59.22c-7.43-.96-13.27-1.05-13.27-1.05l-2.38-.26s3.74-.62,6.6-.88-.57-3.2-.57-3.2l9.61,5.39ZM223.99,217.25c2.21,0,4,3.37,4,7.54,0,1.81-.37,3.51-.94,4.82.65-3.46,1.08-9.75-3.06-10.15-4.14.4-3.71,6.69-3.06,10.15-.57-1.3-.94-3-.94-4.82,0-4.17,1.79-7.54,4-7.54h0ZM242.02,306.34c-1.19,0-2.41.17-3.63.57-.99-10.01-5.7-19.9-12.98-27.58l-.03-.03h-.03l-.03-.06-.03-.03-.03-.03h-.03v-.03l-.03-.03-.03-.03-.03-.03h0l-.08-.09-.03-.03h0l-.03-.03-.03-.03-.11-.11v-.03h-.03l-.03-.03-.03-.03-.03-.03-.03-.03-.03-.03-.03-.03-.23-.26h-.03l-.03-.03-.03-.03h0v-.03h-.03l-.03-.03c-.11-.11-.2-.2-.31-.31-.11.11-.2.2-.31.31l-.03.03h-.03v.03h0l-.03.03-.03.03h-.03l-.23.26-.03.03-.03.03-.03.03-.03.03-.03.03-.03.03h0l-.03.03-.11.11-.03.03-.03.03h0l-.03.03-.06.09h-.03l-.03.03-.03.03v.03l-.03.03h-.03l-.03.03-.03.03-.03.06h-.03l-.03.03c-7.29,7.68-11.99,17.57-12.98,27.58-1.22-.4-2.44-.57-3.63-.57.96-7,2.92-15.87,6.83-22.14,1.59-2.55,3.2-4.71,4.73-6.52-2.07-.82-4.28-1.98-6.58-3.51-9.01-6.15-10.8-12.05-14.63-11.65-3.86.43,3.71,10.94,6.6,14.12,2.89,3.2,3,3.49,3,3.49,0,0-17.29-6.09-22.31-9.75-5.02-3.66.48,7.8.48,7.8,0,0-13.61-4.59-23.05-20.55-9.44-15.93-10.15-14.74-15-16.64-4.85-1.9-31.63,15.48-31.63,15.48,0,0,7.06-11.28,37.05-28.77,1.67,5.3,3.77,10.71,6.38,15.73,11.23,21.66,17.52,24.21,17.52,24.21,0,0-12.13-20.07-17.09-36.45.71,1.45,1.45,2.92,2.24,4.42,3.57,6.75,7.43,12.59,10.8,16.55,7.65,12.08,29.62,23.47,29.62,23.47,0,0-6.18-4.34-13.46-12.5-1.36-1.53-2.61-3.09-3.74-4.62.2-.09.43-.17.62-.28l13.46-7.14c1.45,3.03,3.49,6.6,6.26,10.06,5.7,7.11,13.8,12.3,16.1,13.69l.03.03h0l.03.03h.03l.03.03h.03l.03.03h.03v.03h.03l.03.03h.03v.03h.06v.03h.03l.03.03h.03v.03h.06v.03h.06v.03h.03l.03.03h.03v.03h0v-.03h-.03v-.03h-.03v-.03h-.03v-.03h-.03v-.03h-.03v-.03h-.03v-.03h-.03v-.03h-.03v-.03h0l-.03-.03h0l-.03-.03h0l-.03-.03h0l-.03-.03h0l-.03-.03h0l-.03-.03h0l-.03-.03-.03-.03h0l-.03-.03h0c-1.42-1.5-5.78-6.18-11.71-13.86-3.06-3.97-5.22-8.28-6.69-11.93l.94-.51h0c.74-.37,1.36-.91,1.84-1.53,3.6,2.47,10.63,6.92,17.4,8.48.62.14,1.25.23,1.87.28.62-.06,1.25-.14,1.87-.28,6.77-1.56,13.8-6.01,17.4-8.48.51.62,1.11,1.16,1.84,1.53h0l.94.51c-1.47,3.66-3.63,7.97-6.69,11.93-5.92,7.68-10.29,12.36-11.71,13.86h0l-.03.03h0l-.03.03-.03.03h0l-.03.03h0l-.03.03h0l-.03.03h0l-.03.03h0l-.03.03h0l-.03.03h0v.03h-.03v.03h-.03v.03h-.03v.03h-.03v.03h-.03v.03h-.03v.03h-.03v.03h-.03v.03h0v-.03h.06v-.03h.03l.03-.03h.03v-.03h.06v-.03h.03l.03-.03h.03l.03-.03h.03v-.03h.03l.03-.03h.03v-.03h.03l.03-.03h.03l.03-.03h.03l.03-.03h0l.03-.03c2.32-1.39,10.4-6.58,16.1-13.69,2.78-3.46,4.82-7.03,6.26-10.06l13.46,7.14c.2.11.43.2.65.28-1.16,1.53-2.41,3.09-3.77,4.62-7.26,8.16-13.46,12.5-13.46,12.5,0,0,21.97-11.4,29.62-23.47,3.37-3.97,7.23-9.81,10.8-16.55.79-1.5,1.53-2.98,2.24-4.42-4.96,16.38-17.09,36.45-17.09,36.45,0,0,6.32-2.55,17.52-24.21,2.61-5.02,4.71-10.43,6.38-15.73,29.99,17.49,37.05,28.77,37.05,28.77,0,0-26.79-17.38-31.63-15.48-4.85,1.9-5.56.71-15,16.64-9.44,15.96-23.02,20.55-23.02,20.55,0,0,5.47-11.45.45-7.8-5.02,3.66-22.31,9.75-22.31,9.75,0,0,.11-.28,3-3.49,2.89-3.17,10.46-13.69,6.6-14.12-3.83-.4-5.58,5.5-14.63,11.65-2.3,1.53-4.51,2.69-6.58,3.51,1.56,1.81,3.15,3.97,4.73,6.52,3.91,6.26,5.87,15.14,6.83,22.14h0ZM223.99,271.56c.54.4,1.11.85,1.7,1.33.2-.26.43-.51.65-.74,3.06-3.49,8.9-15.65,5.36-12.7-1.9,1.59-5.13,2.95-7.71,3.88-2.58-.94-5.81-2.3-7.71-3.88-3.54-2.95,2.3,9.21,5.36,12.7.23.23.45.48.65.74.62-.48,1.19-.94,1.7-1.33h0ZM301.63,224.62c-1.36-.54-2.66-1.05-3.8-1.5,4.31-15.76,5.1-29.68,5.1-29.68,0,0-3.23,8.28-6.86,18.48.31-4.25-.74-7.37-3.37-8.76h0l-.82-.43-3.29-1.76-3.43-1.81c1.62-5.39,7.65-26.33,8.36-41.61.4-8.99-.06-16.44-3.8-24.72-3.34-7.46-9.3-15.45-19.64-25.82,13.49,8.82,24.24,21.57,24.24,21.57,0,0-.62-1.19-1.93-3.23h0c2.38,3.46,9.47,12.13,4.25,37.39-5.19,25.29-10.4,35.63-9.13,36.65,2.18,1.73,5.53-6.69,6.04-7.91,3.91-9.33,4.73-12.42,4.73-12.42l-1.3,15.96s4.37-5.81,4.85-17.38c.48-11.57,0-16.41,0-16.41,0,0,4.25,21.03,4.25,33.08s-4.45,30.3-4.45,30.3h0ZM353.85,358.13c-2.64,6.43-6.46,12.27-11.82,17.26.08-.62.14-1.22.2-1.84.4-5.44-.2-10.01-1.22-13.66,3.4-3.91,9.5-11.65,10.91-18.11,2.01-9.1,1.76-20.07,1.76-20.07,0,0-2.24,14.74-6.72,21.37-3,4.45-6.72,7.94-8.84,9.72-.17-.31-.34-.62-.51-.91,1.9-3.88,5.64-12.05,7.11-18.62,2.01-8.99,1.19-28.09,1.19-28.09,0,0-2.27,21.49-5.33,27.16-.94,1.76-2.01,3.8-3.06,5.81.85-6.43,1.79-14.4,2.32-21.71.26-3.4.48-6.94.6-10.46h0s1.5,6.01,2.92,2.13c1.42-3.88,1.87-23.84,1.87-23.84,0,0,4.03,21.23,3.8,32.23-.26,10.97-2.3,17.01-.71,15.11,1.59-1.9,5.41-20.24,5.41-20.24,0,0,3.09,9.78,2.98,24.43-.11,13.86-2.61,21.57-2.86,22.34h0ZM328.33,274.45c-1.79-.4-3.57-.45-5.3-.28.82-4.39,4.25-12.1,4.79-12.59.71-.57-3.29,2.27-7.8,7.34-2.38,2.69-3.83,5.36-4.68,7.26-1.19.51-2.3,1.08-3.23,1.59-.03-.11-.08-.23-.14-.37,1.19-2.49,2.92-5.87,5.1-9.58,4.54-7.71,13.04-9.07,13.04-9.07,0,0-3.94,8.31-4.08,11.85-.09,2.95,1.67,3.68,2.3,3.86h0ZM280.63,94.93l-.31-.23c-15.17-9.86-28.29-11.76-28.29-11.76-9.13-2.72-15.68-3.66-15.68-3.66,0,0,15.59.71,21.37,1.79,8.5,1.56,8.82,1.05.28-5.7-6.97-5.56-10.86-8.14-10.86-8.14,0,0,15.36,6.38,24.21,15.82,4.68,5.02,7.6,9.1,9.27,11.88h0ZM233.35,329.75c.43.74.88,1.45,1.33,2.15-.25,0-.54.03-.79.09-.79.09-1.62.26-2.41.48.68-.91,1.3-1.81,1.87-2.72h0ZM253.22,366.43c-1.13.14-2.15.99.06,4.54,3.54,5.81,11.51,11.99,14.14,10.52,2.66-1.47.62-7.23-2.47-9.98,2.66,1.7,5.16,3.46,6.8,4.62-.77,2.98-1.33,8.28,1.39,14.91.17.43.37.85.57,1.25-15.02-7.99-26.05-19.93-33.76-30.98,4.96,2.66,10.09,4.62,13.27,5.13h0ZM146.35,224.62c1.36-.54,2.69-1.05,3.8-1.5-4.31-15.76-5.1-29.68-5.1-29.68,0,0,3.23,8.28,6.86,18.48-.31-4.25.74-7.37,3.37-8.76h0l.82-.43,3.29-1.76,3.43-1.81c-1.62-5.39-7.65-26.33-8.36-41.61-.4-8.99.08-16.44,3.8-24.72,3.34-7.46,9.33-15.45,19.64-25.82-13.49,8.82-24.24,21.57-24.24,21.57,0,0,.62-1.19,1.93-3.23h0c-2.38,3.46-9.47,12.13-4.25,37.39,5.19,25.29,10.4,35.63,9.13,36.65-2.18,1.73-5.53-6.69-6.04-7.91-3.91-9.33-4.73-12.42-4.73-12.42l1.3,15.96s-4.37-5.81-4.85-17.38c-.45-11.57,0-16.41,0-16.41,0,0-4.25,21.03-4.25,33.08s4.45,30.3,4.45,30.3h0ZM94.14,358.13c2.64,6.43,6.46,12.27,11.82,17.26-.06-.62-.14-1.22-.2-1.84-.4-5.44.2-10.01,1.22-13.66-3.4-3.91-9.5-11.65-10.91-18.11-2.01-9.1-1.76-20.07-1.76-20.07,0,0,2.24,14.74,6.72,21.37,3,4.45,6.72,7.94,8.84,9.72.17-.31.34-.62.54-.91-1.93-3.88-5.67-12.05-7.14-18.62-2.01-8.99-1.16-28.09-1.16-28.09,0,0,2.24,21.49,5.3,27.16.94,1.76,2.01,3.8,3.06,5.81-.85-6.43-1.79-14.4-2.32-21.71-.26-3.4-.48-6.94-.6-10.46h0s-1.5,6.01-2.92,2.13c-1.42-3.88-1.87-23.84-1.87-23.84,0,0-4.03,21.23-3.8,32.23.26,10.97,2.32,17.01.71,15.11-1.59-1.9-5.41-20.24-5.41-20.24,0,0-3.09,9.78-2.95,24.43.08,13.86,2.58,21.57,2.83,22.34h0ZM119.65,274.45c1.79-.4,3.57-.45,5.3-.28-.79-4.39-4.25-12.1-4.79-12.59-.71-.57,3.32,2.27,7.8,7.34,2.38,2.69,3.83,5.36,4.68,7.26,1.19.51,2.3,1.08,3.23,1.59.06-.11.09-.23.14-.37-1.19-2.49-2.92-5.87-5.1-9.58-4.54-7.71-13.04-9.07-13.04-9.07,0,0,3.94,8.31,4.08,11.85.09,2.95-1.67,3.68-2.3,3.86h0ZM167.35,94.93l.34-.23c15.14-9.86,28.26-11.76,28.26-11.76,9.13-2.72,15.68-3.66,15.68-3.66,0,0-15.56.71-21.37,1.79-8.5,1.56-8.82,1.05-.28-5.7,6.97-5.56,10.86-8.14,10.86-8.14,0,0-15.36,6.38-24.21,15.82-4.68,5.02-7.6,9.1-9.27,11.88h0ZM214.64,329.75c-.43.74-.88,1.45-1.33,2.15.26,0,.54.03.79.09.82.09,1.62.26,2.41.48-.68-.91-1.3-1.81-1.87-2.72h0ZM194.77,366.43c1.13.14,2.15.99-.03,4.54-3.57,5.81-11.54,11.99-14.17,10.52-2.66-1.47-.62-7.23,2.47-9.98-2.66,1.7-5.16,3.46-6.8,4.62.77,2.98,1.33,8.28-1.39,14.91-.17.43-.37.85-.57,1.25,15.02-7.99,26.08-19.93,33.79-30.98-4.99,2.66-10.12,4.62-13.29,5.13h0Z"/>
      <path class="cls-1" d="M208.74,163.3s-4.76-.14-11.93-1.96c-7.2-1.84-12.56-3.94-12.56-3.94,0,0,4.93,7,11.91,7.82,6.97.82,12.59-1.93,12.59-1.93h0ZM239.24,163.3s4.76-.14,11.93-1.96c7.2-1.84,12.56-3.94,12.56-3.94,0,0-4.93,7-11.91,7.82-6.94.82-12.59-1.93-12.59-1.93h0ZM223.99,295.77c.91,1.33,1.67,2.75,2.35,4.2,2.01,4.28,3.03,8.99,3.15,13.61.06,1.93-.06,3.83-.31,5.67.26-8.25-3.4-15-3.4-15,0,0,1.42,5.67-.48,11.23-.43,1.25-.88,2.27-1.3,3.15-.43-.88-.88-1.9-1.3-3.15-1.9-5.56-.48-11.23-.48-11.23,0,0-3.66,6.75-3.4,15-.26-1.84-.34-3.74-.31-5.67.11-4.62,1.13-9.33,3.15-13.61.68-1.45,1.45-2.86,2.35-4.2h0ZM224.73,115.54c1.53-.74,3.2-1.22,4.9-1.45.62-.09,1.28-.11,1.9-.14-.43.48-.91.85-1.45,1.08-1.42.57-3.43.65-5.36.51h0ZM232.55,112.42c.82-1.73,1.22-4,1.25-6.29-.14.17-.26.31-.4.48-1.19,1.53-2.04,3.57-2.32,5.78.48,0,.99,0,1.47.03h0ZM233.71,104.06c-.03-.23-.06-.43-.08-.62-1.13-.85-3.12-1.84-5.81-1.42-1.42.23-2.72.71-3.83,1.3-1.11-.6-2.41-1.08-3.83-1.3-2.69-.43-4.68.57-5.81,1.42-.03.2-.06.4-.06.62.54.45,1.05.96,1.53,1.59,1.11,1.42,1.93,3.2,2.41,5.22.99-1.28,2.75-2.78,5.75-3.54,3.03.77,4.76,2.27,5.75,3.54.48-2.01,1.3-3.8,2.44-5.22.45-.62.96-1.13,1.53-1.59h0ZM233.23,101.37c-.03-.11-.06-.2-.08-.28-.65-2.3-.85-3.71-1.59-4.62-.28.11-.57.26-.85.4-2.3,1.19-3.29,2.69-3.71,3.71.2-.06.4-.09.57-.11,2.35-.37,4.28.17,5.67.91h0ZM229.92,95.5c-.85-.26-2.04-.43-3.71-.57-.79-.06-1.53.09-2.21.4-.68-.31-1.39-.45-2.18-.4-1.7.14-2.89.31-3.74.57,3.51,1.84,4.48,4.45,4.71,5.58.43.14.82.31,1.22.48.4-.17.79-.34,1.22-.48.26-1.13,1.19-3.74,4.71-5.58h0ZM223.99,108.94c3.09.91,4.48,2.61,5.07,3.66-1.76.26-3.49.79-5.07,1.56-1.59-.77-3.32-1.3-5.07-1.56.6-1.05,1.98-2.75,5.07-3.66h0ZM278.02,181.93c-.31.43-.71.99-1.22,1.5-1.7-1.42-3.63-2.66-5.81-3.83.17-.79.6-1.56,1.22-2.18,2.27,1.39,4.2,2.83,5.81,4.51h0ZM275.53,184.42c-.71.4-1.5.51-2.3.14-1.36-.62-2.15-1.87-2.35-3.23,1.73.96,3.26,1.96,4.65,3.09h0ZM273.48,176.37c1.02-.68,1.98-.96,2.83-.94.91.77,1.79,1.56,2.55,2.38.26.94.28,2.01,0,2.75-1.53-1.53-3.32-2.89-5.39-4.2h0ZM230.91,201.74c-1.22-.6-2.32-.99-3.2-1.28-.68-.26-1.39-.45-2.13-.57,8.73-3.15,14.26,2.38,19.5,9.35-.03-.99-.34-2.78-1.59-5.64-2.07-4.82-6.77-9.75-6.94-9.92-1.22-1.05-2.49-2.04-3.88-2.95-1.62-1.08-3.32-1.76-5.07-2.21-.37-.71-.68-1.47-.91-2.32-.94-3.37-1.11-12.22-1.11-16.47v-2.38h0c1.36.2,2.83.62,4.05,1.56,3.37,2.55,24.35,21.15,33,28.86,0,0-13.89-8.93-20.52-13.78-6.6-4.82-13.32-6.6-9.33-1.42,5.22,6.77,13.04,13.58,14.23,22.31.77,5.64-.54,10.23-.71,9.47-.99-4.99-5.24-8.45-8.76-10.2-2.18-1.11-4.54-1.9-6.63-2.41h0ZM254.52,218.18c6.8-12.9,14.63-22.14,17.46-20.64l3.86,2.01c-1.47,1.02-3.09,2.55-4.79,4.56-.79.94-1.62,1.96-2.47,3.09-.03.06-5.9,7.2-5.53,3.77.34-3.43,3.71-8.02,2.64-7.31-1.05.71-5.9,6.66-10.97,15.48-5.07,8.79-8.39,21.2-8.39,21.2.43-4.79,3.43-13.18,8.19-22.17h0ZM272.95,206.76c-1.02,1.25-4.39,5.56-3.57,6.83.71,1.11,2.75-1.36,3.77-2.69.2-.26.37-.51.57-.77h0c.88-1.19,1.73-2.3,2.58-3.26,1.67-1.98,3.29-3.54,4.76-4.54l-2.04-1.11c-.91-.03-2.95,1.81-5.56,4.9-.14.17-.31.37-.45.54l-.03.03-.03.03v.03ZM273.82,215.46h0s-1.3,3.09-.08,3.12c1.19.03,3.17-3.49,5.53-6.04,2.44-2.58-19.81,36.65-14.06,41.16l.62.34c-2.83-1.5.37-13.18,7.2-26.08,6.83-12.9,14.66-22.14,17.49-20.64l-6.29-3.32c-.91-.06-2.92,1.79-5.56,4.9-1.53,1.79-3.17,4-4.85,6.55h0ZM278.95,388.66c-1.9-4.65-1.76-8.16-1.33-10.23,0,0,.4,3.34,6.12,6.72,5.73,3.34,13.12,2.24,13.12,2.24l-8.67,2.64s4.31,1.9,18.06-1.53c13.75-3.43,16.19-9.98,17.46-8.62.85.88.51,2.83-1.79,5.36-4.42,3.32-10.71,6.86-18.45,8.05-6.8,1.08-21.09,3.8-24.52-4.62h0ZM289.3,219.94c-1.42,4-3.46,8.65-6.01,13.46-5.5,10.43-11.68,18.45-15.34,20.35.06-.03,2.35-1.42,4.37-4.51l2.04-3.17s-3.12,1.3-2.3-.74c.85-2.01,4.14-3.15,7.28-9.24,3.12-6.07,2.72-7.4,3.63-8.14.88-.74-1.16,6.43-1.16,6.43,0,0,4.31-7.14,7.48-14.46h0ZM223.25,115.54c-1.53-.74-3.2-1.22-4.88-1.45-.65-.09-1.3-.11-1.93-.14.43.48.91.85,1.45,1.08,1.45.57,3.43.65,5.36.51h0ZM215.43,112.42c-.82-1.73-1.22-4-1.25-6.29.14.17.26.31.4.48,1.19,1.53,2.04,3.57,2.32,5.78-.48,0-.96,0-1.47.03h0ZM214.75,101.37c.03-.11.06-.2.09-.28.65-2.3.85-3.71,1.59-4.62.28.11.57.26.85.4,2.3,1.19,3.29,2.69,3.71,3.71-.2-.06-.37-.09-.57-.11-2.35-.37-4.28.17-5.67.91h0ZM169.99,181.93c.28.43.68.99,1.22,1.5,1.67-1.42,3.6-2.66,5.81-3.83-.2-.79-.62-1.56-1.25-2.18-2.27,1.39-4.17,2.83-5.78,4.51h0ZM172.46,184.42c.71.4,1.5.51,2.3.14,1.36-.62,2.15-1.87,2.35-3.23-1.73.96-3.26,1.96-4.65,3.09h0ZM174.5,176.37c-1.02-.68-1.98-.96-2.81-.94-.94.77-1.81,1.56-2.58,2.38-.26.94-.28,2.01,0,2.75,1.56-1.53,3.32-2.89,5.39-4.2h0ZM217.07,201.74c1.25-.6,2.32-.99,3.2-1.28.68-.26,1.39-.45,2.13-.57-8.73-3.15-14.26,2.38-19.5,9.35.03-.99.34-2.78,1.59-5.64,2.07-4.82,6.77-9.75,6.95-9.92,1.22-1.05,2.49-2.04,3.88-2.95,1.62-1.08,3.32-1.76,5.07-2.21.37-.71.68-1.47.91-2.32.94-3.37,1.11-12.22,1.11-16.47v-2.38h0c-1.36.2-2.83.62-4.05,1.56-3.37,2.55-24.35,21.15-33,28.86,0,0,13.89-8.93,20.52-13.78,6.6-4.82,13.32-6.6,9.33-1.42-5.22,6.77-13.04,13.58-14.23,22.31-.77,5.64.57,10.23.71,9.47.99-4.99,5.24-8.45,8.76-10.2,2.18-1.11,4.54-1.9,6.63-2.41h0ZM193.46,218.18c-6.8-12.9-14.63-22.14-17.46-20.64l-3.86,2.01c1.47,1.02,3.09,2.55,4.79,4.56.79.94,1.62,1.96,2.47,3.09.03.06,5.9,7.2,5.53,3.77-.34-3.43-3.71-8.02-2.64-7.31,1.05.71,5.9,6.66,10.97,15.48,5.07,8.79,8.39,21.2,8.39,21.2-.43-4.79-3.43-13.18-8.19-22.17h0ZM175.07,206.76c.99,1.25,4.39,5.56,3.57,6.83-.74,1.11-2.78-1.36-3.8-2.69-.2-.26-.37-.51-.57-.77h0c-.88-1.19-1.73-2.3-2.55-3.26-1.7-1.98-3.32-3.54-4.79-4.54l2.04-1.11c.91-.03,2.95,1.81,5.56,4.9.14.17.31.37.45.54l.03.03.03.03.03.03ZM174.16,215.46h0s1.3,3.09.08,3.12c-1.19.03-3.17-3.49-5.53-6.04-2.44-2.58,19.81,36.65,14.06,41.16l-.62.34c2.83-1.5-.37-13.18-7.2-26.08-6.8-12.9-14.63-22.14-17.46-20.64l6.26-3.32c.91-.06,2.92,1.79,5.56,4.9,1.53,1.79,3.17,4,4.85,6.55h0ZM169.03,388.66c1.9-4.65,1.76-8.16,1.33-10.23,0,0-.4,3.34-6.12,6.72-5.73,3.34-13.12,2.24-13.12,2.24l8.7,2.64s-4.31,1.9-18.08-1.53c-13.75-3.43-16.16-9.98-17.46-8.62-.85.88-.51,2.83,1.79,5.36,4.42,3.32,10.71,6.86,18.45,8.05,6.8,1.08,21.09,3.8,24.52-4.62h0ZM158.68,219.94c1.42,4,3.46,8.65,6.01,13.46,5.53,10.43,11.68,18.45,15.36,20.35-.08-.03-2.38-1.42-4.39-4.51l-2.04-3.17s3.12,1.3,2.3-.74c-.82-2.01-4.14-3.15-7.26-9.24-3.15-6.07-2.75-7.4-3.66-8.14-.88-.74,1.16,6.43,1.16,6.43,0,0-4.31-7.14-7.48-14.46h0Z"/>
      <path class="cls-6" d="M166.59,162.62c-1.19,1.56-2.07,2.49-2.07,2.49h0c-.26.48-.51.94-.74,1.39-.17.79-.14,1.39.37,1.36,1.53-.11,2.83-2.83,5.98-3.43,3.12-.6,5.13.94,5.53.48.43-.48-3.12-4.08-3.12-4.08,0,0,2.15-.03,4.05.68,1.87.71-.51-1.73-2.24-2.98-1.76-1.25-3.2-.85-5.16,1.53-.99,1.25-1.96,2.04-2.61,2.55h0ZM281.39,162.62c1.19,1.56,2.07,2.49,2.07,2.49h0c.26.48.51.94.74,1.39.17.79.14,1.39-.37,1.36-1.53-.11-2.83-2.83-5.98-3.43-3.12-.6-5.13.94-5.53.48-.43-.48,3.12-4.08,3.12-4.08,0,0-2.15-.03-4.05.68-1.87.71.51-1.73,2.24-2.98,1.76-1.25,3.2-.85,5.16,1.53.99,1.25,1.96,2.04,2.61,2.55h0ZM223.99,237.71c5.58-.17,7.91-7.74,6.92-12.95,0,0,1.16,3.32,1.22,4.56.08,1.25,2.24-5.47,1.81-8.73-.4-3.23-1.02-3.63-.96-4.17.06-.51,2.18,1.79,2.66,5.98-.14,4.79-1.5,9.1-3.6,12.27-2.1,3.17-4.96,5.16-8.05,5.16s-5.95-1.98-8.05-5.16-3.43-7.48-3.6-12.27c.48-4.2,2.61-6.49,2.66-5.98.06.54-.57.94-.96,4.17-.43,3.26,1.73,9.98,1.81,8.73.09-1.25,1.22-4.56,1.22-4.56-.99,5.22,1.33,12.78,6.92,12.95h0ZM257.72,389.76c.06-.23.11-.48.17-.71,3.94,3.2,7.71,5.87,10.97,7.71,0,0-3.66-1.64-11.14-7h0ZM237.77,398.35c-.11-1.62-.62-3.37-1.42-5.27-1.62,1.93-3.34,3.74-5.16,5.47,2.04-.06,4.25-.11,6.58-.2h0ZM234.93,389.88c-2.1-4.37-4.96-9.33-7.03-14.77-1.22,1.11-2.55,2.13-3.91,3.06-1.36-.94-2.66-1.96-3.91-3.06-2.07,5.44-4.9,10.4-7.03,14.77,2.55,3.2,5.47,6.12,8.56,8.76.82.03,1.62.03,2.38.06.77-.03,1.56-.03,2.38-.06,3.09-2.64,6.01-5.56,8.56-8.76h0ZM226.77,371.85c-1.36-4.48-2.04-9.27-1.25-14.26,0,0,2.18,3.43,6.09,8.22.62-.96,1.13-1.84,1.53-2.61-4.2-5.73-7.46-11.37-8.96-16.27-.06-.14-.08-.28-.11-.43l-.08-.14-.06.14c-.06.14-.08.28-.14.43-1.5,4.9-4.76,10.54-8.96,16.27.4.77.91,1.64,1.53,2.61,3.91-4.79,6.09-8.22,6.09-8.22.79,4.99.11,9.78-1.25,14.26.85.85,1.79,1.67,2.78,2.44.99-.77,1.93-1.59,2.78-2.44h0ZM233.69,368.31c2.41,2.81,5.3,5.92,8.59,9.04.28-.77.54-1.5.77-2.27-2.78-2.98-5.41-6.07-7.85-9.16-.43.74-.91,1.53-1.5,2.38h0ZM244.77,379.62c1.11.96,2.24,1.96,3.43,2.89,2.49,2.01,4.76,3.77,6.8,5.27.06-.37.11-.71.17-1.02-3.23-2.78-6.49-5.84-9.67-9.1-.23.65-.48,1.3-.74,1.96h0ZM268.33,355.52s3,5.47,6.35,7c3.32,1.53,6.12.06,2.61-2.15-3.49-2.21-6.01-3.71-7.74-5.47-1.76-1.73-2.15-1.3-1.22.62h0ZM230.03,344.47c-.11-.4-.2-.79-.23-1.13-.2-1.47.06-2.49.6-3.2.6-.74,1.53-1.25,2.58-1.56.57-.17,1.13-.28,1.7-.37,2.78-.37,19.96,2.61,22.62,3.54.14.06.28.14.4.2.71.43,1.3.85,1.84,1.22,4.03,3.4,2.98,8.87-1.02,8.76-4.59-.11-10.57-6.66-10.57-6.66,0,0-.28,3.37-5.3,3.71-.45.03-.96,0-1.5-.06-.2-.68-.82-1.19-1.59-1.19-.48,0-.91.2-1.19.54-2.98-.96-6.21-2.61-8.33-3.8h0ZM239.21,330.26c-2.81-5.19-5.27-11.93-1.67-15.53,4.82-4.82,27.89,6.86,32.31,11.14,2.61,2.49,4.88,5.9,6.26,8.16.03.06,9.13,18.91,4.79,17.94-4.39-.94-8.7-4.54-5.92-6.01,2.78-1.47,2.61-5.19,2.61-5.19,0,0-3.43,2.38-9.92-1.73-6.49-4.11-8.05-10.01-8.05-10.01,0,0-.2,2.83-2.04,3.15-.85.11-1.76-.65-2.92-1.79v-.03c0-.85-.68-1.53-1.53-1.53h-.08c-1.11-1.02-2.44-2.15-4.08-3.12-4.73-2.69-10.29-5.02-10.35-3.17-.06,1.84,3.94,6.97,3.49,8.67-.26,1.02-1.73.03-2.89-.96h0ZM252.9,307.64c-1.47-4.9-2.38-10.52.03-13.04,2.41-2.52,5.67-4.22,8.84-5.24,3.97-1.28,7.4-1.53,8.53-.94,5.1,2.66,22.48,20.49,25.09,23.87,1.45,1.87,2.55,3.46,3.4,4.79,4.31,7.63,5.36,26.62,1.11,30.33s-12.22-6.49-8.56-7.74c3.66-1.25,6.32-3.32,6.32-3.32,0,0-3.17-1.11-8.73-4.9-5.56-3.77-5.56-15.51-5.56-15.51,0,0-3.12,3.29-5.24,1.22-.6-.54-1.47-2.15-2.61-4.2-.06-.28-.2-.51-.4-.71-3.06-5.61-7.6-13.8-11.88-14.09-6.15-.43-8.79,4.9-9.21,6.58-.45,1.67,2.13,4.56.79,4.71-.43.03-1.16-.74-1.93-1.81h0ZM280.29,290.18c-.94-.91-1.79-1.73-2.52-2.44.37-3.23,1.56-7.29,4.9-9.52,3.09-2.04,6.46-3.12,9.61-3.57,4.48-.62,8.45-.06,10.69.68,4.59,1.53,10.18,15.68,13.89,27.61,3.03,12.3.88,17.46-4.42,16.27-5.33-1.16-9.38-33.39-14.71-38.58-5.3-5.19-15.82,2.83-17.38,4.85s-.62,2.38.37,3.51c.65.71.11,1.05-.43,1.19h0ZM315.27,285.62l-.91-2.41c3.37-1.76,9.27-4.11,14.09-2.18,3.15,1.25,4.68,5.92,5.36,11.93.79,6.86.34,15.34-.23,23.02-.34,4.51-.82,9.24-1.33,13.72-.71,2.24-1.53,4.11-2.01,2.86-1.02-2.55,3.12-13.89-.71-23.5-1.13-2.83-1.76-5.78-2.13-8.53.2.06.4.08.6.08.99,0,1.79-.79,1.79-1.76s-.79-1.79-1.79-1.79c-.31,0-.62.09-.88.26-.34-5.22.06-9.5-.68-11.17-1.22-2.83-.82-1.13-5.58-.37-2.61.43-4.45.17-5.58-.17h0ZM319.86,326.41s.43,2.61-3.77,4.14c-4.2,1.53-5.44,3-3.2,7.03,2.27,4.03,3.69,5.02,5.27.06s2.95-8.79,2.58-10.35c-.34-1.59-.88-.88-.88-.88h0ZM223.99,132.09c1.9-.26,4.79-.51,8.99-.62,9.44-.23,11.79.94,11.79.94,0,0-11.51.11-14.74,3.15-.26.2-.45.45-.65.71.71-.4,1.53-.77,2.44-1.05,3.37-1.13,6.49-.91,6.94.51.48,1.39-1.87,3.46-5.24,4.59-1.81.6-3.54.82-4.85.65,1.02,2.32,4.45,3.94,11.88,2.01,2.58-.65,4.56-1.56,6.01-2.58.14.26.28.45.48.65h0c.37.37.85.62,1.36.74-5.56,3.54-7.88,6.55-15,9.61-4.59,1.98-7.6,2.55-9.41,2.66-1.81-.11-4.82-.68-9.41-2.66-7.11-3.06-9.44-6.07-15-9.61.51-.11.99-.37,1.36-.74h0c.2-.2.34-.4.48-.65,1.45,1.02,3.43,1.93,6.01,2.58,7.43,1.93,10.86.31,11.88-2.01-1.3.17-3.03-.06-4.85-.65-3.37-1.13-5.73-3.2-5.24-4.59.45-1.42,3.57-1.64,6.95-.51.91.28,1.73.65,2.44,1.05-.2-.26-.4-.51-.62-.71-3.26-3.03-14.77-3.15-14.77-3.15,0,0,2.35-1.16,11.79-.94,4.2.11,7.09.37,8.99.62h0ZM232.92,148.28h0v-.03h0v-.03h-.03v-.03h0v-.03h-.03v-.03h0l-.03-.03h0v-.03h-.03v-.03h0l-.03-.03h0l-.03-.03h0v-.03h-.03v-.03h-.03v-.03h-.03v-.03h-.03v-.03h-.03l-.03-.03h0l-.03-.03h0l-.03-.03h-.03v-.03h-.06v-.03h-.06v-.03h-.03l-.03-.03h-.03l-.03-.03h-.06l-.03-.03h-.08v-.03h-.14l-.03-.03h-.26l-.03.03h-.11l-.03.03h-.08v.03h-.08v.03h-.06v.03h-.06v.03h-.03l-.03.03h-.03l-.03.03h-.03v.03h-.03v.03h-.06v.03h0l-.03.03h-.03v.03h0l-.03.03h-.03v.03h-.03v.03h0l-.03.03h0v.03h-.03v.03h0l-.03.03h0v.03h-.03v.03h0l-.03.03h0v.03h0l-.03.03h0v.03h0l-.03.03h0l-.03.06v.03h0v.03h0l-.03.03h0v.06h0v.03h0v.03h0l-.03.03v.2c0,.68.54,1.25,1.25,1.25s1.22-.57,1.22-1.25c0-.17-.03-.34-.11-.51h0ZM223.99,122.83c.77.03,1.62.14,2.52.34,2.98.68,4.51,1.33,5.44,1.73.77.34,1.25.54,1.93.54,1.08,0,3.69-3.86,5.9-8.14,1.98-3.77,3.91-7.99,4.34-9.81.51-2.32-.88-4.37-2.3-6.46-.71-1.02-1.36-1.98-1.76-2.75,1.62,1.76,4.14,4.48,4.9,7.54.57,2.1-.03,3.91-1.19,7.6-1.64,5.13-1.67,5.39-2.58,11.45,0,0,4.03-2.32,7.31-9.52,3.32-7.2,8.99-3.86,12.3,11.23,1.59,7.26,2.78,11.62,3.69,14.37-.37.51-.62,1.16-.62,1.84,0,.82.34,1.59.88,2.13h0c.54.54,1.3.88,2.13.88,1.25,1.56-2.52-1.39-8.14-1.45-5.61-.06-8.82,3.83-10.03,2.66-.85-.82.28-3.63,1.11-5.3.4-.14.74-.37,1.05-.65h0c.48-.51.79-1.19.79-1.93s-.31-1.42-.79-1.9h0c-.31-.31-.65-.54-1.08-.65,1.45-3.57-.4-7.29-2.15-8.53-1.98-1.42-6.89-1.22-9.92-.94-1.33.14-2.35.48-3.63.14-1.53-.45-3.71-1.47-6.6-2.04-1.36-.26-2.52-.43-3.49-.51-.96.09-2.13.26-3.49.51-2.89.57-5.07,1.59-6.6,2.04-1.28.34-2.3,0-3.63-.14-3.03-.28-7.91-.48-9.92.94-1.76,1.25-3.6,4.96-2.15,8.53-.43.11-.77.34-1.08.65h0c-.48.48-.79,1.16-.79,1.9s.31,1.42.79,1.93h0c.31.28.65.51,1.08.65.79,1.67,1.93,4.48,1.08,5.3-1.22,1.16-4.42-2.72-10.03-2.66-5.61.06-9.38,3-8.14,1.45.82,0,1.59-.34,2.13-.88h0c.54-.54.88-1.3.88-2.13,0-.68-.23-1.33-.62-1.84.94-2.75,2.1-7.11,3.69-14.37,3.32-15.08,8.99-18.43,12.3-11.23,3.29,7.2,7.31,9.52,7.31,9.52-.91-6.07-.94-6.32-2.58-11.45-1.16-3.69-1.76-5.5-1.19-7.6.77-3.06,3.29-5.78,4.9-7.54-.4.77-1.05,1.73-1.76,2.75-1.42,2.1-2.81,4.14-2.3,6.46.43,1.81,2.35,6.04,4.34,9.81,2.21,4.28,4.82,8.14,5.9,8.14.68,0,1.16-.2,1.96-.54.91-.4,2.44-1.05,5.44-1.73.91-.2,1.73-.31,2.49-.34h0ZM260.56,141.59c.45,0,.79.37.79.79s-.34.77-.79.77c-.43,0-.77-.34-.77-.77s.34-.79.77-.79h0ZM254.63,138.59c.43,0,.77.34.77.77s-.34.77-.77.77-.77-.34-.77-.77.34-.77.77-.77h0ZM257.38,127.02c1.19,0,2.27.48,3.06,1.25.77.79,1.25,1.84,1.25,3.03s-.48,2.27-1.25,3.03c-.79.79-1.87,1.28-3.06,1.28s-2.24-.48-3.03-1.28c-.77-.77-1.25-1.84-1.25-3.03s.48-2.24,1.25-3.03c.79-.77,1.87-1.25,3.03-1.25h0ZM190.26,389.76c-.06-.23-.11-.48-.17-.71-3.94,3.2-7.71,5.87-10.97,7.71,0,0,3.69-1.64,11.14-7h0ZM210.21,398.35c.11-1.62.65-3.37,1.42-5.27,1.62,1.93,3.34,3.74,5.16,5.47-2.04-.06-4.25-.11-6.58-.2h0ZM214.3,368.31c-2.41,2.81-5.3,5.92-8.59,9.04-.28-.77-.54-1.5-.77-2.27,2.78-2.98,5.44-6.07,7.85-9.16.43.74.91,1.53,1.5,2.38h0ZM203.21,379.62c-1.11.96-2.24,1.96-3.43,2.89-2.49,2.01-4.76,3.77-6.8,5.27-.06-.37-.11-.71-.17-1.02,3.23-2.78,6.49-5.84,9.67-9.1.23.65.48,1.3.74,1.96h0ZM179.66,355.52s-3,5.47-6.35,7c-3.32,1.53-6.12.06-2.61-2.15,3.51-2.21,6.01-3.71,7.74-5.47,1.76-1.73,2.18-1.3,1.22.62h0ZM217.98,344.47c.09-.4.17-.79.2-1.13.2-1.47-.06-2.49-.6-3.2-.6-.74-1.53-1.25-2.58-1.56-.57-.17-1.13-.28-1.7-.37-2.78-.37-19.96,2.61-22.62,3.54-.14.06-.28.14-.4.2-.68.43-1.3.85-1.84,1.22-4.03,3.4-2.98,8.87,1.02,8.76,4.59-.11,10.57-6.66,10.57-6.66,0,0,.28,3.37,5.3,3.71.45.03.96,0,1.5-.06.2-.68.82-1.19,1.59-1.19.48,0,.91.2,1.19.54,2.98-.96,6.21-2.61,8.36-3.8h0ZM208.77,330.26c2.81-5.19,5.27-11.93,1.67-15.53-4.82-4.82-27.89,6.86-32.31,11.14-2.61,2.49-4.88,5.9-6.26,8.16-.03.06-9.13,18.91-4.76,17.94,4.37-.94,8.67-4.54,5.9-6.01s-2.61-5.19-2.61-5.19c0,0,3.43,2.38,9.92-1.73,6.49-4.11,8.05-10.01,8.05-10.01,0,0,.2,2.83,2.04,3.15.85.11,1.76-.65,2.92-1.79v-.03c0-.85.68-1.53,1.53-1.53h.09c1.11-1.02,2.44-2.15,4.08-3.12,4.73-2.69,10.29-5.02,10.35-3.17s-3.94,6.97-3.49,8.67c.26,1.02,1.73.03,2.89-.96h0ZM195.08,307.64c1.47-4.9,2.41-10.52-.03-13.04-2.38-2.52-5.67-4.22-8.84-5.24-3.97-1.28-7.4-1.53-8.53-.94-5.1,2.66-22.48,20.49-25.09,23.87-1.45,1.87-2.55,3.46-3.4,4.79-4.31,7.63-5.36,26.62-1.11,30.33s12.22-6.49,8.56-7.74c-3.66-1.25-6.32-3.32-6.32-3.32,0,0,3.2-1.11,8.73-4.9,5.56-3.77,5.56-15.51,5.56-15.51,0,0,3.15,3.29,5.24,1.22.6-.54,1.47-2.15,2.61-4.2.08-.28.2-.51.4-.71,3.06-5.61,7.6-13.8,11.88-14.09,6.15-.43,8.79,4.9,9.21,6.58.45,1.67-2.13,4.56-.79,4.71.43.03,1.16-.74,1.93-1.81h0ZM167.72,290.18c.94-.91,1.76-1.73,2.49-2.44-.37-3.23-1.56-7.29-4.9-9.52-3.09-2.04-6.46-3.12-9.61-3.57-4.48-.62-8.45-.06-10.69.68-4.59,1.53-10.18,15.68-13.89,27.61-3.03,12.3-.88,17.46,4.42,16.27,5.33-1.16,9.41-33.39,14.71-38.58,5.3-5.19,15.82,2.83,17.38,4.85,1.59,2.01.62,2.38-.37,3.51-.65.71-.09,1.05.45,1.19h0ZM132.72,285.62l.94-2.41c-3.4-1.76-9.3-4.11-14.12-2.18-3.15,1.25-4.68,5.92-5.36,11.93-.79,6.86-.34,15.34.23,23.02.34,4.51.82,9.24,1.36,13.72.68,2.24,1.5,4.11,1.98,2.86,1.02-2.55-3.12-13.89.71-23.5,1.16-2.83,1.79-5.78,2.13-8.53-.2.06-.4.08-.6.08-.99,0-1.79-.79-1.79-1.76s.79-1.79,1.79-1.79c.31,0,.62.09.88.26.34-5.22-.06-9.5.68-11.17,1.22-2.83.82-1.13,5.61-.37,2.58.43,4.42.17,5.56-.17h0ZM128.12,326.41s-.43,2.61,3.77,4.14c4.2,1.53,5.44,3,3.2,7.03-2.24,4.03-3.66,5.02-5.27.06-1.59-4.96-2.95-8.79-2.58-10.35.34-1.59.88-.88.88-.88h0ZM215.06,148.28h0v-.03h0l.03-.03h0v-.03h0l.03-.03h0v-.03h.03v-.03h0v-.03h.03v-.03h0l.03-.03h0l.03-.03h0v-.03h.03v-.03h.03v-.03h.03v-.03h.03l.03-.03h0l.03-.03h.03v-.03h.03v-.03h.03v-.03h.06v-.03h.06v-.03h.06v-.03h.03l.03-.03h.06l.03-.03h.08v-.03h.14l.03-.03h.26l.03.03h.14v.03h.08l.03.03h.06l.03.03h.03v.03h.06v.03h.03l.03.03h.03l.03.03h.03v.03h.03l.03.03h.03v.03h0l.03.03h.03v.03h0l.03.03h.03v.03h.03v.03h0l.03.03h0l.03.03h0v.03h0l.03.03h0v.03h.03v.03h0l.03.03h0v.03h0l.03.03h0v.03h0l.03.03h0l.03.06v.03h0v.03h0l.03.03h0v.06h0v.03h0l.03.03h0v.23c0,.68-.54,1.25-1.22,1.25s-1.25-.57-1.25-1.25c0-.17.03-.34.11-.51h0ZM187.42,141.59c-.43,0-.79.37-.79.79s.37.77.79.77.77-.34.77-.77-.34-.79-.77-.79h0ZM193.35,138.59c-.43,0-.77.34-.77.77s.34.77.77.77.79-.34.79-.77-.37-.77-.79-.77h0ZM190.6,127.02c-1.19,0-2.27.48-3.03,1.25-.79.79-1.28,1.84-1.28,3.03s.48,2.27,1.28,3.03c.77.79,1.84,1.28,3.03,1.28s2.24-.48,3.03-1.28,1.25-1.84,1.25-3.03-.48-2.24-1.25-3.03c-.79-.77-1.87-1.25-3.03-1.25h0Z"/>
      <path class="cls-8" d="M260.61,219.94l3.09.91h0c-.31.57-.62,1.11-.91,1.67h0c-3.57,6.75-6.21,13.15-7.57,18.06-1.11,4-1.47,6.75-.88,7.4l2.01,1.05c.03-1.79.37-4,1.08-6.52,1.39-5.02,4.03-11.48,7.6-18.28h0s-3.46,4.93-3.6,3.52c-.14-1.42,2.24-6.89,2.27-6.89M187.37,219.94l-3.06.91h0c.28.57.6,1.11.88,1.67h.03c3.54,6.75,6.18,13.15,7.54,18.06,1.11,4,1.47,6.75.88,7.4l-2.01,1.05c0-1.79-.37-4-1.08-6.52-1.39-5.02-4.03-11.48-7.57-18.28h0s3.43,4.93,3.57,3.52c.14-1.42-2.24-6.89-2.24-6.89M170.36,378.43c-7.48,3.8-19.13,6.86-32.37.23-3.94-1.96-7.26-4.2-10.06-6.58h0c3.8,6.94,11.79,11.82,11.79,11.82,0,0-7.85-2.66-14.88-10.15-7.03-7.51-9.38-18.17-9.38-18.17-1.81,3.09-4.05,8.79-3.4,17.52,1.13,15.02,13.12,21,26.39,23.22-16.78-6.55-19.67-17.91-19.67-17.91,0,0,.96,1.25,2.81,3.03-3.57-3.8-5.07-12.36,4.62-3.66,10.29,9.18,22.25,9.67,22.25,9.67l-6.32-4.25s10.77,3.66,18.62,1.13c7.85-2.55,9.61-5.9,9.61-5.9h0ZM277.62,378.43c7.48,3.8,19.13,6.86,32.37.23,3.94-1.96,7.26-4.2,10.06-6.58h0c-3.8,6.94-11.79,11.82-11.79,11.82,0,0,7.85-2.66,14.88-10.15,7.03-7.51,9.38-18.17,9.38-18.17,1.81,3.09,4.08,8.79,3.4,17.52-1.13,15.02-13.12,21-26.39,23.22,16.78-6.55,19.67-17.91,19.67-17.91,0,0-.96,1.25-2.81,3.03,3.57-3.8,5.07-12.36-4.62-3.66-10.26,9.18-22.25,9.67-22.25,9.67l6.32-4.25s-10.74,3.66-18.6,1.13c-7.88-2.55-9.64-5.9-9.64-5.9h0ZM291.4,208.74c.2.91.17,2.15-.06,3.69-.03.09-3.6,10.29-5.5,13.8-1.93,3.54-2.75,4.88-2.75,4.88,0,0,2.49-6.15,2.13-8.02-.08-.48-.34-.43-.71-.09-1.08,1.08-1.53,3.54-4.71,10.03-3.2,6.49-6.66,10.12-8.22,10.83-.54.26-.94.57-1.25.91-.65,1.76-.48,4.08,2.21,3.63,0,0-2.15,3.8-4.62,5.36-.28-2.81.28-7.31,1.19-10.74v-.06l.03-.06v-.06l.03-.03v-.06l.03-.06v-.03l.03-.06v-.09l.03-.06v-.03h0l.03-.06v-.06l.03-.03v-.06h0l.03-.06v-.03l.03-.06v-.06l.03-.03v-.09l.03-.06v-.03h0l.03-.06v-.03l.03-.06v-.06l.03-.03v-.03l.03-.06v-.06h0l.03-.03v-.06l.03-.03v-.03l.03-.06h0v-.03l.03-.06.03-.09h0l.06-.17v-.03l.06-.11v-.06l.06-.14h0l.09-.17v-.03l.06-.14c1.28-3.15,1.62-3.4,1.62-3.4,0,0-2.15,4.73-.74,6.12.06.03.11.09.17.11h0s.06.03.08.03h.26s.06,0,.06-.03h.06s.06-.03.08-.03l.03-.03c2.35-.94,7.51-10.4,8.11-11.54.57-1.05,1.08-2.1,1.56-3.12.08-.2.2-.43.28-.62h0l.03-.09.03-.06.06-.09v-.03l.06-.11v-.03l.06-.11h.03l.03-.11.03-.03.03-.11.03-.06.03-.06.06-.08v-.06l.06-.09v-.03l.06-.11h0l.06-.14h0l.06-.14.06-.08.03-.06.03-.08.03-.06.03-.06.03-.09v-.03l.06-.11v-.03l.06-.11h0l.06-.11v-.03l.03-.11.03-.03.03-.09.03-.06.03-.06.03-.08.03-.03.03-.11h0l.06-.14h0l.06-.11v-.03l.03-.09.03-.06.03-.06.03-.09.03-.03c.06-.23.14-.43.23-.65l.03-.06.03-.06.06-.14v-.03l.03-.11h0l.06-.11h0l.03-.08.03-.06.03-.11.03-.06.03-.09v-.03l.03-.11h.03l.03-.11h0l.03-.11.03-.03h0c.2-.62.4-1.25.57-1.84h0c.11-.34.77-2.98-.26-2.86-1.11.14-3.46,3-3.46,3,2.64-4.14,6.69-9.07,10.74-11.82h0ZM225.58,199.9h0v-30.16c0,4.25.17,13.1,1.11,16.47,1.25,4.48,4.48,6.6,7.2,9.01,2.72,2.44,4.54,4.48,4.54,4.48,0,0-3.88-3.03-12.84.2h0ZM225.58,242.87c3.57-.54,6.75-2.92,9.1-6.46,2.55-3.88,4.14-9.18,4.14-15.02,0-5.39-1.36-10.35-3.57-14.12,4.73,3.23,9.41,7.94,9.41,7.94,0,0-1.45-4.68-7.48-9.55-1.36-1.11-2.72-1.98-3.97-2.72,6.15,2.66,11.45,7.17,12.42,14.23,0,0-3.88-3.15-4.79-2.32-.88.82.71,1.9.65,5.78-.06,3.91-1.11,10.23.11,10.29,1.25.06,3.43-9.27,5.87-14.46,2.41-5.22,5.73-9.1,5.19-12.25-.54-3.12-12.64-18.88-12.64-18.88,0,0,5.33,3.54,12.05,7.31,6.75,3.77,10.57,5.13,10.57,5.13-.48.51-.99,1.05-1.47,1.64-.17.2-.34.4-.51.62l-15.79-9.95,13.18,13.32c-2.52,3.51-5.19,7.82-7.68,12.56h0c-3.57,6.75-6.21,13.24-7.6,18.26-.85,3.03-1.19,5.73-1.05,7.97-2.69,1.93-9.61,6.66-16.13,8.36v-7.68ZM260.1,220.88l-.09.2h-.03c-3.66,6.94-6.35,13.55-7.77,18.68-.71,2.52-1.08,4.73-1.08,6.52l-3.86-2.04h0c-.85-.45-1.16-1.84-.96-3.88.06-.17,3.63-10.91,7.37-17.49,3.8-6.6,7.09-11.57,7.09-11.57,0,0-4.79,9.44-4.2,12.42.48,2.24,2.55-1.08,3.52-2.83h0ZM268.72,223.97c-.06.14-2.01,4.76-.79,5.44,1.22.65,7.99-11.59,9.89-13.95-2.89,4.96-18.62,34.38-12.42,38.35l-5.84-3.09c-.57-.65-.2-3.4.91-7.37,1.36-4.9,3.97-11.31,7.54-18.06h0c.23-.45.45-.88.71-1.33h0ZM325.73,382.05c-.28.26-.6.57-.94.85.28-.28.6-.57.94-.85h0ZM156.58,208.74c-.2.91-.17,2.15.06,3.69.03.09,3.6,10.29,5.5,13.8,1.93,3.54,2.75,4.88,2.75,4.88,0,0-2.47-6.15-2.13-8.02.08-.48.34-.43.71-.09,1.08,1.08,1.53,3.54,4.71,10.03,3.2,6.49,6.66,10.12,8.22,10.83.54.26.94.57,1.25.91.65,1.76.48,4.08-2.21,3.63,0,0,2.15,3.8,4.62,5.36.28-2.81-.28-7.31-1.19-10.74v-.06l-.03-.06v-.06l-.03-.03v-.06l-.03-.06v-.09l-.03-.06v-.03l-.03-.06v-.03h0l-.03-.06v-.06l-.03-.03v-.06h0l-.03-.06v-.09l-.03-.03v-.06l-.03-.06v-.03l-.03-.06v-.03h0l-.03-.06v-.03l-.03-.06v-.06l-.03-.03v-.03l-.03-.06v-.06h0l-.03-.03v-.06l-.03-.03v-.03l-.03-.06h0v-.03l-.03-.06-.03-.09h0l-.06-.17v-.03l-.06-.11v-.06l-.06-.14h0l-.06-.17-.03-.03-.06-.14c-1.28-3.15-1.62-3.4-1.62-3.4,0,0,2.15,4.73.74,6.12-.06.03-.11.09-.17.11h0s-.06.03-.09.03h-.26s-.03,0-.06-.03h-.06s-.06-.03-.06-.03l-.06-.03c-2.35-.94-7.51-10.4-8.11-11.54-.57-1.05-1.08-2.1-1.56-3.12-.08-.2-.2-.43-.28-.62h0l-.03-.09-.03-.06-.06-.09v-.03l-.06-.11v-.03l-.06-.11h-.03l-.03-.11-.03-.03-.03-.11-.03-.06-.03-.06-.03-.08-.03-.06-.06-.09v-.03l-.06-.11h0l-.06-.14h0l-.06-.14-.06-.08-.03-.06-.03-.08-.03-.06v-.06l-.06-.09v-.03l-.06-.11v-.03l-.06-.11h0l-.06-.11v-.03l-.03-.11-.03-.03-.03-.09-.03-.06-.03-.06-.03-.08-.03-.03-.03-.11h0l-.06-.14h0l-.06-.11v-.03l-.03-.09-.03-.06-.03-.06-.03-.09v-.03c-.09-.23-.17-.43-.26-.65l-.03-.06-.03-.06-.06-.14v-.03l-.03-.11h0l-.06-.11h0l-.03-.08-.03-.06-.03-.11-.03-.06-.03-.09v-.03l-.03-.11h-.03l-.03-.11h0l-.03-.11-.03-.03h0c-.2-.62-.4-1.25-.57-1.84h0c-.09-.34-.77-2.98.26-2.86,1.11.14,3.46,3,3.46,3-2.64-4.14-6.69-9.07-10.74-11.82h0ZM222.4,199.9h0v-30.16c0,4.25-.17,13.1-1.11,16.47-1.25,4.48-4.48,6.6-7.2,9.01-2.72,2.44-4.54,4.48-4.54,4.48,0,0,3.91-3.03,12.84.2h0ZM222.4,242.87c-3.57-.54-6.75-2.92-9.1-6.46-2.55-3.88-4.14-9.18-4.14-15.02,0-5.39,1.36-10.35,3.57-14.12-4.73,3.23-9.41,7.94-9.41,7.94,0,0,1.45-4.68,7.48-9.55,1.36-1.11,2.72-1.98,3.97-2.72-6.15,2.66-11.45,7.17-12.42,14.23,0,0,3.88-3.15,4.79-2.32.88.82-.71,1.9-.65,5.78.06,3.91,1.11,10.23-.11,10.29-1.25.06-3.43-9.27-5.87-14.46-2.41-5.22-5.73-9.1-5.19-12.25.54-3.12,12.64-18.88,12.64-18.88,0,0-5.33,3.54-12.05,7.31-6.72,3.77-10.57,5.13-10.57,5.13.48.51.99,1.05,1.47,1.64.17.2.34.4.54.62l15.76-9.95-13.18,13.32c2.52,3.51,5.19,7.82,7.68,12.56h.03c3.54,6.75,6.18,13.24,7.57,18.26.85,3.03,1.19,5.73,1.05,7.97,2.69,1.93,9.61,6.66,16.13,8.36v-7.68ZM187.88,220.88l.11.2h0c3.66,6.94,6.38,13.55,7.77,18.68.71,2.52,1.08,4.73,1.08,6.52l3.85-2.04h0c.85-.45,1.16-1.84.96-3.88-.06-.17-3.63-10.91-7.37-17.49-3.8-6.6-7.09-11.57-7.09-11.57,0,0,4.82,9.44,4.2,12.42-.48,2.24-2.55-1.08-3.52-2.83h0ZM179.26,223.97c.06.14,2.01,4.76.79,5.44-1.22.65-7.97-11.59-9.89-13.95,2.89,4.96,18.62,34.38,12.42,38.35l5.84-3.09c.6-.65.2-3.4-.91-7.37-1.33-4.9-3.97-11.31-7.54-18.06h0c-.23-.45-.45-.88-.71-1.33h0ZM122.26,382.05c.28.26.6.57.94.85-.28-.28-.6-.57-.94-.85h0Z"/>
      <path class="cls-7" d="M223.99,117.78c-1.3.09-2.64.26-3.66.6-2.92.99-4.73,1.9-5.02,1.73-.17-.09-1.42-2.61-2.58-5.64-.71.2-1.39.48-2.04.82l.28.57c1.79,3.37,3.6,6.18,3.74,6.18.03,0,.28-.11.68-.28,1.02-.43,2.07-.91,5.41-1.64,1.13-.26,2.21-.37,3.17-.43.96.06,2.04.17,3.17.43,3.34.74,4.39,1.22,5.41,1.64.4.17.65.28.68.28.14,0,1.98-2.81,3.74-6.18l.28-.57c-.65-.34-1.33-.62-2.04-.82-1.16,3.03-2.41,5.56-2.58,5.64-.28.17-2.1-.74-5.02-1.73-1.02-.34-2.35-.51-3.66-.6h0ZM259.31,129.37c-.48-.48-1.16-.79-1.93-.79s-1.42.31-1.9.79c-.51.51-.79,1.19-.79,1.93s.28,1.45.79,1.93c.48.48,1.16.79,1.9.79s1.45-.31,1.93-.79c.51-.48.79-1.16.79-1.93s-.28-1.42-.79-1.93h0ZM267.9,141.79c-.26-.28-.62-.43-1.02-.43s-.74.14-1.02.43c-.26.26-.4.6-.4.99s.14.77.4,1.02h0c.26.26.62.4,1.02.4s.77-.14,1.02-.4h0c.26-.26.4-.62.4-1.02s-.14-.74-.4-.99h0ZM249.76,138.33c-.23-.2-.51-.34-.82-.34s-.6.14-.79.34c-.2.2-.34.48-.34.79s.14.6.34.79v.03c.2.2.48.31.79.31s.6-.11.82-.31v-.03c.2-.2.31-.48.31-.79s-.11-.6-.31-.79h0ZM188.67,129.37c.48-.48,1.16-.79,1.93-.79s1.42.31,1.9.79c.51.51.79,1.19.79,1.93s-.28,1.45-.79,1.93c-.48.48-1.16.79-1.9.79s-1.45-.31-1.93-.79c-.51-.48-.79-1.16-.79-1.93s.28-1.42.79-1.93h0ZM198.22,138.33c.23-.2.51-.34.82-.34s.6.14.79.34c.2.2.34.48.34.79s-.14.6-.34.79v.03c-.2.2-.48.31-.79.31s-.6-.11-.82-.31v-.03c-.2-.2-.31-.48-.31-.79s.11-.6.31-.79h0ZM180.08,141.79c.28-.28.62-.43,1.02-.43s.77.14,1.02.43c.26.26.4.6.4.99s-.14.77-.4,1.02h0c-.26.26-.62.4-1.02.4s-.77-.14-1.02-.4h0c-.26-.26-.4-.62-.4-1.02s.14-.74.4-.99h0ZM223.99,322.89c.74-.96,1.42-2.07,1.93-3.29,1.64-4.03,1.28-9.69,1.28-9.69,0,0,2.75,8.73.48,15.53-.14.48-.34.96-.54,1.42-.82,2.07-1.87,4-3.15,5.73-1.28-1.73-2.32-3.66-3.15-5.73-.2-.45-.37-.94-.54-1.42-2.27-6.8.48-15.53.48-15.53,0,0-.37,5.67,1.3,9.69.48,1.22,1.19,2.32,1.9,3.29h0ZM280.91,196.92l-3.29-1.73c-1.22-1.56-4.99-6.12-10.09-10.09-.57-.43-.99-.91-1.33-1.45,1.47.6,2.83,1.22,4.08,1.87.68.85,1.42,1.5,1.96,1.73.28.14.77.23,1.33.26.4.28.79.57,1.16.85,2.49,2.01,4.54,4.56,6.29,8.16l-.11.4ZM265.49,181.7c0-.09,0-.17-.03-.26-.06-.79.06-1.62.34-2.44.03-.06.03-.11.06-.17.85.4,1.64.77,2.44,1.13-.14,1.05.09,2.1.51,3.09-1.05-.45-2.15-.91-3.32-1.36h0ZM277.62,186.41c1.7,1.84,3.15,4.08,4.34,6.92-.08.34-.2.71-.28,1.05-1.67-3.03-3.6-5.3-5.87-7.14.6-.17,1.25-.45,1.81-.82h0ZM266.54,177.42c.17-.28.37-.57.57-.82.4-.48.82-.96,1.33-1.39.74.4,1.45.79,2.1,1.19-.51.45-1.02.96-1.45,1.53-.11.17-.23.37-.34.54-.71-.34-1.45-.68-2.21-1.05h0ZM279.75,183.97c1.22,1.64,2.24,3.54,3.12,5.81-.09.4-.17.77-.26,1.16-1.11-2.18-2.35-4-3.8-5.56.37-.4.68-.88.94-1.42h0ZM269.83,174.19c.94-.57,1.96-.99,3.09-1.25.68.45,1.33.91,1.96,1.36-.94.2-1.93.57-2.89,1.13-.68-.43-1.42-.82-2.15-1.25h0ZM280.26,179.4c1.08,1.39,2.01,2.92,2.78,4.71.11.88.17,1.7.17,2.52-.85-1.73-1.81-3.2-2.95-4.54.11-.79.11-1.67,0-2.69h0ZM275.27,172.66c2.72.06,4.56,2.24,5.78,5.05l.17.37-.11-.11c-.57-.68-1.16-1.33-1.79-1.96-.31-.54-.71-1.13-1.25-1.53-.2-.14-.48-.23-.82-.28-.65-.54-1.3-1.02-1.98-1.53h0ZM235.81,112.99c.79-2.32,1.47-4.76,1.5-6.52,0-.91-.14-1.7-.37-2.41.48-.14,1.02-.17,1.53-.14.6.03,1.19.2,1.79.45.57.94.94,1.79.79,2.41-.28,1.28-1.56,4.11-3.06,7.09-.71-.37-1.45-.65-2.18-.88h0ZM236.29,102.61c-1.08-2.04-2.64-3.54-2.24-5.84.06-.31.08-.62.11-.94,1.02-.09,1.93,0,2.64.11-.54,2.32.77,4.39,2.13,6.43-.11-.03-.23-.03-.34-.03-.79-.06-1.56.03-2.3.26h0ZM233.94,94.31c-.14-.48-.4-.88-.77-1.25.26-.82.65-1.7,1.3-2.47,2.35.6,4.88,1.39,7.51,2.44-2.01-.06-3.63.34-4.54,1.45-.88-.17-2.1-.31-3.51-.17h0ZM231.81,92.18c-1.19-.54-2.92-.82-5.24-.91-.94-.03-1.79,0-2.58.03-.77-.03-1.64-.06-2.55-.03-2.35.09-4.08.37-5.27.91-.26-.65-.57-1.33-.99-1.98,3.37-.71,6.35-1.05,8.82-1.16,2.47.11,5.47.45,8.82,1.16-.43.65-.74,1.33-.99,1.98h0ZM167.07,196.92l3.29-1.73c1.22-1.56,4.99-6.12,10.09-10.09.57-.43,1.02-.91,1.33-1.45-1.47.6-2.81,1.22-4.08,1.87-.68.85-1.42,1.5-1.96,1.73-.28.14-.77.23-1.33.26-.4.28-.79.57-1.16.85-2.49,2.01-4.51,4.56-6.29,8.16l.11.4ZM182.49,181.7c0-.09,0-.17.03-.26.06-.79-.06-1.62-.34-2.44-.03-.06-.03-.11-.06-.17-.85.4-1.64.77-2.44,1.13.14,1.05-.08,2.1-.48,3.09,1.02-.45,2.13-.91,3.29-1.36h0ZM170.36,186.41c-1.7,1.84-3.12,4.08-4.34,6.92.09.34.2.71.31,1.05,1.67-3.03,3.57-5.3,5.84-7.14-.6-.17-1.22-.45-1.81-.82h0ZM181.44,177.42c-.17-.28-.37-.57-.57-.82-.4-.48-.82-.96-1.33-1.39-.74.4-1.42.79-2.1,1.19.51.45,1.02.96,1.45,1.53.11.17.23.37.34.54.71-.34,1.45-.68,2.21-1.05h0ZM168.23,183.97c-1.22,1.64-2.24,3.54-3.09,5.81.06.4.14.77.23,1.16,1.11-2.18,2.35-4,3.8-5.56-.37-.4-.68-.88-.94-1.42h0ZM178.15,174.19c-.94-.57-1.96-.99-3.09-1.25-.68.45-1.33.91-1.96,1.36.94.2,1.93.57,2.89,1.13.68-.43,1.42-.82,2.15-1.25h0ZM167.72,179.4c-1.08,1.39-2.01,2.92-2.78,4.71-.11.88-.17,1.7-.17,2.52.85-1.73,1.81-3.2,2.95-4.54-.11-.79-.11-1.67,0-2.69h0ZM172.71,172.66c-2.72.06-4.56,2.24-5.78,5.05l-.17.37.11-.11c.57-.68,1.16-1.33,1.81-1.96.28-.54.68-1.13,1.22-1.53.2-.14.48-.23.82-.28.65-.54,1.3-1.02,1.98-1.53h0ZM212.2,112.99c-.82-2.32-1.5-4.76-1.53-6.52,0-.91.14-1.7.37-2.41-.48-.14-1.02-.17-1.53-.14-.6.03-1.19.2-1.79.45-.57.94-.94,1.79-.79,2.41.28,1.28,1.56,4.11,3.06,7.09.71-.37,1.45-.65,2.21-.88h0ZM211.69,102.61c1.08-2.04,2.64-3.54,2.24-5.84-.06-.31-.08-.62-.08-.94-1.05-.09-1.96,0-2.66.11.54,2.32-.77,4.39-2.13,6.43.11-.03.23-.03.34-.03.79-.06,1.56.03,2.3.26h0ZM214.04,94.31c.14-.48.4-.88.77-1.25-.26-.82-.65-1.7-1.3-2.47-2.35.6-4.88,1.39-7.51,2.44,2.01-.06,3.63.34,4.54,1.45.88-.17,2.1-.31,3.52-.17h0Z"/>
      <path class="cls-3" d="M146.63,322.04h0c0-.06.03-.09.03-.14l-.06.2-.06.23s0-.06.03-.14h0v-.03h.03v-.03h0v-.03h0v-.03h0l.03-.03h0M301.35,322.04h0c0-.06-.03-.09-.03-.14l.06.2.06.23s0-.06-.03-.14h0v-.03h0l-.03-.03h0v-.03h0v-.03h0v-.03h-.03M176.68,192.73c1.16.03,2.41.4,3.66,1.08,4.9-4.37,15.08-13.38,23.13-20.44-2.58,1.02-5.27,1.79-7.03,1.47-4.42-.82-13.44-7.4-13.44-7.4,0,0,10.83,4.99,13.44,4.93,2.61-.06,7.4-2.35,6.86-3.63-.57-1.28-9.52,1.5-9.52,1.5l6.6-3.29s-4.42,1.39-9.44-.74c-5.02-2.13-11.42-11.65-11.42-11.65,0,0,23.53,6.49,23.39,5.58-.17-.88-7.68-7.57-11.34-8.84-3.63-1.28-16.02,1.93-16.02,1.93,0,0,11.11-6.8,17.21-4.14,6.09,2.66,18.34,11.59,18.91,10.12.54-1.47-9.41-13.52-9.41-13.52,0,0,8.08,7.34,12.76,11.76,2.38,2.27,4.42,3.34,5.84,3.83,1.13-.2,2.21-.28,3.15-.31.96.03,2.01.11,3.15.31,1.42-.48,3.46-1.56,5.87-3.83,4.65-4.42,12.73-11.76,12.73-11.76,0,0-9.95,12.05-9.38,13.52.54,1.47,12.78-7.46,18.88-10.12,6.09-2.66,17.23,4.14,17.23,4.14,0,0-12.42-3.2-16.04-1.93-3.66,1.28-11.17,7.97-11.31,8.84-.17.91,23.36-5.58,23.36-5.58,0,0-6.41,9.52-11.42,11.65-5.02,2.13-9.44.74-9.44.74l6.6,3.29s-8.96-2.78-9.5-1.5c-.57,1.28,4.22,3.57,6.83,3.63,2.61.06,13.44-4.93,13.44-4.93,0,0-9.01,6.58-13.44,7.4-1.76.31-4.45-.45-7.03-1.47,8.08,7.06,18.23,16.07,23.13,20.44,1.28-.68,2.49-1.05,3.66-1.08-1.56-1.62-3.49-3.43-5.7-5.13-2.07-1.62-3.09-3.71-3.26-5.92-.08-1.19.08-2.44.48-3.66.4-1.16.99-2.3,1.81-3.34,2.1-2.72,5.56-4.82,9.78-5.13.26-.03.48-.03.71-.03,4.34,0,7.09,3,8.79,6.94.54,1.25.99,2.58,1.33,3.91.51-2.24,1.02-4.59,1.47-6.97-.14-.85-.31-1.67-.54-2.47-.14-.45-.31-.88-.48-1.3-.06,1.19-.65,2.01-1.53,1.73-1.39-.45-2.61-3.52-6.63-4.65-4-1.11-8.36,1.36-8.36,1.36,0,0-.65.51-1.42.03-.77-.45,4.42-5.3,4.42-5.3,0,0-6.49,2.47-6.69,1.47-.14-.82,3.46-3.77,6.29-6.29h0c.17-.17,3.12-2.69,4.03-2.49.94.17,1.87,2.61,3.91,4.85-1.13-1.64-2.35-3.66-3.34-5.81h0c-.14-.28-.26-.6-.4-.91h0v-.03l-.03-.03h0v-.03h0l-.03-.03v-.03h0v-.03l-.03-.03v-.03l-.03-.06-.03-.09-.03-.06-.03-.06-.03-.11-.03-.03v-.03l-.06-.09h0v-.06l-.06-.17-.03-.03v-.03l-.03-.09-.11-.28v-.03l-.03-.06-.08-.23v-.06l-.03-.06c-.03-.09-.08-.2-.11-.31v-.06c-.06-.09-.08-.2-.11-.31h0v-.06c-.06-.11-.08-.2-.11-.31v-.03h0c-.03-.11-.06-.23-.09-.34l-.03-.03h0c-.03-.11-.06-.26-.08-.37-1.96-7.97-.08-19.67-.08-19.67,0,0,.68,13.8,4.76,19.56-.09-1.28-.14-2.64-.14-4.11-.11-8.73,1.28-14.49,2.38-17.8-3.15-4.82-7.54-10.12-13.66-16.33,1.08,2.58,1.9,5.56,2.04,8.79l.03.45v.45l.03.14v.96l.03.4v1.9l-.03.14v.91l-.03.34v.54c-.03.28-.03.54-.03.79v.03l-.03.06v.4l-.03.2v.34l-.03.31h0l-.03.34v.06l-.03.26v.28l-.03.11v.23h0l-.03.31v.03l-.03.28-.03.11v.2l-.03.17v.11l-.03.28v.03l-.03.28-.03.06v.03l-.03.31v.03l-.03.28v.06l-.03.09-.03.26h0l-.03.28v.06l-.03.2-.03.14v.11l-.03.2-.06.31v.03l-.03.23v.09l-.03.14v.03l-.03.2-.03.23h0l-.06.23v.06l-.03.17v.09l-.03.11v.03l-.03.2-.03.2h0l-.03.2-.03.06-.03.14v.09l-.03.09-.03.17h0l-.03.2h0l-.03.17v.06l-.03.09-.03.11v.06l-.03.14h0l-.03.14v.03l-.03.11-.03.06v.09l-.03.09v.03c-.14.74-.23,1.11-.23,1.11h0v-.03h0v-.03h0v-.03h0v-.03h0v-.03h0v-.06h0v-.06h0v-.09h0v-.03l.03-.03h0v-.09h0v-.09h0v-.2h0v-.37h0v-.11h0v-.62h0v-.2h0v-.31c-.03-1.36-.14-3.37-.45-6.15v-.11h0v-.11l-.03-.11v-.09l-.03-.09v-.14l-.03-.11v-.17l-.03-.06v-.23l-.03-.11v-.11l-.03-.14v-.11l-.03-.09v-.14l-.03-.11-.03-.14v-.11l-.03-.11-.03-.26v-.03l-.03-.34-.03-.14h0l-.03-.14-.03-.26v-.06l-.03-.06v-.14l-.03-.26-.03-.06v-.09l-.06-.4v-.03l-.03-.11-.03-.14v-.14l-.03-.11v-.03l-.03-.14-.03-.28-.03-.06c-.03-.31-.08-.65-.14-.96v-.14h0l-.03-.17-.06-.28v-.09l-.03-.09-.03-.14-.03-.17v-.14l-.03-.06v-.11l-.09-.45-.03-.11v-.14l-.03-.09-.03-.11v-.11l-.03-.11v-.09h-.03v-.11l-.03-.11v-.03l-.03-.09v-.14l-.03-.09-.03-.09v-.11l-.03-.11-.03-.11h0v-.11l-.03-.09v-.03l-.03-.09v-.11l-.03-.06v-.06l-.03-.09v-.11l-.03-.11-.03-.09v-.03l-.03-.2v-.03l-.03-.06-.03-.11v-.11l-.03-.09-.03-.11h0v-.11l-.03-.09v-.03l-.03-.09-.03-.09v-.11l-.03-.11-.03-.09-.03-.11v-.09h0l-.03-.11-.03-.09v-.03l-.03-.09v-.09l-.03-.09v-.03c-.03-.17-.09-.34-.11-.48l-.03-.11c-.08-.37-.17-.77-.26-1.13h0l-.03-.06-.08-.34h0v-.03h0v-.03l-.03-.03h0l-.09-.34h0v-.03l-.08-.28-.03-.09v-.06l-.06-.17-.06-.23v-.03l-.06-.2h-.03l-.06-.2h0c-.03-.17-.08-.31-.14-.45l-.03-.14-.03-.06v-.06l-.08-.23-.03-.06v-.06h0c-.06-.14-.11-.28-.14-.43l-.06-.09v-.03h0l-.08-.23v-.06l-.03-.09-.03-.03v-.03l-.03-.03-.06-.2-.03-.03-.03-.09-.03-.09v-.03l-.08-.2-.03-.06h0l-.03-.09c-.06-.14-.11-.26-.14-.37l-.03-.03c-.06-.14-.11-.26-.17-.4v-.06l-.03-.06h-.03v-.03h0v-.03h-.03v-.03h0v-.03h0l-.03-.03h0l-.06-.14h0l-.06-.11h0v-.03h0v-.03h-.03v-.03h0v-.03h-.03l-.06-.14-.06-.11-.03-.06-.11-.2-.06-.14h0c-.06-.11-.08-.2-.14-.31l-.03-.03c-.14-.26-.26-.51-.4-.74l-.06-.09c-.06-.09-.11-.17-.14-.26l-.08-.11c-.03-.09-.09-.17-.14-.26l-.06-.09c-.06-.09-.11-.17-.17-.26l-.06-.09c-.14-.23-.31-.45-.45-.68l-.06-.06c-.06-.09-.14-.17-.2-.28l-.06-.06c-.06-.09-.11-.17-.2-.26l-.06-.09c-.06-.09-.14-.17-.2-.26l-.06-.06c-.17-.2-.37-.43-.54-.62h0c-.11-.11-.2-.2-.28-.28l-.06-.09c-.08-.06-.17-.14-.23-.23l-.06-.06c-.08-.09-.17-.17-.26-.26l-.06-.06c-.31-.28-.62-.57-.94-.82l-.08-.09c-.09-.06-.17-.14-.26-.2l-.08-.06c-.09-.09-.17-.14-.26-.23l-.09-.06c-.11-.09-.23-.14-.31-.23l-.03-.03c-.26-.17-.51-.34-.77-.51l-.03-.03c-.11-.09-.23-.14-.34-.23l-.09-.06c-.08-.06-.2-.11-.31-.2l-.06-.03c-.14-.09-.26-.14-.37-.23l-.03-.03c-.28-.14-.57-.31-.85-.45l-.06-.03c-.11-.06-.26-.14-.37-.2l-.09-.06c-.14-.06-.26-.11-.37-.17l-.08-.06c-.14-.06-.26-.11-.4-.17l-.06-.03c-.31-.14-.62-.28-.96-.43h-.03c-.14-.09-.28-.14-.45-.2l-.11-.06c-.11-.06-.26-.09-.37-.14l-.06-.03h0c-.37-.14-.77-.28-1.16-.43-2.35-.85-4.79-1.5-6.77-1.73-2.01-.23-2.89.06-3.09.65-.26,1.22,3.6,3.43,5.56,8.25,1.96,4.85-2.72,17.83-2.72,17.83,0,0,8.05-15,5.61-19.25-2.81-4.88-1.22-4.59,2.21-3.06h0c12.95,6.29,17.35,26.16,16.44,39.12h0c.82,0,1.59.34,2.13.88h0c.54.57.88,1.3.88,2.13s-.34,1.59-.88,2.13h0c-.06.06-.11.11-.2.17h.03c1.22-.17,1.22.03,1.22.03l2.07,3.66.06.11c.34,1.25.51,1.81.03,1.93-1.36.23-4.51-2.83-10.89-3.97-6.38-1.13-13.46,3.83-15.34,3.83s1.36-7.26,1.36-7.26c0,0-11.99,10.29-17.6,12.87-2.81,1.3-4.59,1.59-5.75,1.45-1.16.14-2.92-.14-5.75-1.45-5.61-2.58-17.6-12.87-17.6-12.87,0,0,3.26,7.26,1.36,7.26s-8.96-4.96-15.34-3.83c-6.38,1.13-9.52,4.2-10.89,3.97-.48-.11-.31-.68.03-1.93l.06-.11,2.07-3.66s0-.2,1.25-.03h0c-.06-.06-.14-.11-.2-.17h0c-.54-.54-.88-1.3-.88-2.13s.34-1.56.88-2.13h0c.54-.54,1.3-.88,2.13-.88h0c-.91-12.95,3.49-32.83,16.44-39.12h0c3.43-1.53,5.02-1.81,2.21,3.06-2.41,4.25,5.61,19.25,5.61,19.25,0,0-4.68-12.98-2.72-17.83,1.96-4.82,5.84-7.03,5.56-8.25-.2-.6-1.08-.88-3.09-.65-1.98.23-4.42.88-6.77,1.73-.4.14-.79.28-1.16.43h0l-.06.03c-.11.06-.26.09-.37.14l-.11.06c-.17.06-.31.11-.45.2h-.03c-.31.14-.65.28-.96.43l-.06.03c-.14.06-.26.11-.4.17l-.08.06c-.11.06-.23.11-.37.17l-.09.06c-.11.06-.26.14-.37.2l-.06.03c-.28.14-.57.31-.85.45l-.03.03c-.11.09-.23.14-.37.23l-.06.03c-.11.09-.23.14-.31.2l-.09.06c-.11.09-.23.14-.34.23l-.03.03c-.26.17-.51.34-.77.51l-.03.03c-.08.09-.2.14-.31.23l-.06.06c-.11.09-.2.14-.28.23l-.08.06c-.09.06-.17.14-.26.2l-.06.09c-.34.26-.65.54-.96.82l-.06.06c-.09.09-.17.17-.23.26l-.09.06c-.06.09-.14.17-.23.23l-.06.09c-.09.09-.17.17-.26.28h-.03c-.17.2-.37.43-.54.62l-.03.06c-.09.09-.17.17-.23.26l-.06.09c-.06.09-.14.17-.2.26l-.06.06c-.06.11-.14.2-.2.28l-.06.06c-.14.23-.31.45-.45.68l-.06.09c-.06.09-.11.17-.17.26l-.06.09c-.06.09-.09.17-.14.26l-.09.11c-.03.09-.08.17-.14.26l-.06.09c-.14.23-.26.48-.4.74l-.03.03c-.03.11-.09.2-.14.31h0l-.06.14-.11.2-.03.06-.06.11-.06.14h0l-.03.03h0v.03h0l-.03.03h0v.03h0l-.06.11h0l-.06.14h0v.03h-.03v.03h0v.03h-.03v.03h0v.03h-.03v.06l-.03.06c-.06.14-.11.26-.17.4v.03c-.06.11-.11.23-.17.37l-.03.09h0l-.03.06-.08.2v.03l-.03.09-.03.09-.03.03-.06.2-.03.03v.06l-.03.09-.03.06-.09.23h0v.03l-.06.09c-.03.14-.09.28-.11.43h-.03v.06l-.03.06-.08.23v.06l-.03.06-.03.14c-.06.14-.11.28-.14.45h0l-.06.2h0l-.09.2v.03l-.06.23-.06.17v.06l-.03.09-.08.28v.03h0l-.09.34h0l-.03.03v.03h0v.03h0l-.09.34-.03.06h0c-.09.37-.17.77-.26,1.13l-.03.11c-.03.14-.09.31-.11.48v.03l-.03.09v.09l-.03.09v.03l-.03.09-.03.11h0v.09l-.03.11-.03.09-.03.11v.11l-.03.09-.03.09v.03l-.03.09v.11h0l-.03.11-.03.09v.11l-.03.11-.03.06v.03l-.03.2v.03l-.03.09-.03.11v.11l-.03.09v.06l-.03.06v.11l-.03.09v.03l-.03.09v.11h0l-.03.11-.03.11v.11l-.03.09v.09l-.03.03v.11l-.03.09v.03l-.03.11v.11h0l-.03.09-.03.11v.11l-.03.11v.09l-.03.03v.11l-.03.11-.09.45v.11l-.03.06v.14l-.03.17-.03.14v.09l-.03.09-.06.28v.17h-.03v.14c-.06.31-.11.65-.14.96l-.03.06-.03.28-.03.14v.03l-.03.11v.14l-.03.14-.03.11v.03l-.06.4v.14l-.06.26v.14l-.03.06v.06l-.03.26-.03.14h0v.14l-.06.34v.03l-.03.26-.03.11v.11l-.03.14v.11l-.03.11v.11l-.03.11v.14l-.03.09v.14l-.03.11v.11l-.03.06v.17l-.03.11v.14l-.03.09v.2l-.03.11h0v.11c-.31,2.78-.43,4.79-.45,6.15v.31h0v.2h0v.62h0v.11h0v.37h0v.2h0v.09h0v.03l.03.03v.03h0v.06h0v.09h0v.06h0v.06h0v.03h0v.03h0v.03h0v.03h0v.03h.03s-.11-.37-.26-1.11v-.03l-.03-.09v-.09l-.03-.06-.03-.11v-.03l-.03-.14h0l-.03-.14v-.06l-.03-.11v-.09l-.03-.06-.03-.17h0l-.03-.2h0l-.03-.17-.03-.09v-.09l-.03-.14v-.06l-.06-.2h0l-.03-.2-.03-.2v-.03l-.03-.11v-.09l-.03-.17v-.06l-.06-.23h0l-.03-.23-.03-.2v-.03l-.03-.14v-.09l-.03-.23v-.03l-.06-.31-.03-.2v-.11l-.03-.14-.03-.2v-.06l-.03-.28h0l-.03-.26-.03-.09v-.06l-.03-.28v-.03l-.03-.31v-.03l-.03-.06-.03-.28v-.03l-.03-.28v-.11l-.03-.17v-.2l-.03-.11-.03-.28v-.03l-.03-.31h0v-.23l-.03-.11v-.28l-.03-.26v-.06l-.03-.34h0l-.03-.31v-.34l-.03-.2v-.45l-.03-.03c0-.26,0-.51-.03-.79v-.54l-.03-.34v-1.05l-.03-.31v-1.42l.03-.17v-1.02l.03-.34v-.6l.03-.45c.14-3.23.96-6.21,2.04-8.79-6.12,6.21-10.52,11.51-13.63,16.33,1.08,3.32,2.47,9.07,2.35,17.8,0,1.47-.06,2.83-.14,4.11,4.08-5.75,4.76-19.56,4.76-19.56,0,0,1.87,11.71-.08,19.67-.03.11-.06.26-.09.37h0v.03c-.06.11-.09.23-.11.34h0v.03c-.03.11-.06.2-.09.31l-.03.03v.03h0c-.03.11-.06.23-.11.31v.06c-.03.11-.08.23-.11.31l-.03.06v.06l-.08.23v.06l-.03.03-.11.28-.03.09v.03l-.03.03-.06.17v.06h0l-.06.09v.03l-.03.03-.03.11-.03.06v.06l-.06.09-.03.06v.06l-.03.03h0v.03l-.03.03h0v.03h0l-.03.03v.03h0c-.14.31-.26.62-.4.91h0c-.99,2.15-2.18,4.17-3.32,5.81,2.01-2.24,2.95-4.68,3.88-4.85.91-.2,3.86,2.32,4.03,2.49h0c2.83,2.52,6.43,5.47,6.29,6.29-.2.99-6.69-1.47-6.69-1.47,0,0,5.22,4.85,4.42,5.3-.77.48-1.42-.03-1.42-.03,0,0-4.37-2.47-8.36-1.36-4.03,1.13-5.24,4.2-6.63,4.65-.88.28-1.47-.54-1.53-1.73-.17.43-.34.85-.48,1.3-.23.79-.4,1.62-.54,2.47.48,2.38.96,4.73,1.47,6.97.34-1.33.79-2.66,1.33-3.91,1.7-3.94,4.45-6.94,8.79-6.94.23,0,.45,0,.71.03,4.22.31,7.68,2.41,9.78,5.13.82,1.05,1.42,2.18,1.81,3.34.4,1.22.57,2.47.48,3.66-.17,2.21-1.19,4.31-3.26,5.92-2.21,1.7-4.14,3.51-5.7,5.13h0ZM223.99,126c-1.19.14-2.55.37-4.11.79-5.27,1.47-6.77,2.52-6.77,2.52,0,0,5.84-.74,10.89-.79,5.05.06,10.91.79,10.91.79,0,0-1.53-1.05-6.8-2.52-1.53-.43-2.92-.65-4.11-.79h0ZM268.86,396.77c-4.73.37-9.47.65-14.03.88,1.19-2.49,1.98-4.68,2.52-6.55,6.89,4.05,11.51,5.67,11.51,5.67h0ZM254.63,389.42c-2.92-1.84-6.15-4.05-9.52-6.72-.45-.31-.85-.65-1.28-.99-.96,2.01-2.07,3.97-3.32,5.87h0c4.03,4.08,5.7,7.6,5.9,10.46,1.59-.06,3.2-.14,4.85-.2,1.79-3.43,2.78-6.24,3.37-8.42h0ZM241.34,379.64c-3.88-3.34-6.97-6.46-9.33-9.07-.6.79-1.28,1.62-2.04,2.44-.11.14-.23.28-.37.43,1.79,3.26,4.54,7.26,8.67,11.79,1.16-1.81,2.18-3.68,3.06-5.58h0ZM229.92,368.16c-2.52-3.03-3.71-4.93-3.71-4.93,0,0-.08,2.58,1.9,7.14.68-.77,1.28-1.5,1.81-2.21h0ZM277.34,372.42c-.06-.03-16.19-12.13-22.71-12.13-2.61,0-9.47-2.92-15.51-6.75-3-1.9-5.7-3.97-7.37-5.9.06.06,5.3,4.82,10.63,6.24,5.39,1.42,7.26-2.15,7.26-2.15.94,3.09.96,3.68,3.74,5.41,2.47,1.56,8.73-.74,8.73-.74,2.18-.77,3.63-3.12,3.63-3.12,0,0,.45,5.24,5.44,9.52.34.28,5.53,4.37,8.82,2.49,3.43-1.96-.48-4.88-.48-4.88,0,0-1.62-1.7-4.22-3.77-.62-.51-1.42-1.08-2.24-1.67l-.11-.09h0l-.14-.11c-2.52-1.81-4.93-3.2-4.93-3.2-.14-.17-.31-.37-.48-.54l-.03-.03.03.03c-2.3-2.61-4.11-4.96-4.11-4.96h0v-.03h-.03v-.03h0v-.03l-.03-.03h0l-.03-.03h0v-.03l-.03-.03h0v-.03l-.03-.03v-.03l-.03-.03h0l-.03-.03v-.03l-.03-.03v-.03l-.03-.03h0l-.03-.06-.03-.03v-.03l-.03-.03-.03-.06h0l-.03-.06-.03-.03v-.03l-.03-.06h-.03v-.06l-.06-.06h0l-.03-.06-.03-.06h0l-.03-.06-.06-.06h0l-.03-.09-.03-.03-.03-.03-.03-.06-.03-.06-.03-.03-.03-.06-.03-.03-.03-.06-.03-.06v-.03l-.06-.06-.03-.06-.03-.03-.03-.06-.06-.06v-.03l-.06-.09-.03-.03-.03-.03-.03-.09-.03-.03-.08-.14h-.03l-.03-.09-.06-.09h0l-.11-.14h0l-.06-.09-.03-.06-.03-.03-.06-.09-.03-.06-.03-.03-.06-.09-.03-.03-.11-.14v-.03l-.09-.14h-.03v-.03l-.06-.09-.06-.06-.03-.03c-1.13-1.53-2.55-3.15-4.03-3.91-.43-.2-.99-.43-1.67-.65-1.13-1.5-2.81-3.4-5.02-5.1-4.42-3.4-8.11-4.79-8.11-4.79,0,0,5.44,1.25,9.44,4.08,4.03,2.83,5.95,5.64,7.26,5.05,1.25-.57,1.16-2.52,1.16-2.64.03.23.6,6.52,3.83,7.91,3.32,1.42,10.35.77,10.35.77,0,0-2.38.96-4.9,1.42h0s-2.78.65-1.56,3.46c1.73,4,11.06,8.96,15.68,9.44,6.04.65,1.28-8.36.31-10.09,5.3,9.21,12.5,15.48,12.5,15.48,0,0-1.84-3.68-5.19-8.59-.54-.79-1.19-1.67-1.87-2.64h-.03l-.14-.23-.06-.06-.11-.14v-.03l-.2-.23-.03-.06-.08-.14-.06-.03-.34-.48-.06-.06-.31-.43-.03-.03-.11-.14-.03-.08-.08-.09-.11-.14h0l-.11-.14-.06-.09-.06-.06-.11-.17-.03-.03-.08-.11-.09-.11-.03-.03-.11-.14-.06-.09-.06-.09-.11-.14h0l-.11-.14-.09-.11-.03-.03-.11-.14-.03-.06-.09-.11-.11-.14h0l-.11-.14-.06-.09-.06-.06-.31-.4-.03-.03-.11-.14-.03-.09-.08-.06-.11-.14v-.03l-.11-.11-.06-.11-.03-.03-.11-.14-.03-.06-.08-.09-.08-.11-.03-.03-.11-.14-.06-.06-.03-.09c-.34-.4-.65-.82-.96-1.19h0c-1.64-2.07-2.81-3.51-2.81-3.51l-2.92-4.05v.03l-.03-.03v-.03h0v-.03h0l-.03-.06v-.03h0v-.09l-.03-.03h0v-.06h0v-.03l-.03-.11h-.03v-.11l-.03-.03v-.09l-.03-.06h0v-.06l-.03-.03v-.06l-.03-.06v-.06l-.03-.06v-.06l-.03-.06v-.06l-.03-.03v-.06l-.03-.03v-.09l-.03-.06-.03-.09v-.09l-.03-.06-.03-.06v-.03l-.03-.06v-.08h0l-.03-.09-.03-.06h0l-.03-.09v-.09h0l-.03-.08-.03-.06v-.03l-.03-.06-.03-.09v-.03l-.03-.06v-.08l-.03-.03v-.06l-.03-.09-.03-.03v-.06l-.03-.09-.03-.06v-.06l-.03-.09-.03-.03v-.06l-.03-.09-.03-.06v-.03l-.03-.11-.03-.06v-.03c-.65-2.01-1.59-4.54-2.78-6.77h0s-11.48-24.24-12.39-24.32c-.71-.06-3.91,2.13-5.47,3.43,1.19-1.22,3.4-3.26,4.9-3.83,2.18-.79,2.07-.23,4.68,3.97,2.58,4.17,8.48,17.35,10.77,19.36,2.3,2.01,3.03-.26,3.03-.26,0,0-.54,8.84,2.35,11.2,2.89,2.38,11.17,1.96,11.17,1.96,0,0-2.58.62-5.39.77h-.11c-.65.06-4.48.48-2.1,4.71,2.61,4.65,8.76,11.74,14.8,11.25,8.59-.68,4.56-20.44,4.28-21.66.82,3.77,2.07,9.44,3.12,12.98,1.64,5.7,3.34,9.47,3.34,9.47,0,0-.2-7.34-2.81-15.85h0l-.03-.14-.06-.17-.06-.17h0l-.06-.17-.06-.14-.03-.17-.06-.17-.06-.17-.06-.14-.06-.17-.06-.17-.06-.17-.11-.34-.06-.14-.11-.34-.09-.23-.11-.31-.06-.11-.14-.4-.03-.09c-.06-.14-.11-.28-.17-.43l-.03-.06v-.03l-.17-.43-.03-.03v-.06c-.06-.14-.14-.28-.2-.43v-.03l-.03-.03c-.06-.17-.11-.31-.2-.48-.65-1.56-1.45-3.09-2.3-4.59l-1.76-5.56c-.09-.28-.17-.54-.26-.79v-.06h0v-.03h0v-.03h0v-.03h0v-.03h0v-.03h0l-.03-.03v-.06h0v-.09h0v-.14l-.03-.03h0v-.23h0l-.03-.06v-.06h0v-.14h0l-.03-.06v-.2l-.03-.03v-.2l-.03-.09v-.14l-.03-.06h0v-.14l-.03-.06v-.17h0l-.03-.06v-.14l-.03-.03v-.17h0l-.03-.06v-.14l-.03-.03v-.17h-.03v-.17l-.03-.06v-.11l-.03-.09v-.11l-.03-.09v-.08c-.45-2.69-1.3-6.38-2.78-9.18-2.78-5.24-8.9-22.59-9.5-23.3-.57-.65-1.84-.54-4.11.03-2.24.6-4.17,1.96-4.17,1.96,0,0,2.75-2.49,5.64-3.51,2.89-.99,4.11-1.25,5.41,2.49,1.3,3.71,8.11,20.52,9.58,25.14,1.47,4.59,1.7,8.67,2.83,9.61,1.11.96,1.36-1.5,1.36-1.5,0,0,4.79,7.91,8.5,7.26,3.74-.65,6.04-6.12,6.04-6.12,0,0,.62,5.58-5.36,7.65-1.16.4-2.35.57-3.49.54h0c-.23,0-.45-.03-.68-.06-.96.06-2.55.51-2.38,3.17.23,3.8,3.86,8.9,3.91,8.99,1.59,1.53,3.26,2.52,4.71,2.01,4.37-1.53,5.19-14,5.19-14,.65,6.94,1.39,13.15,1.39,13.15,0,0,1.5-22.39,1.22-27.52-.08-1.56-.28-2.98-.57-4.39l-.03-.17v-.03l-.03-.11-.03-.11-.03-.06-.03-.14v-.03l-.03-.2h-.03v-.09l-.03-.14-.03-.03-.03-.14v-.06l-.03-.11-.03-.11-.03-.03-.03-.17v-.03l-.03-.11-.03-.11-.03-.06-.03-.14h0l-.06-.17v-.06l-.03-.09-.03-.14-.03-.03-.03-.14-.03-.06-.03-.11-.03-.11v-.03l-.06-.17v-.03l-.06-.14-.03-.09v-.06l-.06-.17h0l-.03-.17-.03-.06-.06-.2-.03-.03v-.03l-.06-.17v-.03l-.03-.11-.06-.14v-.03l-.06-.17v-.03l-.06-.14-.03-.09-.03-.06-.03-.17h-.03l-.03-.17-.03-.08-.03-.09-.06-.14v-.03l-.06-.17-.03-.03-.03-.14-.03-.11-.03-.06-.06-.17v-.03l-.06-.14-.03-.08-.03-.09-.06-.17h0l-.06-.17-.03-.09-.03-.09-.06-.17h0l-.06-.2-.03-.03-.03-.14-.06-.11v-.06l-.08-.2h0l-.06-.17-.03-.11-.03-.06-.06-.2h0l-.06-.17-.03-.09-.03-.11-.06-.17h-.03l-.06-.2v-.06l-.06-.14-.06-.14v-.06l-.09-.17v-.03l-.06-.17-.03-.11-.03-.09-.06-.2c.79-3.97,1.45-10.91,1.45-10.91,0,0-1.64,3.8-2.98,6.49-.96-2.81-1.98-5.53-2.86-7.97.82.6,1.87,1.08,3.06.99,3.06-.17,4.54-2.35,4.54-2.35-2.04,16.64,2.75,18.57,3.6,30.78.71,10.26-.96,21.8,1.76,21.54,1.5-.14,2.47-4.39,3.03-8.19-1.22,10.52-2.61,19.25-2.64,19.28-1.53,9.72-13.27,20.32-21.57,24.49-9.67,4.82-22.73,3.83-30.56-2.04h0ZM280.43,288.17s1.11-.48,3.8-.54c2.69-.09,3,.14,3,.14,0,0,.82,3.32,1.84,7.09.48,1.76,1.39,4.22,2.24,6.41-3.03-3.23-6.58-6.75-9.55-9.64.31-.2.6-.51.79-.91.91-1.9-2.13-2.55-2.13-2.55h0ZM255,306s.06.03.11,0l5.02-1.19s1.56,2.81,2.66,5.41c1.11,2.58,2.81,6.26,3.91,8.7-3.97-2.52-9.24-5.19-12.19-6.6-.34-.85-.68-1.81-1.02-2.81.08.2,1.25,3.2,3.88,2.18,2.66-1.02-2.04-5.39-2.38-5.7h0ZM242.13,328s5.1,4.37,7.46,7.37c.34.45.65.88.94,1.25-3.37-.77-6.94-1.42-8.48-1.7-.48-.71-1.02-1.56-1.59-2.49.48.71,1.7,2.04,3.88,1.84,2.98-.23-2.21-6.26-2.21-6.26h0ZM283.58,347.16l-.03-.06-.03-.03.06.09ZM229.46,217.64c-1.13-3.12-3.15-5.19-5.47-5.19s-4.34,2.07-5.47,5.19h0c-1.47,3.37-2.35,5.9-2.47,9.61,0,0-1.7-5.78.03-10.6,1.7-4.79-1.39-3.43-2.49-.96-1.05,2.38-1.25,4.9-1.28,5.07.11-4.96,1.47-9.44,3.63-12.67,2.1-3.17,4.96-5.16,8.05-5.16s5.95,1.98,8.05,5.16c2.15,3.23,3.51,7.71,3.63,12.67-.03-.17-.2-2.69-1.28-5.07-1.11-2.47-4.2-3.83-2.49.96,1.73,4.82.03,10.6.03,10.6-.11-3.71-.99-6.24-2.47-9.61h0ZM258.77,174.61c2.13-1.9,5.33-4.34,5.67-4.51.37-.2-3.32,3.74-4.08,6.18-.77,2.47-.11,6.66-.74,6.63-.62-.03-6.12-5.13-6.46-5.64-.03-.06,3.6-.88,5.61-2.66h0ZM179.12,396.77c4.76.37,9.47.65,14.03.88-1.19-2.49-1.98-4.68-2.52-6.55-6.89,4.05-11.51,5.67-11.51,5.67h0ZM193.38,389.42c2.89-1.84,6.12-4.05,9.52-6.72.43-.31.85-.65,1.25-.99.96,2.01,2.07,3.97,3.32,5.87h0c-4,4.08-5.7,7.6-5.9,10.46-1.59-.06-3.2-.14-4.85-.2-1.79-3.43-2.78-6.24-3.34-8.42h0ZM206.64,379.64c3.88-3.34,6.97-6.46,9.33-9.07.6.79,1.28,1.62,2.04,2.44.11.14.25.28.37.43-1.79,3.26-4.54,7.26-8.67,11.79-1.16-1.81-2.18-3.68-3.06-5.58h0ZM218.07,368.16c2.52-3.03,3.71-4.93,3.71-4.93,0,0,.08,2.58-1.9,7.14-.68-.77-1.28-1.5-1.81-2.21h0ZM170.64,372.42c.06-.03,16.19-12.13,22.71-12.13,2.61,0,9.47-2.92,15.51-6.75,3-1.9,5.73-3.97,7.37-5.9-.06.06-5.3,4.82-10.63,6.24-5.39,1.42-7.26-2.15-7.26-2.15-.94,3.09-.96,3.68-3.74,5.41-2.47,1.56-8.73-.74-8.73-.74-2.18-.77-3.63-3.12-3.63-3.12,0,0-.45,5.24-5.44,9.52-.34.28-5.5,4.37-8.82,2.49-3.43-1.96.48-4.88.48-4.88,0,0,1.62-1.7,4.22-3.77.62-.51,1.42-1.08,2.24-1.67l.11-.09h0l.14-.11c2.52-1.81,4.93-3.2,4.93-3.2.14-.17.31-.37.48-.54l.03-.03-.03.03c2.3-2.61,4.11-4.96,4.11-4.96h0v-.03h.03v-.03h0l.03-.03v-.03h0l.03-.03h0v-.03l.03-.03h0l.03-.03v-.06l.03-.03h0l.03-.03v-.03l.03-.03v-.03l.03-.03h0l.03-.06.03-.03v-.03l.03-.03.03-.06h0l.03-.06.03-.03v-.03l.03-.06h.03v-.06l.06-.06h0l.03-.06.03-.06h0l.06-.06.03-.06h0l.03-.09.03-.03.03-.03.03-.06.03-.06.03-.03.03-.06.03-.03.03-.06.03-.06.03-.03.03-.06.06-.06v-.03l.03-.06.06-.06v-.03l.06-.09.03-.03.03-.03.03-.09.03-.03.09-.14h.03l.03-.09.06-.09h0l.11-.14h0l.06-.09.03-.06.03-.03.06-.09.03-.06.03-.03.06-.09.03-.03.11-.14v-.03l.09-.14h.03v-.03l.06-.09.06-.06.03-.03c1.13-1.53,2.55-3.15,4.03-3.91.43-.2.99-.43,1.67-.65,1.13-1.5,2.81-3.4,5.02-5.1,4.42-3.4,8.11-4.79,8.11-4.79,0,0-5.44,1.25-9.44,4.08-4.03,2.83-5.95,5.64-7.26,5.05-1.25-.57-1.16-2.52-1.16-2.64-.03.23-.6,6.52-3.83,7.91-3.32,1.42-10.35.77-10.35.77,0,0,2.38.96,4.9,1.42h0s2.78.65,1.56,3.46c-1.7,4-11.06,8.96-15.68,9.44-6.04.65-1.28-8.36-.31-10.09-5.3,9.21-12.5,15.48-12.5,15.48,0,0,1.84-3.68,5.19-8.59.54-.79,1.19-1.67,1.87-2.64h.03l.14-.23.06-.06.11-.14.03-.03.17-.23.03-.06.11-.14.03-.03.34-.48.06-.06.31-.43.03-.03.11-.14.06-.08.06-.09.11-.14h0l.11-.14.06-.09.06-.06.11-.17.03-.03.09-.11.09-.11.03-.03.11-.14.06-.09.06-.09.11-.14h0l.11-.14.09-.11.03-.03.11-.14.03-.06.09-.11.11-.14h0l.11-.14.06-.09.06-.06.31-.4.03-.03.11-.14.06-.09.06-.06.11-.14v-.03l.11-.11.06-.11.03-.03.11-.14.03-.06.09-.09.11-.11v-.03l.11-.14.06-.06.06-.09c.31-.4.65-.82.94-1.19h0c1.64-2.07,2.81-3.51,2.81-3.51l2.92-4.05.03.03v-.06h0v-.03h0l.03-.06v-.03h0v-.09l.03-.03h0v-.06h0l.03-.03.03-.11h0v-.11l.03-.03v-.06l.03-.03v-.06h0v-.06l.03-.03v-.06l.03-.06v-.06l.03-.06v-.03l.03-.03v-.11l.03-.03v-.06l.03-.03v-.09l.03-.06.03-.09v-.09l.03-.06.03-.06v-.03l.03-.06v-.08h0l.03-.09.03-.06h0l.03-.09v-.09h.03v-.08l.03-.06v-.03l.03-.06.03-.09v-.03l.03-.06.03-.08v-.09l.03-.09.03-.03v-.06l.03-.09.03-.06v-.06l.03-.09.03-.03v-.06l.03-.09.03-.06v-.03l.03-.11.03-.06v-.03c.65-2.01,1.59-4.54,2.78-6.77h0s11.48-24.24,12.39-24.32c.71-.06,3.91,2.13,5.47,3.43-1.19-1.22-3.4-3.26-4.9-3.83-2.18-.79-2.07-.23-4.68,3.97-2.58,4.17-8.48,17.35-10.77,19.36-2.3,2.01-3.03-.26-3.03-.26,0,0,.54,8.84-2.35,11.2-2.89,2.38-11.17,1.96-11.17,1.96,0,0,2.58.62,5.39.77h.11c.65.06,4.48.48,2.1,4.71-2.61,4.65-8.76,11.74-14.8,11.25-8.59-.68-4.56-20.44-4.28-21.66-.82,3.77-2.07,9.44-3.12,12.98-1.64,5.7-3.34,9.47-3.34,9.47,0,0,.2-7.34,2.81-15.85h0l.03-.14.06-.17.06-.17h0l.06-.17.06-.14.06-.17.03-.17.06-.17.06-.14.06-.17.06-.17.06-.17.11-.34.06-.14.11-.34.09-.23.11-.31.06-.11.14-.4.03-.09c.06-.14.11-.28.17-.43l.03-.06v-.03c.06-.14.11-.28.17-.43l.03-.03v-.06c.09-.14.14-.28.2-.43v-.03l.03-.03c.06-.17.11-.31.2-.48.68-1.56,1.45-3.09,2.3-4.59l1.76-5.56c.09-.28.17-.54.26-.79v-.06h0v-.03h0v-.03h0v-.03h0v-.03h0l.03-.03h0v-.09h0v-.09h0v-.11l.03-.03v-.03h0v-.2l.03-.03h0v-.11h0v-.11l.03-.03h0v-.2l.03-.06v-.2l.03-.03v-.23l.03-.06h0v-.14l.03-.06v-.17h.03v-.2l.03-.03v-.17h0l.03-.06v-.09l.03-.06v-.11l.03-.09h0v-.09l.03-.09v-.17l.03-.09v-.11l.03-.09v-.03l.03-.06c.43-2.69,1.28-6.38,2.78-9.18,2.75-5.24,8.87-22.59,9.47-23.3.57-.65,1.84-.54,4.11.03,2.24.6,4.17,1.96,4.17,1.96,0,0-2.72-2.49-5.61-3.51-2.92-.99-4.14-1.25-5.44,2.49-1.3,3.71-8.08,20.52-9.58,25.14-1.47,4.59-1.7,8.67-2.83,9.61-1.11.96-1.36-1.5-1.36-1.5,0,0-4.79,7.91-8.5,7.26-3.74-.65-6.04-6.12-6.04-6.12,0,0-.62,5.58,5.36,7.65,1.16.4,2.35.57,3.49.54h0c.23,0,.45-.03.68-.06.96.06,2.55.51,2.38,3.17-.23,3.8-3.86,8.9-3.91,8.99-1.59,1.53-3.26,2.52-4.68,2.01-4.39-1.53-5.22-14-5.22-14-.65,6.94-1.39,13.15-1.39,13.15,0,0-1.5-22.39-1.22-27.52.09-1.56.28-2.98.57-4.39l.03-.17.03-.03v-.11l.03-.11.03-.06.03-.14v-.03l.06-.2h0v-.09l.03-.14.03-.03.03-.14v-.06l.03-.11.03-.11.03-.03.03-.17v-.03l.03-.11.03-.11.03-.06.03-.14h0l.06-.17v-.06l.03-.09.06-.14v-.03l.03-.14.03-.06.03-.11.03-.11v-.03l.06-.17v-.03l.06-.14.03-.09v-.06l.06-.17h0l.06-.17v-.06l.06-.2.03-.03v-.03l.06-.17v-.03l.03-.11.06-.14v-.03l.06-.17v-.03l.06-.14.03-.09.03-.06.06-.17h0l.03-.17.03-.08.03-.09.06-.14v-.03l.06-.17.03-.03.03-.14.06-.11v-.06l.06-.17v-.03l.06-.14.03-.08.03-.09.06-.17h0l.06-.17.03-.09.03-.09.06-.17h0l.06-.2.03-.03.03-.14.06-.11v-.06l.09-.2h0l.06-.17.03-.11.03-.06.06-.2h0l.06-.17.03-.09.03-.11.06-.17h.03l.06-.2.03-.06.03-.14.06-.14v-.06l.09-.17v-.03l.06-.17.03-.11.03-.09.06-.2c-.79-3.97-1.45-10.91-1.45-10.91,0,0,1.64,3.8,2.98,6.49.96-2.81,1.98-5.53,2.86-7.97-.82.6-1.87,1.08-3.06.99-3.06-.17-4.54-2.35-4.54-2.35,2.04,16.64-2.75,18.57-3.6,30.78-.71,10.26.96,21.8-1.76,21.54-1.5-.14-2.47-4.39-3.03-8.19,1.25,10.52,2.61,19.25,2.64,19.28,1.53,9.72,13.27,20.32,21.57,24.49,9.67,4.82,22.73,3.83,30.56-2.04h0ZM167.55,288.17s-1.11-.48-3.8-.54c-2.69-.09-3,.14-3,.14,0,0-.79,3.32-1.84,7.09-.48,1.76-1.39,4.22-2.24,6.41,3.06-3.23,6.58-6.75,9.55-9.64-.31-.2-.6-.51-.79-.91-.91-1.9,2.13-2.55,2.13-2.55h0ZM192.98,306s-.06.03-.11,0l-5.02-1.19s-1.56,2.81-2.66,5.41c-1.11,2.58-2.81,6.26-3.91,8.7,4-2.52,9.24-5.19,12.19-6.6.34-.85.68-1.81,1.02-2.81-.08.2-1.25,3.2-3.88,2.18-2.66-1.02,2.04-5.39,2.38-5.7h0ZM205.85,328s-5.1,4.37-7.46,7.37c-.34.45-.65.88-.94,1.25,3.37-.77,6.94-1.42,8.48-1.7.48-.71,1.02-1.56,1.59-2.49-.48.71-1.7,2.04-3.88,1.84-2.98-.23,2.21-6.26,2.21-6.26h0ZM164.41,347.16l.06-.06v-.03l-.06.09ZM189.21,174.61c-2.13-1.9-5.3-4.34-5.67-4.51-.34-.2,3.32,3.74,4.08,6.18.77,2.47.11,6.66.74,6.63s6.12-5.13,6.46-5.64c.03-.06-3.6-.88-5.61-2.66h0Z"/>
    </g>
  </g>
</svg>